<svg width="1184" height="612" fill="none" xmlns="http://www.w3.org/2000/svg"><path fill="#FBFBFB" d="M0 0h1184v612H0z"/><path opacity=".6" d="M262.559 286.136a6.902 6.902 0 00-3.929-.262 9.565 9.565 0 01-4.689-.319c-1.922-.75-1.753-.835 1.473-.76 4.745.104 6.02-.647 4.801-2.813-.863-1.566-.6-1.688 3.657-1.688 4.258 0 10.072 1.876 11.075 3.423.703 1.05-10.784 3.357-12.388 2.419zm16.88.704c.938 1.106 4.211.262 4.633-1.219.243-.816-.497-1.313-1.951-1.313-2.41.028-3.77 1.313-2.673 2.56l-.009-.028zm8.224-3.339c-.834.422-1.519 1.004-1.519 1.294 0 .291.685.526 1.519.526a1.426 1.426 0 001.519-1.295c.01-.703-.675-.918-1.509-.496l-.01-.029zm-16.711 25.648c.015.754.257 1.486.694 2.101.375.45.938.534 1.219.187.282-.347 0-1.294-.684-2.1-.685-.807-1.219-.938-1.219-.16l-.01-.028zm-27.42-21.812c2.589.047 2.635 0 .938-1.501-1.95-1.706-5.955-2.1-5.955-.581a1.936 1.936 0 001.135 1.5c1.258.404 2.571.61 3.892.61l-.01-.028zm23.913 21.306c-.291 0-.534.459-.534 1.012a1.183 1.183 0 001.284 1.013c.713 0 .938-.459.544-1.013-.394-.553-.994-1.012-1.294-1.012zm26.754-17.218c1.688 0 1.323-.937-.712-1.8-1.051-.441-1.52-.225-1.107.516a2.477 2.477 0 001.819 1.284zm3.573-2.025c.291 0 .535-.46.535-1.013a1.184 1.184 0 00-1.285-1.013c-.713 0-.938.46-.535 1.013.404.553.985 1.013 1.285 1.013zm2.56-65.09c0-.712-.459-.938-1.013-.534-.553.403-1.012.984-1.012 1.284 0 .3.459.535 1.012.535a1.18 1.18 0 001.013-1.285zm-3.001 96.523a1.983 1.983 0 001.876-1.519c.3-1.153 0-1.519-1.154-1.519-.843 0-1.322.225-1.05.497s.113.938-.337 1.519c-.647.76-.507 1.022.665 1.022zm4.286-31.396c.713 0 .938-.459.544-1.012-.394-.554-.994-1.013-1.294-1.013-.3 0-.535.459-.535 1.013a1.185 1.185 0 001.285.975v.037zm.741 5.852a3.044 3.044 0 001.013-2.091c0-.713-.46-.938-1.013-.497a3.033 3.033 0 00-1.013 2.091c0 .722.46.9 1.05.459l-.037.038zm-53.687-17.424c.629.676 2.682.554 5.58-.337 2.56-.778 2.551-.788-5.373-5.317-9.641-5.514-12.388-6.63-17.302-7.024-5.139-.422-12.266 1.782-12.266 3.751 0 1.097.31 1.041 4.379-.694 4.342-1.875 7.943-.985 14.404 3.489 3.292 2.288 4.248 3.422 3.583 4.285-.666.863 0 1.182 2.813 1.219 2.035 0 3.929.3 4.201.591l-.019.037zm-3.91-26.426c1.247-1.35 1.21-1.519-.375-1.519a1.682 1.682 0 00-1.782 1.519c0 .835.169 1.52.375 1.52a6.053 6.053 0 001.782-1.52zM488.249 91.505c-2.007.572-4.417.816-5.364.525-2.701-.825-10.7 2.054-11.253 4.052-.356 1.303-.103 1.603 1.05 1.256.835-.262 2.748.31 4.248 1.266 1.51.938 3.348 1.566 4.098 1.37 8.3-2.176 11.732-3.377 13.579-4.765l2.195-1.65-2.448-1.538c-2.129-1.36-2.963-1.425-6.105-.516zM473.245 78.04c-.741-.938-2.063-1.135-4.417-.722-3.695.647-6.067-1.144-2.71-2.054 1.491-.403 1.688-.797.938-1.79-2.063-2.56 1.791-2.552 5.373 0 2.635 1.875 3.92 2.278 5.505 1.668l2.072-.787-2.288-1.8a51.258 51.258 0 00-5.204-3.461c-3.395-1.932-2.936-2.898 1.453-3.057 3.957-.14 11.928-3.958 12.557-6.002a14.668 14.668 0 013.132-4.182c2.007-1.998 2.457-3.02 1.828-4.22-1.434-2.813 4.005-7.155 9.922-7.962 2.729-.375 5.776-1.294 6.761-2.044 1.632-1.238 1.219-1.313-4.192-.76-5.017.526-6.564.31-9.555-1.256-5.027-2.654-17.818-4.295-22.732-2.926a25.776 25.776 0 01-8.439.478c-3.048-.384-8.703.122-16.383 1.463a105.337 105.337 0 01-21.718 1.82c-22.103-.535-22.807-.46-32.072 3.629a55.5 55.5 0 01-16.157 4.688c-4.201.544-7.859.938-8.121.938-.263 0-.525 1.041-.6 2.307-.169 3.048 1.744 3.638 12.003 3.751 7.502 0 8.44.262 10.69 2.391 2.992 2.889 5.993 8.787 5.355 10.513-.281.76.413 1.706 1.678 2.306 2.514 1.182 3.808 5.965 2.364 8.759-.525 1.013-2.889 3.066-5.252 4.576-4.989 3.17-6.939 6.565-5.439 9.443.713 1.388.694 2.617-.094 4.567-1.65 4.136 1.079 9.087 6.78 12.304 2.485 1.397 5.121 2.541 5.861 2.532 2.757 0 5.411-2.439 9.819-8.937 5.486-8.084 8.561-10.166 17.667-11.966 4.361-.863 8.084-2.232 9.837-3.61 5.373-4.22 9.021-5.73 14.066-5.805a84.32 84.32 0 0012.848-1.791c6.592-1.407 7.736-1.913 6.864-3.001zm-29.098 218.413a1.012 1.012 0 101.012 1.013 1.024 1.024 0 00-1.012-1.013zm109.379 63.036c-.553.412-1.012.938-1.012 1.284 0 .347.459.535 1.012.535a1.18 1.18 0 001.013-1.285c0-.741-.459-.947-1.013-.534zm-248.13-57.757c-.553.413-1.013.938-1.013 1.285s.46.535 1.013.535a1.184 1.184 0 001.013-1.285c0-.685-.46-.919-1.013-.507v-.028zm-62.83-42.789c.769.937 1.642 1.359 1.932 1.031.291-.328.066-.769-.506-.938-.572-.168-.825-1.191-.572-2.185s0-1.8-.478-1.8c-1.623-.085-1.829 2.147-.376 3.892zm6.921-6.021c.338-.234.253-1.088-.187-1.875-.441-.788-1.079-1.266-1.426-1.023-.347.244-.253 1.088.188 1.876.44.788 1.078 1.219 1.425.975v.047zm7.296 17.264c0-1.322-.854-1.322-2.41 0-.938.816-.854 1.022.609 1.032.985-.038 1.801-.507 1.801-1.079v.047zm180.049 19.262c-.713 0-.938.459-.535 1.012.404.554.985 1.013 1.285 1.013.3 0 .535-.459.535-1.013a1.178 1.178 0 00-.441-.812 1.187 1.187 0 00-.891-.247l.047.047zm-175.21-21.325c1.238-.103 2.25-.6 2.25-1.106 0-1.313-3.394-1.163-3.995.178-.272.609.516 1.022 1.745.928zm244.97-134.362a6.773 6.773 0 01-3.161 1.97c-2.222.628-2.813 1.96-1.275 3.001.544.375.394 1.631-.431 3.404-.713 1.547-1.051 3.516-.75 4.388.3.872 1.04 1.332 1.95.891.91-.441 3.085-1.322 5.12-2.119 3.104-1.2 3.704-1.876 3.704-4.023a10.557 10.557 0 011.36-4.764c.741-1.191 1.116-2.607.816-3.141-.807-1.454-6.161-1.163-7.333.393zM318.787 61.553l12.294 1.013a12.135 12.135 0 004.548-1.688l3.189-1.791-2.579-.685c-1.416-.375-5.514-.46-9.106-.187-5.326.403-7.173.15-10.043-1.388-2.87-1.538-3.929-1.697-6.077-.76-2.147.938-4.22 3.536-3.404 4.324.132.112 5.167.628 11.178 1.134v.028zM558.59 347.334c-.553.413-1.013.985-1.013 1.285 0 .3.46.535 1.013.535a1.184 1.184 0 001.013-1.285c0-.713-.459-.947-1.013-.535zM335.067 49.822c3.751 1.754.712 3.376-6.274 3.31-5.626 0-6.03.085-4.201 1.22 1.332.815 3.751 1.097 6.968.778 3.413-.338 5.626-.057 7.164.937a91.416 91.416 0 012.232 1.445c0 .009 2.372-1.276 5.27-2.87 2.898-1.594 5.87-2.945 6.508-2.945.638 0 3.489-1.303 6.255-2.907 2.766-1.603 5.936-2.907 7.033-2.907 4.52 0 15.529-3.422 22.29-6.948l7.221-3.751-4.37.59c-2.41.32-9.856.938-16.551 1.416-12.913.882-32.587 2.86-33.009 3.31-.582.638 13.297 1.53 15.304.985 2.888-.787 3.882 1.079 1.35 2.551-1.319.756-4.551.956-9.696.6-8.318-.581-10.887.075-8.552 2.176 2.194 1.97.628 3.132-3.395 2.532-3.085-.46-3.338-.375-1.547.478zM321 46.924c3.545.835 4.849.6 8.074-1.416 3.226-2.016 3.189-2.138 1.613-3.366-1.988-1.566-6.367-.938-10.99 1.631-3.132 1.726-2.973 2.101 1.341 3.123l-.038.028zm-10.54 29.07a22.253 22.253 0 017.277.395c3.479.787 4.754.703 6.958-.441 2.513-1.304 2.888-1.275 5.702.469a19.854 19.854 0 015.354 5.87c1.276 2.194 2.635 3.995 3.01 3.995a6.8 6.8 0 012.42 1.275c1.669 1.229 1.632 1.322-.938 2.298a5.626 5.626 0 01-4.689.065c-2.41-1.106-6.742.676-7.689 3.151-.478 1.229-1.369 1.379-5.411.872-5.317-.675-10.09.788-7.446 2.27.76.431 2.673.384 4.37-.103 5.026-1.445 6.743-1.07 8.609 1.875a19.09 19.09 0 005.214 4.905c3.46 2.128 7.877 2.869 8.739 1.472.244-.403-.74-1.444-2.194-2.307-4.689-2.748-1.294-4.445 3.686-1.876 2.531 1.313 2.672 1.285 3.61-.769.75-1.669.656-2.757-.46-4.913-1.359-2.635-1.341-2.814.347-3.751 1.379-.741 2.57-.554 5.308.853 3.929 2.007 5.327 1.8 7.108-1.05 1.294-2.082 1.426-1.876-4.567-6.208a4.91 4.91 0 01-2.035-4.473c0-2.814-.281-3.104-4.351-4.398a14.455 14.455 0 01-6.358-3.901c-1.697-2.139-2.269-2.364-3.835-1.529-2.598 1.397-2.954 1.313-7.549-1.744-3.46-2.298-4.642-2.635-7.399-2.12a15.669 15.669 0 00-6.227 3.217c-3.816 3.367-5.139 1.632-1.622-2.129l2.551-2.729-3.573.638c-4.483.835-11.985 6.217-11.985 8.637 0 1.331 5.233 2.72 8.103 2.185h-.038zm43.681 86.068c3.141-.863 3.301-1.069 2.372-3.066a5.424 5.424 0 00-3.591-2.711c-3.451-.74-4.736-3.047-2.814-5.092.835-.937 1.013-1.556.422-1.556-.59 0-3.882 2.813-7.38 6.18l-6.358 6.17 3.386.347c6.77.703 10.709.619 14-.272h-.037zM571.456 52.026c1.876.6 2.814.506 3.32-.329.506-.834.938-.937 1.725-.065a2.59 2.59 0 002.504.628c1.257-.431 1.276-.356.113.544a7.44 7.44 0 01-3.836 1.06c-3.46 0-3.029 1.116 1.369 3.544l3.751 2.092 2.917-3.47c1.603-1.876 2.907-3.826 2.907-4.267 0-1.331 3.301-.872 4.454.619a2.548 2.548 0 01.469 2.476c-.431.75.347.872 2.607.422 2.082-.422 3.226-.291 3.226.384s.591.797 1.322.497c1.135-.469 1.144-.731.066-1.875a4.1 4.1 0 00-2.148-1.36c-1.359 0-6.395-3.282-6.404-4.173 0-.431.703-.563 1.566-.29 4.229 1.34 8.092 1.593 10.315.684 4.276-1.744 2.813-2.982-3.629-2.982-3.545 0-6.565-.488-7.174-1.163-.835-.938-1.069-.938-1.069 0a1.237 1.237 0 01-1.285 1.163c-.703 0-1.463.938-1.678 2.175l-.329 2.148-.665-2.166c-.666-2.157-3.151-3.095-3.151-1.191 0 .647-2.926.76-8.506.337-7.333-.553-8.515-.431-8.515.844-.018 1.51 1.032 2.195 5.758 3.714zm-53.377 86.47a1.18 1.18 0 001.013-1.285c0-.712-.46-.937-1.013-.534-.553.403-1.013.938-1.013 1.285 0 .29.46.534 1.013.534zm-.788-61.78c.985 0 1.801-.459 1.801-1.03 0-1.323-.853-1.323-2.41 0-.966.815-.853 1.021.609 1.03zm163.836-1.575a22.593 22.593 0 006.414 1.52h2.748l-2.063-1.463c-2.701-1.876-2.607-4.173.337-7.737 2.813-3.376 7.033-5.392 14.067-6.686 7.033-1.294 8.346-1.754 7.699-2.813-.338-.554-2.148-.694-4.37-.347-2.223.347-6.471.816-9.744 1.078a33.5 33.5 0 00-8.702 1.763c-2.635 1.22-6.367 4.858-6.396 6.236 0 .366-.844 1.294-1.875 2.073-1.032.778-1.482 1.425-1.041 1.444.441.019.281.666-.356 1.453-1.285 1.716-1.407 1.604 3.282 3.48zm-336.233 91.207c0 .834.235 1.519.526 1.519.29 0 .872-.685 1.294-1.519.422-.835.187-1.52-.525-1.52a1.43 1.43 0 00-1.295 1.52zm172.679-61.273c.834 0 1.519-.46 1.519-1.013 0-.554-.685-1.013-1.519-1.013-.835 0-1.519.459-1.519 1.013 0 .553.684 1.013 1.519 1.013zm-.375 46.297c1.725-.329 6.264-1.069 10.099-1.651 5.214-.778 6.715-1.313 5.955-2.1-.76-.788-.441-1.463 1.304-2.645 2.569-1.744 2.241-3.676-.497-2.926-1.332.357-2.082-.328-3.226-2.944-2.382-5.477-4.689-8.6-7.155-9.556l-2.27-.938 2.016-2.222 2.007-2.213-2.1-.272c-1.163-.178-2.007-.844-1.876-1.473.131-.628-.075-1.134-.441-1.125-2.466.056-5.11 4.867-3.957 7.202.443.867.585 1.857.403 2.813-.384 1.116.722 1.557 3.114 1.229 1.031-.141 2.897 3.479 2.897 5.626 0 .507-1.209 1.36-2.682 1.876-1.472.516-2.428 1.397-2.1 1.95.328.554-.16 1.538-1.06 2.223-1.51 1.153-1.416 1.294 1.229 1.875 3.854.797 4.36 2.017 1.312 3.161-1.387.515-3.329 1.359-4.313 1.875-1.379.619-1.06.694 1.341.235zM289.126 97.919c-2.082 2.317-.647 3.151 3.46 2.017 2.41-.676 3.751-.6 5.477.318 1.95 1.032 2.382 1.023 3.001-.084.937-1.744-.629-3.535-4.248-4.689-3.217-1.106-5.027-.525-7.69 2.448v-.01zM120.958 129.1c-1.116.938-1.172 1.444-.281 2.532.891 1.088 1.219 1.088 1.96-.591 1.078-2.448.159-3.498-1.679-1.941zm269.343 254.732a18.838 18.838 0 01-8.44-5.12c-3.207-3.329-4.089-3.751-10.775-4.689-6.283-.891-7.568-.835-9.453.45-2.363 1.604-3.169.825-2.813-2.719.141-1.276-.938-2.476-3.676-4.061-4.192-2.429-5.308-2.241-10.025 1.716-1.819 1.529-2.728 1.726-4.473 1.004-1.275-.526-1.603-.938-.787-.938s2.307-1.05 3.404-2.26c1.875-2.035 1.875-2.326.544-3.751-2.213-2.298-3.686-1.876-8.093 2.354-3.029 2.897-4.286 3.591-5.055 2.813-.769-.778-.122-1.951 2.607-4.689 4.276-4.22 6.227-7.558 4.923-8.44-.487-.309-1.369-2.457-1.95-4.754-1.96-7.718-10.315-14.066-16.448-12.482-2.973.779-9.725-2.438-11.844-5.626-4.436-6.715-16.261-14.17-20.631-13.035-2.869.75-12.894-2.063-14.769-4.145-2.561-2.813-4.858-3.076-7.831-.797-2.972 2.279-3.319 3.517-1.781 5.111.647.666.403 1.641-.769 3.151-1.66 2.119-1.726 2.128-2.636.365-1.097-2.119-.121-8.936 1.567-11.056 2.016-2.522-2.11-1.678-4.455.938-1.153 1.275-2.935 2.335-3.957 2.344-2.448 0-5.355 2.532-7.08 6.105a12.683 12.683 0 01-3.479 4.304c-1.932 1.313-2.279 1.257-4.736-.787-3.076-2.56-5.486-2.757-9.912-.835-2.813 1.21-3.479 1.21-5.692 0a14.57 14.57 0 01-4.483-4.632c-1.875-3.236-1.931-3.433-.59-12.191.74-4.895 1.153-9.462.937-10.137-.637-1.735-6.123-2.42-12.125-1.52-6.564.985-6.864.207-3.019-8.439 5.626-12.594 6.048-13.954 4.791-14.779-1.519-1.004-3.16-.938-7.108.178-2.625.759-3.498 1.603-4.313 4.163-1.276 4.023-4.764 6.64-10.55 7.924-7.69 1.717-11.375-1.462-14.066-12.087l-1.445-5.786 2.814-8.956c1.556-4.932 3.207-10.034 3.666-11.347.535-1.5 2.551-3.291 5.496-4.867 2.56-1.369 6.057-3.329 7.764-4.351 3.676-2.194 5.505-2.316 8.778-.581a24.987 24.987 0 005.167 1.875c2.335.526 2.888.272 3.751-1.65a7.355 7.355 0 014.051-3.32c2.579-.881 3.751-.741 7.342.863 2.354 1.05 5.064 1.65 6.021 1.332 1.144-.375 2.494.159 3.957 1.594 1.81 1.763 2.119 2.729 1.66 5.251-.657 3.639 1.688 11.844 3.61 12.604.807.328 1.782-.479 2.617-2.148 1.116-2.241 1.162-3.957.318-10.775-.937-7.314-.853-8.439.629-11.253 1.669-3.226 9.912-9.912 15.716-12.734 5.627-2.757 8.234-6.368 8.328-11.647.094-5.28 1.782-8.112 2.907-5.083.591 1.613.703 1.557 1.181-.534.291-1.276 1.876-3.226 3.62-4.333a36.47 36.47 0 005.392-4.464 17.53 17.53 0 016.264-3.694c6.809-2.148 8.75-3.423 9.322-6.105.459-2.185 1.875-3.142 9.781-6.78 5.092-2.326 10.652-4.501 12.369-4.839 4.407-.853 5.063 1.032.937 2.813-4.604 1.998-6.095 3.357-4.688 4.267.618.394 2.907-.234 5.185-1.425a35.663 35.663 0 016.78-2.748 17.801 17.801 0 005.364-2.513l2.663-1.876-3.46.601c-4.389.769-8.055-.769-9.462-3.967-.938-2.138-.844-2.663.647-3.92a13.702 13.702 0 002.813-3.507c1.004-1.951.882-2.054-2.335-2.054-1.875 0-5.832 1.21-8.889 2.71-5.205 2.56-6.565 2.72-6.565.807 0-.45 3.526-2.57 7.821-4.689 7.333-3.657 8.337-3.901 15.876-3.976 10.213-.094 13.701-.844 21.522-4.689 7.189-3.513 9.434-6.549 6.733-9.106-1.829-1.725-4.801-1.875-7.399-.468-2.598 1.406-4.145-.385-1.763-2.12 1.81-1.313 1.81-1.313-.253-5.082-1.435-2.635-1.81-4.23-1.247-5.28a3.646 3.646 0 00-.113-3.31 4.556 4.556 0 01-.459-3.085 5.961 5.961 0 00-.254-3.339l-.731-2.044-3.029 2.466a56.552 56.552 0 01-6.339 4.154l-3.235 1.735-1.988-2.194c-1.651-1.876-1.81-2.523-.938-4.173a5.736 5.736 0 00.506-3.639c-.675-2.213-6.292-5.345-11.037-6.151-5.355-.938-8.534.666-10.512 5.214a16.096 16.096 0 01-4.211 5.626c-2.269 1.679-2.523 2.326-2.026 5.083.76 4.229-2.1 7.989-8.993 11.816-4.688 2.588-5.41 3.413-7.042 7.849-1.707 4.688-4.455 7.502-7.38 7.548-.601 0-1.707-1.209-2.457-2.719-1.257-2.513-1.229-3.123.394-7.39 1.875-4.979 1.875-5.082-2.204-6.001a46.77 46.77 0 01-8.046-3.348 45.297 45.297 0 00-7.858-3.263 5.014 5.014 0 01-2.155-1.078 5.009 5.009 0 01-1.4-1.961 8.858 8.858 0 00-2.203-3.272c-3.339-2.185 5.87-10.494 16.739-15.108 3.347-1.416 4.914-2.607 4.914-3.751 0-1.322.815-1.678 4.032-1.79a38.077 38.077 0 007.924-1.285l3.892-1.145-1.951-2.166c-2.288-2.522-1.182-3.75 2.016-2.27 1.707.807 2.767.713 4.933-.459a19.596 19.596 0 017.783-1.481c5.899 0 7.905-.938 11.835-5.383 3.301-3.751 3.479-4.398 1.491-5.195a7.504 7.504 0 00-8.44 1.875c-5.214 5.805-12.922 7.352-9.49 1.876 1.247-1.979 1.266-2.354.131-2.814a3.986 3.986 0 00-2.579 0c-1.941.779-3.498-2.878-2.25-5.307.731-1.416.74-2.232 0-2.973-.741-.74-2.364-.319-6.021 1.547-4.904 2.495-4.989 2.598-3.122 3.958 2.644 1.875 1.153 4.632-3.245 5.898a18.983 18.983 0 00-5.542 2.739c-2.166 1.753-2.241 1.753-4.689-.057-1.941-1.434-3.32-1.716-6.292-1.266a19.148 19.148 0 01-8.046-.787c-3.695-1.173-4.811-1.173-8.44 0a13.811 13.811 0 00-6.142 3.816l-1.876 2.495-1.594-2.992c-1.463-2.935-1.51-2.954-6.761-2.382-2.907.31-6.021.272-6.912-.084-1.556-.628-1.556-.713.104-1.988 1.659-1.275 1.687-1.322-.254-1.322a35.857 35.857 0 01-7.549-1.95c-4.013-1.417-6.761-1.81-9.902-1.426-2.982.365-5.167.093-6.94-.863-1.96-1.05-3.029-1.144-4.407-.384a5.037 5.037 0 01-3.489.459c-.937-.31-4.904.3-8.833 1.341-8.909 2.363-14.067 2.391-22.075.112a88.684 88.684 0 00-11.609-2.39c-2.945-.338-8.89-1.23-13.195-1.97-6.986-1.2-8.965-1.182-18.286.15-5.748.825-13.025 2.513-16.186 3.751-3.16 1.238-6.836 2.241-8.186 2.241-2.692 0-8.074 1.726-8.074 2.589a9.062 9.062 0 001.875 2.616l1.876 2.082-2.814 1.528a9.106 9.106 0 01-6.254.938c-3.751-.647-9.378.6-12.097 2.672-1.642 1.257-1.52 1.407 2.11 2.42 3.01.844 4.482.835 6.517 0 4.276-1.876 4.96.281.985 3.085-2.251 1.594-5.627 2.748-9.997 3.432-8.177 1.285-11.984 3.348-11.29 6.199.694 2.851-.263 4.829-3.367 6.499l-2.738 1.472 2.522 1.369c1.96 1.069 3.001 1.144 4.69.338 2.306-1.088 4.228-.554 3.347.937-.722 1.21-8.44 5.261-16.045 8.374-4.445 1.876-5.58 2.598-3.91 2.636 2.597.056 11.956-3.386 18.492-6.809a37.221 37.221 0 017.324-2.897 55.525 55.525 0 009.93-4.398c5.543-3.01 7.137-3.508 8.59-2.701 1.942 1.078 6.706.103 11.207-2.298 2.166-1.162 3.273-1.097 9.537.563a66.504 66.504 0 008.636 1.876c.854 0 2.814 1.012 4.38 2.241a33.187 33.187 0 006.086 3.657c3.329 1.444 4.304 3.385 4.051 8.037-.169 2.907.356 4.904 1.51 5.786.515.393.281.684-.563.694-2.026 0-3.892 4.942-2.71 7.145.675 1.247.553 2.101-.46 3.264-1.247 1.425-1.003 1.931 2.748 5.72 2.269 2.279 4.117 4.783 4.117 5.551a1.871 1.871 0 00.825 1.707c.46.169-.263 1.979-1.604 4.023-2.278 3.46-4.304 4.286-4.013 1.622.066-.637-.741-1.153-1.791-1.144-1.463 0-2.42 1.229-4.061 5.158a42.978 42.978 0 01-6.058 9.65 35.63 35.63 0 00-5.307 8.064 23.703 23.703 0 01-3.667 6.039c-1.238 1.37-1.997 2.898-1.688 3.414.31.516.084 1.997-.478 3.291-.835 1.876-.76 2.814.422 4.689.806 1.276 1.097 2.551.647 2.813-.45.263-.488 1.81-.066 3.536a97.128 97.128 0 011.285 6.386c.431 2.626 1.153 3.638 3.254 4.539 3.638 1.566 5.626 5.626 4.858 10.174-.451 2.767-.075 4.567 1.744 8.29 1.819 3.723 2.11 5.158 1.406 6.564-1.209 2.345-.506 3.976 2.814 6.499 2.166 1.66 2.607 2.541 2.166 4.379-.441 1.838.112 3.161 2.213 5.88 3.535 4.633 4.979 4.689 2.738.15a32.754 32.754 0 01-2.382-8.065 47.124 47.124 0 00-3.16-10.193c-3.395-7.615-3.835-9.912-2.297-12.088 1.087-1.547 1.622-1.66 3.526-.759 1.903.9 2.363 1.969 2.813 5.626a30.24 30.24 0 004.07 10.437c1.875 3.217 3.244 6.218 2.982 6.659-.263.44 1.078 2.569 2.982 4.688a41.293 41.293 0 015.542 8.356c1.819 3.891 1.96 4.942 1.125 8.355-.938 3.751-.825 4.051 1.876 7.052 1.763 1.932 7.502 5.458 14.788 9.153l11.928 6.001 3.892-1.547c3.526-1.397 4.126-1.407 6.564-.103a16.112 16.112 0 014.689 4.342c1.154 1.678 4.042 3.854 6.808 5.12 5.289 2.438 7.502 2.729 8.946 1.191.704-.732 1.257-.113 1.998 2.213a13.461 13.461 0 002.813 4.867 6.07 6.07 0 011.754 3.798 4.472 4.472 0 001.116 3.057c.609.506 2.813 2.4 4.801 4.21s4.126 3.301 4.689 3.301a18.573 18.573 0 014.623 1.969c3.751 2.026 4.876 1.829 4.895-.853 0-2.232 4.314-3.563 7.164-2.213 1.951.938 2.157 1.369 1.341 2.945-.525 1.031-.609 1.875-.178 1.875.432 0 .816.525.872 1.163.057.638.544 3.029 1.088 5.326 1.444 6.011-.084 11.253-5.298 18.052-7.849 10.315-9.687 16.355-5.308 17.546 1.773.478 1.744.637-.891 4.613-2.428 3.667-2.625 4.483-1.875 7.399a9.559 9.559 0 003.085 4.783c2.288 1.556 5.627 7.689 7.502 13.785a33.088 33.088 0 004.408 7.896 66.216 66.216 0 015.795 9.715c2.25 4.829 3.057 5.626 8.824 8.777 8.055 4.398 14.582 11.056 15.998 16.327.676 3.198.972 6.465.882 9.733-.441 14.958.431 31.359 2.147 40.165a60.035 60.035 0 01.938 17.067c-.385 6.348-.234 9.565.478 10.465.572.713 1.107 3.179 1.201 5.486.14 3.563.731 4.792 3.929 8.168 2.532 2.682 3.573 4.482 3.197 5.504-.318.872.244 2.692 1.304 4.248 2.232 3.254 1.744 8.112-.938 8.984-2.316.76-2.1 1.566.891 3.329 1.688 1.004 3.113 3.057 4.164 6.039 2.091 5.899 5.851 12.191 7.652 12.866a6.508 6.508 0 012.616 2.814c.825 1.603 1.688 2.156 2.813 1.791a4.406 4.406 0 013.17.365c2.185 1.276 7.061-2.25 5.627-4.06-1.585-1.998-1.276-6.199.787-10.381s1.604-7.849-1.088-8.918a8.529 8.529 0 01-2.86-2.917c-1.434-2.278-1.406-2.494.844-5.551 1.379-1.876 2.11-3.751 1.782-4.689a3.752 3.752 0 01.938-3.226c1.425-1.65 1.406-1.772-.347-2.353a7.413 7.413 0 01-3.273-3.442c-1.875-3.826-.572-5.111 3.198-3.085 1.575.844 2.973 1.397 3.104 1.238 1.65-2.045 2.222-4.689 1.369-6.358-1.379-2.682-.385-3.695 3.61-3.695 4.52 0 9.378-2.429 10.644-5.327.816-1.875.647-3-.938-6.273-1.06-2.195-2.879-4.445-4.051-4.998-1.172-.554-2.119-1.435-2.119-1.951 0-1.388 2.56-1.172 7.352.61 5.523 2.053 7.811.844 11.618-6.143a93.39 93.39 0 014.886-8.036 11.03 11.03 0 002.073-5.139 9.233 9.233 0 011.416-4.351 13.278 13.278 0 002.293-5.396 13.274 13.274 0 00-.258-5.857c-.938-3.058-.873-3.339 2.016-5.899a32.294 32.294 0 016.733-4.379c2.035-.938 3.985-2.176 4.332-2.767.347-.59 1.876-.872 3.901-.544 2.448.394 3.751.076 5.317-1.284 4.745-4.164 9.669-23.66 8.609-34.106-.535-5.346-.413-5.908 1.754-8.159a25.626 25.626 0 003.751-5.401 47.616 47.616 0 014.379-6.724c3.751-4.83 5.158-9.922 3.967-14.498-.647-3.094-1.144-3.516-5.664-4.876zM290.336 68.108a1.77 1.77 0 002.138.3 34.785 34.785 0 015.57-1.322c4.942-.825 6.836-2.373 4.004-3.273-3.891-1.228-13.053 2.129-11.712 4.295zm50.001 510.036c-4.567-.262-6.161 0-5.552.797.31.441 0 .807-.647.816-.647.01-.44.413.563.938 1.397.694 2.007.61 2.879-.413a3.599 3.599 0 011.875-1.303c.422 0 .272.431-.337.938a3.068 3.068 0 00-1.116 1.575c0 1.097 1.941.694 4.285-.881 2.542-1.717 2.139-2.223-1.95-2.467zM119.27 123.905c-1.012.647-1.509 1.594-1.087 2.119.422.525 1.181.431 1.875-.347 1.65-2.082 1.228-3.085-.788-1.772zM308.96 307.63c-.291 0-.535.459-.535 1.013.042.302.199.576.439.764.239.189.542.278.846.248.712 0 .938-.459.544-1.012-.394-.554-.985-1.013-1.294-1.013zM120.396 150.79c-2.148.835-1.782 2.129 1.444 5.205 1.594 1.519 3.685 2.757 4.689 2.757 2.072 0 2.091-.122.684-3.264-1.407-3.141-4.867-5.448-6.817-4.698zm107.645-82.597c-3.076 1.35-3.086 1.388-.938 1.95 3.029.778 2.813 2.213-.441 2.729-1.932.31-1.21.553 2.663.938 2.936.272 5.327.938 5.327 1.397 0 .46-2.813 1.107-6.161 1.36l-6.171.45 4.389 2.016a35.231 35.231 0 006.611 2.382c4.351.703 5.233.581 9.434-1.257 3.751-1.631 4.783-1.734 8.44-.834 3.657.9 4.689.825 8.927-1.163l4.689-2.194-2.869-1.529-2.861-1.529 1.754-2.944a15.517 15.517 0 001.754-3.62c0-1.538-3.386-.525-5.346 1.613-2.11 2.298-3.882 2.55-4.088.582-.066-.582-.16-1.51-.225-2.073-.066-.563-.882-.487-2.26.431-1.941 1.304-2.589 1.304-6.705.057a23.077 23.077 0 00-15.923 1.238zm47.3 12.003c3.357-1.576 3.404-1.67 1.2-2.288a10.311 10.311 0 00-5.307.45c-2.373.872-2.757 1.35-1.876 2.325 1.491 1.548 1.707 1.53 5.983-.487zm1.285-9.575c0 3.02 8.036-1.162 9.734-5.073.722-1.66 1.012-3.01.656-3.01-2.147 0-7.502 2.448-8.121 3.657-.487 1.022-1.594 1.266-3.807.854l-3.113-.582 2.288 1.585c1.322.881 2.363 2.035 2.363 2.57zm-61.789 1.942c7.436-3.189 16.88-6.434 21.315-7.343l5.439-1.107-4.079-1.275c-7.371-2.316-11.497-1.697-19.693 2.935-7.014 3.948-7.343 4.276-5.88 5.777a3.074 3.074 0 002.898 1.013zm105.498 514.903c-2.87-1.876-5.758-3.348-6.415-3.348-.656 0-1.603 1.05-2.091 2.325-1.06 2.757.188 4.38 4.633 6.03 1.726.603 3.559.842 5.382.703a55.592 55.592 0 015.693-.431l3.179-.075-2.579-.938a54.417 54.417 0 01-7.802-4.266zM68.228 122.507c-4.05.938-6.911 1.988-6.911 2.607 0 .3.74.282 1.65 0a34.436 34.436 0 014.267-1.087c1.435-.272 2.814-.844 3.142-1.285.328-.441-.61-.582-2.148-.235zm669.624 324.08c-.554.412-1.013.937-1.013 1.284s.459.535 1.013.535a1.18 1.18 0 001.012-1.285c0-.713-.412-.947-1.012-.534zm183.134-66.816a16.37 16.37 0 00-3.188-5.87l-4.614-5.448a9.561 9.561 0 01-2.054-3.32c-.159-2.766-1.697-4.979-4.951-7.108-3.254-2.129-4.83-3.611-11.966-11.516-2.588-2.869-8.618-6.423-10.962-6.47-1.801 0 .844 4.585 5.157 8.983a32.469 32.469 0 015.092 6.64 69.896 69.896 0 004.774 7.577 54.06 54.06 0 015.289 9.377c1.931 4.764 7.849 12.444 11.131 14.423 3.526 2.185 7.333-2.241 6.292-7.268zm11.066-96.588c1.734-2.861 1.734-2.879-.291-2.879-4.567 0-7.033 2.869-4.539 5.27 1.594 1.5 2.804.919 4.83-2.41v.019zM1084.03 405.85c-5.28-4.144-10.38-11.525-9.07-13.128 1.58-1.988-1.19-5.627-7.59-10.006a62.89 62.89 0 00-10.32-5.72c-2.31-.863-6.79-2.814-9.95-4.248l-5.72-2.682-4.14 2.457a24.633 24.633 0 00-5.56 4.304c-1.41 1.81-1.45 1.8-3.37-.713a9.426 9.426 0 01-1.94-4.079c0-2.523-2.65-5.627-4.76-5.627-1.4.117-2.76.526-4 1.201-1.98 1.144-1.87 1.228 2.23 3.31 3.9 1.969 4.11 2.251 2.62 3.376-2.51 1.875-1.13 5.092 2.19 5.092 1.47 0 5.78 1.632 9.61 3.62 5.55 2.888 7.25 4.285 8.44 6.958 1.54 3.329 1.54 3.348-.75 4.904-1.97 1.332-2.09 1.669-.87 2.382 1.04.474 2.21.554 3.31.225 1.29-.431 2.56.075 4.23 1.688a13.169 13.169 0 005.76 2.917c3.15.581 3.49.422 5.23-2.626 1.01-1.791 2.63-3.517 3.6-3.836 2.39-.787 7.06 2.195 9.61 6.124 2.23 3.432 4.81 5.158 10.48 7.014 6.44 2.045 6.54 1.623.73-2.925v.018zm-12.67 48.145a42.811 42.811 0 00-5.97-9.744c-2.86-3.028-3.02-3.507-2.18-6.479 1.25-4.483-.37-12.069-3.17-14.779-1.2-1.163-2.82-4.342-3.59-7.062-.76-2.719-1.74-4.951-2.17-4.951-1.29 0-3.75 7.502-4.32 12.95a17.304 17.304 0 01-3.54 9.378c-1.67 2.382-3.52 4.492-4.11 4.689-.59.197-4.17-1.876-7.97-4.642-8.24-5.974-9.13-8.018-5.77-13.251 2.61-4.06 2.38-4.379-4.64-6.32-3.26-.938-4.28-.807-7.18.694-1.8.94-3.69 1.719-5.63 2.325-2.29.582-7 6.658-5.97 7.718.31.328.13 1.144-.41 1.81-1.12 1.388-3.45.488-6.736-2.598-1.782-1.669-2.11-1.688-5.392-.328a14.242 14.242 0 00-5.627 4.633c-1.162 1.753-2.879 3.441-3.798 3.751a2.241 2.241 0 00-1.481 2.579c.206 1.997-.31 2.203-2.935 1.162-.938-.375-2.026.788-3.592 3.845-2.532 4.942-7.127 8.581-10.84 8.581-1.37 0-6.959 1.95-12.426 4.332-9.631 4.201-9.978 4.454-11.403 8.299-.806 2.176-1.238 4.858-.938 5.955.3 1.097.085 5.711-.44 10.259-.694 6.02-.676 9.725.075 13.635.937 4.689.816 5.861-.704 9.528-.937 2.278-2.363 4.407-3.151 4.688-2.156.854-.768 3.189 2.561 4.314 2.485.853 3.882.647 8.786-1.257a57.254 57.254 0 0112.004-2.925 34.409 34.409 0 0010.315-2.814c5.073-2.625 12.828-4.688 20.865-5.495 5.476-.563 6.442-.403 9.303 1.538a17.316 17.316 0 015.234 6.621c1.12 2.447 2.19 4.032 2.37 3.516.18-.516 2.14-2.185 4.36-3.751 5.15-3.563 6.67-2.316 2.81 2.26-1.58 1.876-2.62 3.648-2.3 3.976.32.328.94-.14 1.44-1.022 1.17-2.157 2.59-2.044 2.59.197.08 1.391.4 2.758.94 4.042.37.67.55 1.425.53 2.189-.02.764-.24 1.51-.64 2.162-.93 1.875-.83 2.326 1.04 3.807 3.48 2.813 7.83 3.695 10.14 2.129 1.82-1.229 2.17-1.144 4.06.938l2.07 2.269 3.16-2.476a10.781 10.781 0 016.98-2.55c3.53-.075 4.15-.479 7.5-4.886 2.03-2.635 4.08-4.801 4.57-4.801.49 0 2.31-2.063 4.07-4.577 1.76-2.513 3.98-4.838 4.93-5.157 2.68-.872 7.73-6.761 11.12-12.932a33.894 33.894 0 004.03-12.857l.94-7.295-3.47-4.689a73.192 73.192 0 01-6.3-11.131zm-57.45-268.302c1.8.516 2.4.338 2.4-.74a2.593 2.593 0 011.76-2.063c2.57-.919 1.38-2.207-3.54-3.864a26.618 26.618 0 01-7.39-4.098c-3.41-2.935-3.69-2.682-1.72 1.622 1.19 2.607 1.2 3.17 0 5.045-1.2 1.876-1.13 2.373.46 4.914 2.14 3.386 2.73 3.526 2.36.582-.24-2.457 1.07-2.776 5.69-1.444l-.02.046zm22.36 351.209c-.39-.066-2.15-.178-3.93-.244a23.138 23.138 0 01-5.28-.807c-1.88-.628-2.07-.422-2.07 2.054a11.209 11.209 0 01-1.01 4.558c-.79 1.388-.73 1.978.22 2.56 1.68 1.022 1.51 1.059 5.87-1.379 3.67-2.091 7.74-6.517 6.22-6.789l-.02.047zm-89.149-139.041c3.217.431 6.33.844 6.912.937a1.725 1.725 0 001.537-.609c.46-.713-4.941-3.629-6.714-3.629a10.016 10.016 0 01-3.395-1.782c-2.203-1.575-2.982-1.679-6.723-.863-3.386.732-4.689.666-6.246-.328-4.276-2.672-12.341-2.466-12.341.319 0 1.219 8.759 3.751 10.813 3.085 1.022-.319 3.751 0 6.086.769a72.51 72.51 0 0010.071 2.101zm31.228-80.732c.759 1.022 1.115.854 1.959-.937.844-1.792.835-2.195-.253-2.467-1.735-.394-2.86 1.838-1.706 3.404zm14.019-2.522c-1.266-1.932-3.648-3.442-4.332-2.757-.169.169.478 1.322 1.453 2.56 2.354 2.991 4.83 3.16 2.879.197zm-5.626 2.138c-.638 0-.938.281-.657.619.487.699.929 1.429 1.322 2.185.45.862 1.069 1.406 1.36 1.209.91-.618-.806-4.013-2.025-4.013zm-20.762-56.566c-1.51 2.41-1.613 3.273-.61 5.055a9.384 9.384 0 002.307 2.813c1.453.891 3.751-6.292 2.954-9.256-.76-2.803-2.326-2.335-4.651 1.388zm25.319 142.999c2.288-1.548 5.167-2.86 6.405-2.917 2.082-.084 2.044-.168-.582-1.069-3.61-1.238-7.502.366-10.005 4.117-2.335 3.451-1.098 3.413 4.145-.131h.037zm9.891-178.511c1.4-1.295 1.37-3.142-.04-3.123-2.058 0-3.418 1.341-2.818 2.738.619 1.632 1.36 1.726 2.818.385h.04zm-24.379 86.939c.244-.225-.319-1.125-1.266-2.007-.947-.881-1.716-1.21-1.716-.75a3.84 3.84 0 001.266 2.007c.694.647 1.472.984 1.716.75zm152.109 135.665c-2.68-4.736-3.17-5.017-3.17-1.791 0 1.454 1.77 4.332 4.68 7.69 4.43 5.017 6.41 6.433 6.41 4.585 0-.431-1.27-2.035-2.81-3.573a38.215 38.215 0 01-5.11-6.911zm-7.7-40.389c-.79 0-.71.656.23 1.744.83.938 1.75 1.51 2.05 1.219.83-.797-.85-2.963-2.28-2.963zm.4-3.254c.22-.45-.1-1.669-.73-2.72-.75-1.256-1.17-1.453-1.22-.581.02.95.27 1.881.74 2.71.44.769.98 1.041 1.21.591zm25.04 25.648c-.4-.404-.68.318-.63 1.612.05 1.295.35 1.717.72.741.18-.37.26-.778.25-1.188a2.636 2.636 0 00-.34-1.165zm-3.75 1.603c.53 1.275 1.23 2.335 1.56 2.335.82 0 .78-.112-.94-3.948-1.66-3.685-2.23-2.213-.62 1.613zm-25.52-27.467c-1.96-.938-2.22-.759-1.13.938 1.1 1.725 2.4 2.063 2.4.628a2.33 2.33 0 00-.45-.937c-.22-.272-.5-.488-.82-.629zm-27.12-18.811a16.064 16.064 0 01-6.56 3.751l-3.51.731 2.26 1.398c2.97 1.819 2.81 1.875 6.36-1.06 3.4-2.813 4.53-4.379 4.54-6.442-.01-.873-1.24-.254-3.09 1.622zm11.01 4.248c-.99-1.744-1.05-1.632-.52.938.26 1.479.78 2.9 1.54 4.191.53.676 1.37.938 1.88.647.5-.29.33-1.256-.44-2.203a29.69 29.69 0 01-2.46-3.611v.038zm-13.98-14.16c-.27.272.84 1.2 2.45 2.063a14.292 14.292 0 014.57 4.154c.94 1.463 1.8 2.063 2.02 1.397.7-2.185-7.56-9.143-9.04-7.614zm22.05 21.052c.41 0 .13-.684-.6-1.519a4.434 4.434 0 00-2.06-1.519c-.4 0-.13.685.6 1.519a4.427 4.427 0 002.06 1.519zm6.91 2.814c-2.5-2.654-3.8-2.232-1.37.44a5.372 5.372 0 002.57 1.82c.5-.01-.04-1.023-1.2-2.27v.01zm-8.44-1.791c-.57 0-.44.675.29 1.519a4.204 4.204 0 002.12 1.519c.46 0 .33-.685-.29-1.519a3.515 3.515 0 00-2.08-1.491l-.04-.028zM648.605 213.657c.554-1.425-.937-1.706-1.772-.328a3.153 3.153 0 01-2.372.938c-1.763 0-2.354.938-1.248 2.063.807.759 4.82-1.21 5.392-2.673zm-27.307.938c.666-1.247-2.729-2.251-7.352-2.157l-3.751.066 2.813 1.472c3.207 1.688 7.549 2.016 8.29.619zm-39.142-8.121c.314-.626.562-1.283.741-1.96.112-.863-5.355-1.556-7.821-.994-2.054.469-1.875.685 2.072 2.448 3.948 1.763 4.399 1.791 5.008.506zm-23.041-10.868c1.285 4.088 3.526 3.272 3.526-1.285 0-3.854-1.416-5.28-3.226-3.254-1.012 1.116-1.069 2.063-.3 4.539zm3.526-10.747c0-1.613-.422-2.082-1.519-1.707a1.937 1.937 0 00-1.419 2.45c.104.339.3.643.566.879 1.378 1.247 2.372.563 2.372-1.622zm146.29 231.11l-1.434 3.188c-1.876 4.164-9.659 11.253-13.26 12.078-3.817.873-5.224 4.436-4.398 11.254.572 4.688.384 5.532-2.195 9.865-2.579 4.332-2.813 5.204-2.232 9.593.666 5.476 1.023 6.264 3.564 7.746 2.241 1.313 1.875 1.313 5.889.065 3.751-1.172 5.101-3.535 7.418-13.344.722-3.066 3.216-11 5.532-17.639 4.342-12.397 4.595-14.882 2.101-20.528l-.985-2.278zm301.369-38.214c1.57-.712 1.38-.938-1.32-1.566a28.996 28.996 0 00-4.51-.731c-1.87 0-1.62 1.941.36 2.532 2.47.759 3.4.722 5.48-.207l-.01-.028zM592.012 114.593c1.735.984 2.025.853 2.025-.938a1.42 1.42 0 00-.934-1.438 1.424 1.424 0 00-.603-.081c-1.763.225-2.035 1.575-.488 2.457zm142.801 270.008c-.2 0-.396.059-.562.171a1.01 1.01 0 00.365 1.835 1.01 1.01 0 00.911-1.707 1.024 1.024 0 00-.714-.299zm-3.038 65.83a1.018 1.018 0 00-.936.625 1.022 1.022 0 00.22 1.104 1.01 1.01 0 001.558-.153c.111-.167.171-.363.171-.563a1.02 1.02 0 00-1.013-1.013zM539.441 198.175a2.695 2.695 0 001.876-1.669c.553-1.951-2.166-1.613-2.813.347-.385 1.134-.104 1.566.937 1.331v-.009zm152.301 220.86c.291 0 .535-.459.535-1.013a1.185 1.185 0 00-1.285-1.012c-.713 0-.938.459-.544 1.012.394.554.994 1.013 1.294 1.013zm188.911-125.481c-.832.95-1.822 1.75-2.926 2.363-1.425 0-3.385-3.16-2.916-4.689.853-2.813-4.398-12.547-7.502-13.869a8.981 8.981 0 01-4.248-4.848c-1.791-4.126-3.751-5.702-5.795-4.558a35.775 35.775 0 01-6.462 1.876c-5.185 1.106-7.042 2.738-6.329 5.561.253 1.041-.647 2.044-2.814 3.122a10.092 10.092 0 00-4.229 3.902 5.682 5.682 0 01-2.729 2.888 7.816 7.816 0 00-3.235 3.169 28.12 28.12 0 01-5.542 5.815c-3.02 2.41-3.967 3.751-3.817 5.467.882 9.931-.469 18.239-3.751 23.181s-3.432 4.951-6.152 3.667c-1.491-.713-2.41-2.092-2.813-4.211a70.43 70.43 0 00-4.004-10.831c-11.459-25.582-13.129-30.468-12.191-35.091.666-3.123-.938-7.83-2.447-7.296a1.939 1.939 0 00-1.135 1.707c-.085 4.248-4.689 4.905-8.262 1.172l-2.382-2.475 2.045-.788c2.306-.882 2.091-3.273-.244-2.813-.835.159-2.738-.788-4.239-2.101-1.5-1.313-3.057-2.372-3.479-2.372-.422 0-1.032-.844-1.341-1.876-.825-2.71-5.58-5.064-7.961-3.938-2.148 1.003-21.569.787-24.851-.272-1.172-.385-3.338-2.139-4.82-3.892-2.673-3.179-2.71-3.198-6.714-2.073-3.798 1.06-4.352.938-9.462-1.716-4.427-2.325-5.749-3.572-7.109-6.723-1.744-4.014-5.626-6.921-7.961-5.983-.741.3-1.604 1.763-1.923 3.263-.45 2.157.001 3.554 2.204 6.658a27.975 27.975 0 013.751 7.502c1.097 4.211 3.245 5.458 5.027 2.926 1.078-1.528 1.369-1.585 2.1-.384.448.688.643 1.509.553 2.325-.497 1.604 4.689 4.258 7.09 3.629 1.219-.318 3.826-2.475 5.786-4.801 3.094-3.657 4.173-3.901 3.648-.835-.357 2.073 1.209 4.492 3.751 5.88 3.995 2.157 9.565 6.94 9.565 8.234 0 .59-1.05 2.091-2.326 3.338a25.21 25.21 0 00-4.098 5.833c-2.354 4.792-9.199 11.797-11.515 11.797-2.682 0-6.659 2.344-8.243 4.867a13.387 13.387 0 01-4.389 3.751c-8.524 4.426-18.755 8.899-21.662 9.471-3.085.6-3.329.45-4.97-2.897a33.842 33.842 0 01-2.382-8.656c-.478-3.667-1.397-5.992-3.245-8.187-1.416-1.678-2.579-3.46-2.579-3.957 0-.497-1.613-2.626-3.591-4.745a21.027 21.027 0 01-5.045-9.087 28.602 28.602 0 00-3.62-8.027c-8.224-10.615-10.662-14.366-11.881-18.277-1.632-5.176-3.001-6.011-3.639-2.213l-.45 2.71-2.982-4.023c-4.689-6.133-5.261-3.338-.872 4.145 2.072 3.545 5.382 9.79 7.352 13.888a91.269 91.269 0 005.626 10.316 11.618 11.618 0 012.091 5.879c0 3.507 1.004 5.702 4.961 10.803a20.436 20.436 0 013.498 6.649c.422 2.063 2.147 4.21 5.87 7.314 5.627 4.689 9.312 9.631 10.222 13.729a6.492 6.492 0 003.273 4.004c2.494 1.341 3.376 1.304 11.253-.469 4.689-1.059 9.706-2.541 11.093-3.291l2.523-1.35.6 3.685c.544 3.348-.047 4.961-6.423 17.686-6.856 13.673-7.174 14.132-14.001 19.693-3.836 3.151-7.849 7.014-8.918 8.58-1.069 1.566-4.501 5.786-7.615 9.378-9.096 10.493-10.315 19.693-4.304 32.118 1.538 3.142 2.129 5.523 1.772 7.024a21.137 21.137 0 00.432 7.024c.844 4.116.75 5.214-.722 8.205-2.12 4.314-3.752 5.87-9.725 8.956-2.588 1.341-4.689 2.813-4.689 3.329 0 .515-1.81 3.01-4.032 5.626-2.223 2.617-4.032 5.148-4.032 5.627a21.19 21.19 0 001.875 4.689c3.048 6.207 1.003 10.709-6.302 13.85-3.076 1.322-4.088 4.033-3.319 8.909.393 2.56.14 3.413-1.248 4.182a15.242 15.242 0 00-3.863 4.426c-3.676 6.002-14.235 16.617-19.027 19.131-4.004 2.1-5.027 2.278-7.971 1.434-2.588-.74-4.689-.619-9.031.516-7.042 1.876-6.292 1.876-9.021-.938-1.875-1.978-2.213-2.982-1.791-5.701.403-2.56 0-4.061-1.679-6.668-1.209-1.875-2.203-3.826-2.203-4.388 0-.563-1.585-3.217-3.526-5.917-2.992-4.174-3.601-5.833-4.098-11.113-.872-9.312-3.751-19.393-7.577-26.698-1.876-3.591-3.751-8.252-4.033-10.362-.694-4.482 1.051-11.159 5.055-19.252l2.663-5.374-1.5-4.688c-.835-2.626-1.248-5.721-.938-7.033a7.344 7.344 0 00-1.154-5.318 42.17 42.17 0 01-3.132-8.083 19.083 19.083 0 00-5.42-9.218c-5.683-5.795-6.414-8.074-4.689-14.385 3.592-12.829-.281-20.312-9.752-18.84-3.686.582-3.826.507-4.352-2.204-.393-2.072-1.481-3.3-4.201-4.745-3.535-1.875-5.045-1.875-9.377 0-.938.413-5.017 1.876-8.956 3.217-5.926 2.025-7.708 2.288-10.315 1.51-2.607-.779-4.501-.544-9.509.881-5.167 1.472-7.043 1.632-9.837.835-5.824-1.679-15.839-11.056-17.264-16.186-1.097-3.967-7.952-13.203-10.315-13.869-1.482-.422-1.66-.75-.751-1.36.91-.61.751-.938-.675-1.313-2.269-.609-2.494-2.541-.3-2.56 1.341 0 1.369-.141.225-.938-.844-.572-.938-.937-.253-.937.685 0 .441-1.163-.788-3.311-1.716-3.029-1.753-3.432-.441-4.942 4.014-4.604 4.886-14.516 1.876-20.771-1.463-2.982-.525-7.099 2.579-11.384a83.109 83.109 0 005.073-8.722c2.813-5.57 9.153-13.306 10.859-13.306 1.876 0 7.999-6.827 7.999-8.946 0-4.774 2.748-9.537 7.221-12.519a24.052 24.052 0 006.264-6.105c2.129-3.573 2.429-3.695 4.905-1.876a15.882 15.882 0 005.373 1.876c3.02.534 4.464.15 8.956-2.345 7.736-4.304 12.519-5.382 21.371-4.81 5.842.384 8.44.14 11.253-1.041 4.164-1.735 7.765-.704 6.79 1.941a2.968 2.968 0 00.403 2.607c.637.806.637 1.96 0 3.751-.825 2.25-.638 2.916 1.397 5.129a11.602 11.602 0 005.139 3.132c7.202 1.492 9.246 2.467 10.728 5.083a6.51 6.51 0 004.886 3.367 25.353 25.353 0 015.917 2.035c2.419 1.303 2.729 1.256 4.745-.713 1.36-1.322 1.969-2.729 1.65-3.751a5.633 5.633 0 01.469-3.554c1.388-2.692 5.327-2.429 11.469.769 6.696 3.488 19.393 5.973 23.894 4.689a10.454 10.454 0 016.142 0c6.189 1.978 9.378.431 10.212-4.989.282-1.801.76-3.273 1.06-3.273.582 0 .882-2.701.938-8.618 0-1.876.469-3.489.938-3.489s.572-.675-.094-1.959c-1.097-2.139-3.329-2.092-8.684.196-2.532 1.079-3.235 1.032-5.514-.365-2.944-1.81-5.964-2.082-6.836-.61-.647 1.088-5.233.319-7.718-1.294-1.781-1.153-3.451-4.604-3.451-7.136a4.88 4.88 0 00-2.016-3.245c-1.716-1.256-1.819-1.613-.675-2.391a4.866 4.866 0 013.385-.422c1.426.356 2.738-.235 4.398-1.951a8.191 8.191 0 015.627-2.635 13.275 13.275 0 005.692-1.875c2.963-2.035 9.687-1.473 14.901 1.247 7.033 3.657 13.279 3.442 15.792-.544 1.313-2.082 1.313-2.513.075-4.482-.76-1.201-4.389-3.967-8.074-6.143l-6.536-3.863 1.256-2.523c.694-1.388 1.032-2.757.75-3.048-.281-.29-.168-1.069.235-1.744.444-.752.76-1.573.938-2.429.206-1.416-1.238-1.022-8.365 2.251-4.136 1.876-4.745 2.485-3.826 3.639a4.443 4.443 0 002.991 1.406c1.472 0 1.125.478-1.519 1.876-3.216 1.763-3.573 1.791-5.626.365-1.782-1.219-2.017-1.781-1.173-2.813.844-1.031.722-1.463-.609-1.978a6.815 6.815 0 01-2.626-1.979c-2.569-3.564-10.709 5.795-13.082 15.004-1.106 4.332-1.069 4.557 1.023 6.199l2.166 1.706-3.986.854a16.73 16.73 0 01-6.564.121c-2.616-.75-5.936.376-5.936 1.998 0 .478-.61.628-1.36.328a2.898 2.898 0 00-2.626.563c-1.087.938-.937 1.706.835 5.232 1.951 3.817 2.016 4.342.797 6.874-1.528 3.179-2.944 2.945-5.101-.853-1.501-2.645-1.491-2.701.497-2.992 2.513-.375 2.672-2.035.234-2.438-5.551-.938-8.505-3.966-8.505-8.749 0-3.751-3.329-7.84-7.362-9.096-2.091-.647-4.37-2.026-5.063-3.048a12.19 12.19 0 00-4.483-3.263 12.187 12.187 0 01-4.417-3.161c-.938-1.397-1.547-1.556-2.926-.797a3.264 3.264 0 00-1.734 2.298c0 2.419 11.421 13.363 17.001 16.298 5.917 3.104 6.846 4.211 2.729 3.273-3.667-.835-4.689 0-3.404 2.813.872 2.016.731 2.626-1.041 4.398l-2.054 2.054.469-2.813c.741-4.408-4.848-10.728-9.481-10.728-1.697 0-8.224-6.565-9.93-10.025-1.876-3.667-3.855-4.379-6.734-2.344-4.341 3.057-7.586 4.088-10.99 3.488-4.52-.797-7.361.844-6.639 3.826.375 1.557.159 2.26-.685 2.26-.666 0-2.391 1.041-3.826 2.326a11.428 11.428 0 01-3.282 2.325c-1.107 0-4.239 5.889-4.239 7.981 0 2.091-3.507 5.936-6.892 7.746a14.656 14.656 0 01-5.57 1.05c-2.729 0-3.845.469-4.595 1.875-.985 1.876-1.013 1.876-3.311-.487-2.157-2.242-3.394-2.814-7.746-3.498-2.278-.366-2.663-5.749-.937-13.401.731-3.282 1.087-6.948.797-8.158-.854-3.517 1.81-5.627 6.255-4.886 10.268 1.641 16.27 1.735 17.676.272 1.932-2.016 2.814-8.646 1.623-12.36-.769-2.428-1.829-3.422-4.989-4.688-4.689-1.876-4.736-3.629-.197-3.676 1.96-.087 3.868-.66 5.551-1.67 1.313-.937 2.814-1.387 3.245-1.087 1.266.806 6.058-2.063 7.652-4.595a6.948 6.948 0 013.367-2.739c1.087-.29 3.985-2.475 6.451-4.867 3.489-3.375 5.327-4.444 8.318-4.81 3.751-.46 7.446-3.639 5.692-4.839-1.087-.75-1.997-5.261-1.387-6.902a8.566 8.566 0 012.813-2.982l2.297-1.566-.59 3.835c-.507 3.329-.376 3.798.994 3.555a13.905 13.905 0 003.601-1.426c1.706-.938 2.119-.938 2.569.291.769 2.072-1.369 4.52-2.813 3.254-.816-.703-1.332-.685-1.782.084-.45.769-.844.75-1.379-.159-.403-.685-.937-1.022-1.19-.76-.254.263.459 1.679 1.584 3.142 1.876 2.475 2.27 2.597 4.97 1.613 2.326-.835 3.433-.779 5.411.281 2.223 1.2 2.982 1.144 7.259-.553 3.75-1.482 5.232-1.67 6.892-.882a4.014 4.014 0 004.079-.056c4.033-2.166 5.149-3.798 4.689-6.799-.741-4.435.619-5.898 4.192-4.492 2.438.938 3.151.938 4.248-.225 1.097-1.163 1.06-1.66-.844-3.751s-1.969-2.541-.844-3.329c.722-.506 3.441-.684 6.048-.403 4.755.525 10.681-1.407 9.65-3.141-.938-1.529-6.367-1.97-10.991-.938-4.107.938-5.185.881-8.327-.6-4.886-2.289-5.458-4.97-2.11-9.819 4.314-6.255 5.102-8.243 3.873-9.79-1.819-2.279-3.61-1.528-7.765 3.235-2.194 2.514-5.185 5.092-6.648 5.721a9.37 9.37 0 00-4.201 4.051c-1.219 2.457-1.219 2.963 0 4.923a7.364 7.364 0 003.188 2.813c2.748.938 2.204 2.617-1.725 5.411a13.224 13.224 0 00-3.583 5.411 10.52 10.52 0 01-4.688 5.814c-3.198 1.876-3.339 1.876-5.102.263a9.438 9.438 0 01-2.354-4.258 16.865 16.865 0 00-2.991-5.626l-2.448-3.048-3.113 1.969a12.309 12.309 0 01-4.895 1.951c-2.813 0-6.142-3.217-6.358-6.161a18.712 18.712 0 00-.816-4.258c-.797-2.091 3.207-6.001 7.38-7.202 4.173-1.2 12.754-7.38 14.16-10.315a27.8 27.8 0 014.839-5.767c2.026-1.876 3.676-3.845 3.676-4.351 0-.507 1.876-1.632 4.258-2.504 2.382-.872 6.273-2.438 8.73-3.498a31.8 31.8 0 0111.647-2.11c8.44-.225 13.991.938 18.558 3.91 2.288 1.492 4.089 1.998 5.824 1.642 3.094-.647 19.58 4.688 20.265 6.564.684 1.875-4.033 3.638-8.103 3.029-1.875-.281-5.72-1.032-8.571-1.66-3.826-.853-5.429-.882-6.179-.103-.751.778-.376 1.34 1.434 2.204a9.496 9.496 0 013.751 3.75c1.81 3.648 7.624 6.621 10.616 5.44 2.991-1.182 2.86-1.5-.178-3.217-2.814-1.585-1.51-1.922 2.016-.534 2.813 1.115 6.011-.272 5.27-2.28-.347-.937.628-1.63 3.395-2.362 5.907-1.576 6.339-1.8 5.851-3.048-1.875-4.689-1.875-4.576.816-4.257 1.444.168 2.494.806 2.373 1.444-.122.637.637 1.603 1.669 2.185 1.556.862 2.813.553 7.061-1.782 6.274-3.413 11.15-4.53 12.969-2.954 1.022.872 2.701.882 7.577 0 3.442-.61 6.649-.853 7.127-.544a1.064 1.064 0 001.197-.103c.11-.09.2-.202.266-.328.703-1.182-1.247-3.883-2.316-3.189-1.294.826-5.533-.656-4.604-1.622.928-.966 25.863 5.083 27.354 6.63 1.003 1.05 4.192-.347 4.192-1.875 0-.497-1.782-1.81-3.958-2.908-6.733-3.404-7.174-8.852-.834-10.512 3.676-.938 5.27.15 10.362 7.212 6.564 9.17 6.433 8.702 4.276 11.853-1.604 2.335-1.697 2.879-.591 3.329 2.101.834 6.565-2.1 7.23-4.689.741-3.076-.637-5.692-3.948-7.502-2.616-1.313-4.491-3.91-4.491-6.002 0-.731.937-.937 2.916-.543 2.907.553 5.308-.544 11.881-5.42a12.196 12.196 0 016.612-1.876c5.204-.122 6.883-1.032 5.392-2.907-.591-.741-.882-1.529-.657-1.773 1.144-1.19 15.942-3.329 19.29-2.813 3.348.516 4.285.234 6.977-1.876 1.725-1.378 3.141-2.869 3.141-3.32 0-1.134-7.83-1.03-8.505.113-.938 1.576-2.157 1.032-1.819-.815.29-1.566-.469-1.82-6.996-2.345-17.817-1.444-19.271-1.782-17.133-4.004 1.876-1.96 6.489-1.922 10.315.084a15.215 15.215 0 005.824 1.491c1.613 0 3.188.422 3.498.938.309.516 1.875.938 3.488.938 4.464 0 13.129 2.007 12.566 2.916-.263.441.572.807 1.876.807 1.827.165 3.6.71 5.204 1.603 2.119 1.191 5.083 1.613 11.375 1.641 6.771 0 9.021.385 10.981 1.763 1.351.938 2.457 1.998 2.448 2.317-.01.319-2.073 1.781-4.595 3.226-6.086 3.488-4.802 5.007 2.56 3.029 4.773-1.285 5.861-1.295 9.809-.075 3.244 1.003 5.27 1.125 7.502.468 2.232-.656 4.445-.506 8.261.516 3.986 1.079 6.049 1.191 8.581.46 5.758-1.67 12.847-1.2 16.964 1.125l8.383 4.689c4.539 2.579 4.689 2.607 7.896 1.134 2.635-1.228 4.108-1.331 7.999-.553 3.892.778 5.28.675 7.502-.497 2.223-1.172 2.476-1.707 1.66-2.729-1.575-1.97 4.014-2.7 10.869-1.425 3.141.581 7.117 1.163 8.843 1.294a27.2 27.2 0 017.502 2.27c3.648 1.715 6.405 2.1 17.086 2.4 10.137.29 13.363.713 15.81 2.072 2.448 1.36 5.308 1.726 14.714 1.82 8.655.084 12.538.515 15.107 1.66 4.145 1.875 5.805 1.172 3.545-1.454-1.622-1.876-1.613-1.876 4.69-1.247 10.48 1.087 23.06 3.47 27.32 5.185a46.188 46.188 0 009.38 2.307c3.32.486 6.54 1.462 9.57 2.898 3.5 1.876 4.69 2.044 6.89 1.228 3.08-1.115 5.07-.309 9.77 3.94l2.93 2.634-2.21.572c-2.2.582-8.07-.938-10.1-2.597a1.777 1.777 0 00-1.87-.394c-.42.272-2.52-.131-4.69-.938-5-1.791-7.22-1.116-4.94 1.5 1.55 1.792 1.52 1.876-1.45 1.613-5.56-.403-4.03 1.304 4.13 4.614 4.44 1.801 8.25 3.46 8.44 3.695.83.844-1.93 1.875-3.95 1.491-2.22-.441-7.68 2.035-7.68 3.479a6.504 6.504 0 01-1.87 2.729c-1.77 1.707-2.13 1.744-4.49.478-2.2-1.191-2.9-1.2-5.02-.094a28.053 28.053 0 01-5.15 1.97c-1.34.315-2.61.867-3.75 1.631-1.8 1.557 1.38 6.086 5.86 8.337 2.44 1.228 4.2 2.879 4.69 4.407a39.791 39.791 0 002.16 4.914c1.2 2.204 1.19 2.523-.09 3.029-.94.375-1.22 1.135-.81 2.195.43 1.284.72 2.611.86 3.957.14 1.321.43 2.621.88 3.873.46 1.106.08 1.735-1.33 2.194-1.58.525-2.64-.103-5.22-3.076a53.211 53.211 0 00-6.62-6.273 46.91 46.91 0 01-7.37-8.093c-3.89-5.383-3.97-5.627-2.68-8.215.74-1.51 1.2-3.144 1.36-4.82.12-1.553.55-3.067 1.27-4.454 1.29-2.438.79-4.38-1.97-7.671a2.42 2.42 0 00-1.38-.967 2.391 2.391 0 00-1.67.176c-.52.259-.92.696-1.14 1.231a2.37 2.37 0 00-.05 1.679c.75 2.467-1.55 3.264-4.2 1.454a18.043 18.043 0 00-5.874-2.045c-3.583-.59-3.845-.478-4.774 2.045a11.665 11.665 0 00-.506 5.176c.413 2.138.131 2.579-1.988 3.057a11.027 11.027 0 01-5.917-.937 8.958 8.958 0 00-5.777-.807c-3.191.54-6.423.797-9.659.769-6.377.066-7.605.356-9.546 2.241a16.079 16.079 0 00-3.264 6.565 27.571 27.571 0 01-2.335 6.423c-1.228 1.969-1.115 2.166 2.401 4.033 3.807 2.016 7.962 2.55 11.113 1.425 2.428-.872 9.846 5.139 12.19 9.856.938 1.932 2.514 3.948 3.479 4.492 3.658 2.035 4.408 15.398 1.341 24.128-2.119 6.049-4.491 8.027-7.971 6.649a22.267 22.267 0 00-2.719-.938 19.836 19.836 0 00-2.213 3.826c-1.388 2.757-1.651 4.154-.938 5.008 1.313 1.631.347 3.751-2.269 4.998-1.201.572-2.185 1.444-2.185 1.941 0 .497 2.813 2.907 6.226 5.355 4.361 3.122 6.687 5.523 7.756 7.98.834 1.941 1.359 3.676 1.163 3.863-.197.188-2.035 1.22-4.07 2.289l-3.751 1.941-2.232-5.327c-2.495-5.954-4.633-8.346-8.44-9.377-1.875-.525-2.56-1.285-2.56-2.917 0-1.631-.938-2.813-2.907-3.966-2.879-1.754-2.935-1.754-5.992.215-3.057 1.97-3.104 1.97-4.042.141a8.797 8.797 0 01-.938-3.263 3.25 3.25 0 00-1.678-2.364c-1.37-.759-2.232-.3-4.745 2.532a30.039 30.039 0 01-4.821 4.492c-1.481.872-1.566 1.247-.543 2.532a24.174 24.174 0 005.063 3.751c3.386 1.96 4.033 2.073 5.167.938 1.135-1.135 1.97-1.172 5.233-.253l3.939 1.116-2.195 1.519c-4.06 2.813-5.345 4.304-5.926 6.855-.478 2.091-.188 2.729 1.613 3.582 1.209.572 3.038 2.813 4.079 5.064a15.351 15.351 0 004.586 5.692c3.282 2.007 4.229 4.154 2.335 5.252-1.895 1.097-.938 2.56 1.406 2.56 2.813 0 2.813 1.734.113 11.722-3.264 12.097-6.218 16.138-13.926 19.074a38.166 38.166 0 01-8.215 2.25c-3.441.197-6.105 1.716-8.44 4.783l-1.875 2.447-.863-2.353c-1.125-3.076-3.695-3.845-7.399-2.223a10.96 10.96 0 00-6.517 6.939c-.807 2.748 2.044 7.587 6.771 11.479 3.882 3.188 8.233 11.206 9.255 17.039.891 5.073-.684 8.439-4.914 10.39-1.922.938-3.751 2.382-4.004 3.282-.656 2.176-4.642 4.886-5.364 3.667a3.951 3.951 0 010-2.654 5.908 5.908 0 000-3.235c-.441-1.201-.938-1.304-2.344-.526-1.407.779-2.035.619-3.226-1.181-2.926-4.408-11.403-11.488-13.748-11.488-.834 0-1.153 1.032-1.012 3.264a34.628 34.628 0 01-.779 7.764c-.881 4.042-.797 4.783.872 7.127a17.888 17.888 0 012.429 4.961c.319 1.304 2.907 4.295 5.871 6.771 4.942 4.116 5.457 4.932 7.502 11.768a84.664 84.664 0 012.231 8.234c0 1.585-1.875.938-5.776-1.979-3.901-2.916-6.621-7.783-8.768-16.214-.938-3.666-1.96-5.232-4.867-7.502-3.564-2.728-3.667-2.963-3.385-7.502.168-2.56.572-6.189.937-8.064.469-2.645.085-4.539-1.706-8.393a59.143 59.143 0 01-3.329-9.331c-1.313-5.42-3.095-6.311-6.246-3.179zM712.467 191.967c1.716.694 4.116-.141 4.116-1.435a11.616 11.616 0 00-1.875-3.648c-1.538-2.26-2.148-2.56-3.582-1.763-1.163.657-1.726.657-1.726 0 0-.656-1.603-1.809-3.554-2.813-4.323-2.316-5.852-4.876-4.511-7.502 1.023-1.997 4.689-3.395 6.218-2.391 2.1 1.36 2.719-.647.938-3.198-4.192-6.18-10.034-5.777-17.283 1.21-4.689 4.501-5.083 5.701-2.438 7.192a3.394 3.394 0 011.856 2.363c0 .769 1.585 3.208 3.536 5.421 4.482 5.101 5.298 7.436 4.745 13.475l-.441 4.858 6.142 3.31c3.386 1.819 6.274 3.329 6.414 3.357a16.933 16.933 0 002.908-1.388c2.316-1.256 2.644-1.941 2.644-5.523 0-2.56-.525-4.539-1.397-5.308a15.292 15.292 0 01-2.814-4.004c-1.209-2.541-1.2-2.757.104-2.213zM823.281 326.31c-.787 2.025-.169 9.659.938 11.356.6.938 4.482-.178 5.43-1.566.947-1.388 0-4.164-2.964-8.383-2.503-3.536-2.569-3.555-3.404-1.407zm151.195 73.548c.834.938 2.232 1.163 4.773.732 4.886-.835 4.904-1.023.187-2.223s-6.77-.563-4.96 1.491zm2.269-110.514c-2.326-5.167-5.495-5.364-5.495-.357a12.34 12.34 0 01-.938 4.605c-1.303 2.588-.441 4.642 4.023 9.508 3.151 3.442 4.314 4.164 6.002 3.752a5.48 5.48 0 013.685.393c1.96 1.173 2.645-.253 1.078-2.26a2.878 2.878 0 00-2.991-.937c-1.322.347-2.579-.282-4.257-2.138-2.317-2.57-2.345-2.72-1.041-6.021 1.228-3.076 1.219-3.685-.066-6.545zm-13.129 111.283a17.35 17.35 0 013.273-.525c.713 0 1.013-.544.685-1.191-.769-1.463-7.099-1.547-7.849-.094a1.279 1.279 0 00-.013.992 1.285 1.285 0 00.697.706 5.53 5.53 0 003.254.112h-.047zm34.932-243.329c2.542 1.004.6-1.763-3.339-4.754-4.754-3.601-7.764-6.508-10.212-9.865-1.013-1.388-2.344-2.345-2.972-2.129-.629.216 1.162 3.029 4.829 7.23a70.6 70.6 0 018.618 12.322 49.653 49.653 0 004.042 7.099c1.216 1.416 4.686 2.288 4.686 1.172a42.199 42.199 0 00-4.02-5.092c-3.78-4.389-4.511-7.136-1.585-5.983h-.047zm-32.334 162.785c-2.494 2.401-4.539 4.689-4.539 5.055 0 1.594 2.504.469 5.711-2.57 1.876-1.781 3.432-4.06 3.404-5.054-.037-1.463-.928-.966-4.576 2.569zm39.236 39.114c-.77-1.95-.63-2.86.67-4.239 1.5-1.594 1.5-1.753.06-1.753-1.79 0-4 3.338-3.12 4.689.13.445.16.915.1 1.375-.07.46-.24.899-.5 1.288-.68 1.219-.63 2.1.15 2.813 2.51 2.476 4.2-.234 2.64-4.173zm-8.496-25.366c1.341 1.181 1.406 1.012.853-2.11-.722-4.108-3.92-11.788-3.948-9.49 0 .891-1.06 2.644-2.335 3.882-1.744 1.716-2.888 2.129-4.689 1.716-1.8-.413-2.579-.122-3.357 1.416-.938 1.876-.853 1.932 1.66 1.35 2.513-.581 2.748-.403 4.389 3.63 1.275 3.132 2.081 4.107 3.085 3.751a7.641 7.641 0 012.241-.554c.535 0 .45-.562-.206-1.397-1.613-2.129.309-3.939 2.307-2.194zm-13.748-10.184c1.013-1.304 1.05-2.016.16-3.029-.891-1.013-1.295-1.107-1.998.084a3.824 3.824 0 00-.169 3.02c.582 1.519.704 1.51 2.007-.075zm1.876 38.391c3.066 1.651 5.964.601 7.417-2.682 1.144-2.588.938-2.663-2.55-.834-2.054 1.097-3.536 1.191-7.315.45-4.389-.863-4.886-.769-6.836 1.247-1.435 1.472-2.326 3.751-2.813 7.221-.366 2.813-1.341 6.039-2.167 7.258-1.359 2.007-1.369 2.41-.122 4.379a5.632 5.632 0 01.826 3.958 4.108 4.108 0 000 2.729c.675 1.125 1.416 1.153 2.991.122.938-.61.994-1.548.244-4.361-.835-3.113-.731-3.807.788-5.383 1.744-1.791 1.763-1.781 3.122 1.576.751 1.875 2.176 3.816 3.161 4.36 1.575.872 1.791.704 1.791-1.397a13.767 13.767 0 00-1.332-5.055c-1.622-3.216-1.022-5.166 2.11-6.929 2.813-1.548 1.013-1.792-3.451-.469-2.597.769-3.376.637-4.782-.816-3.826-3.948 3.422-8.337 8.918-5.383v.009zm34.838-149.046c.78-1.51.67-2.814-.49-6.012-.82-2.241-1.25-4.688-.94-5.504.81-2.194-1.97-7.399-4.91-9.218-4.04-2.495-4.8-.685-2.07 4.942 2.81 5.861 2.21 7.596-4.78 13.128-3.59 2.814-5.29 3.611-6.879 3.198-1.584-.413-2.879.131-4.763 1.791-1.463 1.285-3.133 2.354-3.695 2.363-.563.01-.347.46.506.938 1.05.638 2.598.628 4.858 0 5.543-1.604 7.973-1.228 9.683 1.5l1.55 2.476.81-2.935c.65-2.391 1.25-2.935 3.27-2.935 3.56-.038 6.71-1.519 7.85-3.732zm-27.805 10.418c-3.264-2.138-4.239 0-1.482 3.32 1.154 1.378 2.11 3.066 2.11 3.751 0 1.669 1.416 1.575 2.073-.132.872-2.269-.357-5.401-2.701-6.939zm-18.38 182.356c.609-.853-1.951-2.963-3.554-2.935-.779 0-.403.769.891 1.782 1.237.965 2.428 1.491 2.663 1.153zm-4.97-63.702l-2.86-3.038c-1.576-1.669-3.339-3.038-3.92-3.038-.582 0-2.11 1.416-3.395 3.15a13.678 13.678 0 01-5.392 4.202 6.396 6.396 0 00-4.164 3.807 10.17 10.17 0 01-4.388 4.482 10.964 10.964 0 00-4.342 4.126c-.938 2.129-1.304 2.289-3.01 1.341-1.707-.947-2.148-.778-3.179.657a5.533 5.533 0 00-.704 4.032c1.098 4.802 3.151 11.553 3.845 12.641.872 1.379 9.715 3.235 11.938 2.504a6.379 6.379 0 014.041.806c1.717.938 2.879 1.051 3.883.404 1.435-.938 7.164-13.073 7.155-15.183 0-.618.994-1.809 2.222-2.635l2.232-1.5-1.791-2.588c-2.954-4.267-3.085-7.371-.488-10.972l2.317-3.198z" fill="#E9EBEF"/><path d="M504.96 106.705h1.87v-6.512h4.114c3.3 0 5.412-2.178 5.412-5.016 0-2.882-2.112-4.972-5.412-4.972h-5.984v16.5zm5.984-14.784c2.222 0 3.52 1.298 3.52 3.256 0 1.936-1.298 3.3-3.52 3.3h-4.114V91.92h4.114zm7.986 14.784h1.716v-5.632c0-2.42 1.386-3.674 3.014-3.674.352 0 .704.044 1.1.154l.264-1.694a3.754 3.754 0 00-1.078-.154c-1.518 0-2.662.748-3.278 1.892l-.044-1.716h-1.694v10.824zm14.767 0h1.584v-6.776c0-2.684-1.716-4.224-4.444-4.224-2.442 0-4.202 1.254-4.708 3.344l1.628.308c.396-1.474 1.474-2.178 3.058-2.178 1.562 0 2.618.77 2.794 2.354l-3.124.748c-2.596.66-4.334 1.518-4.334 3.608 0 1.848 1.364 2.992 3.41 2.992 1.76 0 3.234-.858 4.092-2.332l.044 2.156zm-5.742-2.97c0-1.078.902-1.606 2.552-2.024l3.124-.77v.242c0 2.728-1.87 4.224-3.806 4.224-1.188 0-1.87-.682-1.87-1.672zm9.861-2.486c0 3.168 2.222 5.522 5.324 5.522 1.606 0 2.97-.726 3.872-1.914v1.848c0 2.244-1.496 3.432-3.652 3.432-1.936 0-3.102-.946-3.344-2.398l-1.76.33c.308 2.09 2.156 3.652 5.104 3.652 3.234 0 5.39-2.024 5.39-5.126V95.881h-1.672l-.044 1.76c-.902-1.21-2.266-1.936-3.894-1.936-3.102 0-5.324 2.332-5.324 5.544zm1.804 0c0-2.332 1.474-3.96 3.718-3.96 2.178 0 3.674 1.628 3.674 3.96s-1.496 3.938-3.674 3.938c-2.244 0-3.718-1.606-3.718-3.938zm14.17-5.368h-1.716v6.644c0 2.772 1.76 4.356 4.136 4.356 1.518 0 2.75-.594 3.498-1.738l.044 1.562h1.584V95.881h-1.716v6.182c0 2.288-1.452 3.234-2.992 3.234-1.716 0-2.838-1.056-2.838-2.926v-6.49zm15.846 11c2.552 0 4.444-1.342 4.972-3.476l-1.672-.308c-.44 1.386-1.496 2.244-3.3 2.244-2.112 0-3.542-1.364-3.74-3.652h8.756c.022-.286.066-.616.066-.88 0-3.014-2.156-5.104-5.192-5.104-3.146 0-5.434 2.332-5.434 5.522 0 3.278 2.156 5.654 5.544 5.654zm-.11-9.68c1.826 0 3.212 1.232 3.344 3.036h-6.908c.352-1.936 1.826-3.036 3.564-3.036zM634.135 25.636c-.572-2.662-2.706-4.312-5.808-4.312-3.168 0-5.698 1.782-5.698 4.576 0 3.256 2.86 3.872 5.478 4.488 2.2.484 4.246.968 4.246 2.992s-1.782 3.102-3.96 3.102c-2.552 0-4.158-1.43-4.598-3.696l-1.892.484c.572 2.838 2.728 4.906 6.49 4.906 3.476 0 5.874-1.892 5.874-4.906 0-3.3-2.816-4.004-5.434-4.598-2.222-.506-4.29-.924-4.29-2.882 0-1.76 1.562-2.794 3.784-2.794 2.09 0 3.586 1.232 3.938 3.102l1.87-.462zm1.094 2.618v.418h1.87v6.27c0 2.068 1.21 3.234 3.278 3.234.858 0 1.694-.198 2.398-.528l-.44-1.43c-.528.22-1.1.374-1.65.374-1.21 0-1.848-.594-1.848-1.936v-5.984h4.048v-1.496h-4.048v-1.914h-.396l-3.212 2.992zm10.452 9.944c.77 0 1.298-.506 1.298-1.276 0-.748-.528-1.254-1.298-1.254-.748 0-1.298.506-1.298 1.254 0 .77.55 1.276 1.298 1.276zM655.5 38h1.87v-6.512h4.114c3.3 0 5.412-2.178 5.412-5.016 0-2.882-2.112-4.972-5.412-4.972H655.5V38zm5.984-14.784c2.222 0 3.52 1.298 3.52 3.256 0 1.936-1.298 3.3-3.52 3.3h-4.114v-6.556h4.114zm12.156 14.96c2.552 0 4.444-1.342 4.972-3.476l-1.672-.308c-.44 1.386-1.496 2.244-3.3 2.244-2.112 0-3.542-1.364-3.74-3.652h8.756c.022-.286.066-.616.066-.88 0-3.014-2.156-5.104-5.192-5.104-3.146 0-5.434 2.332-5.434 5.522 0 3.278 2.156 5.654 5.544 5.654zm-.11-9.68c1.826 0 3.212 1.232 3.344 3.036h-6.908c.352-1.936 1.826-3.036 3.564-3.036zm6.365-.242v.418h1.87v6.27c0 2.068 1.21 3.234 3.278 3.234.858 0 1.694-.198 2.398-.528l-.44-1.43c-.528.22-1.1.374-1.65.374-1.21 0-1.848-.594-1.848-1.936v-5.984h4.048v-1.496h-4.048v-1.914h-.396l-3.212 2.992zm14.413 9.922c2.552 0 4.444-1.342 4.972-3.476l-1.672-.308c-.44 1.386-1.496 2.244-3.3 2.244-2.112 0-3.542-1.364-3.74-3.652h8.756c.022-.286.066-.616.066-.88 0-3.014-2.156-5.104-5.192-5.104-3.146 0-5.434 2.332-5.434 5.522 0 3.278 2.156 5.654 5.544 5.654zm-.11-9.68c1.826 0 3.212 1.232 3.344 3.036h-6.908c.352-1.936 1.826-3.036 3.564-3.036zM702.169 38h1.716v-5.632c0-2.42 1.386-3.674 3.014-3.674.352 0 .704.044 1.1.154l.264-1.694a3.754 3.754 0 00-1.078-.154c-1.518 0-2.662.748-3.278 1.892l-.044-1.716h-1.694V38zm11.621.176c2.794 0 4.268-1.43 4.268-3.344 0-2.486-2.2-2.816-4.07-3.146-1.43-.264-2.662-.396-2.662-1.584 0-1.012.99-1.628 2.398-1.628 1.32 0 2.134.572 2.464 1.804l1.716-.396c-.528-1.848-2.002-2.882-4.18-2.882-2.442 0-4.158 1.364-4.158 3.168 0 2.354 2.024 2.728 3.85 3.036 1.496.264 2.86.484 2.86 1.738 0 1.188-1.056 1.76-2.464 1.76-1.672 0-2.596-.77-2.948-2.2l-1.738.396c.55 2.156 2.2 3.278 4.664 3.278zm6.684-.176h1.65l.044-1.848a4.797 4.797 0 003.96 2.024c2.992 0 5.258-2.354 5.258-5.61 0-3.212-2.266-5.566-5.258-5.566-1.65 0-3.036.748-3.938 1.98V21.5h-1.716V38zm5.412-9.416c2.156 0 3.696 1.628 3.696 3.982 0 2.376-1.54 4.026-3.696 4.026-2.178 0-3.696-1.65-3.696-4.026 0-2.354 1.518-3.982 3.696-3.982zm9.704-1.408h-1.716v6.644c0 2.772 1.76 4.356 4.136 4.356 1.518 0 2.75-.594 3.498-1.738l.044 1.562h1.584V27.176h-1.716v6.182c0 2.288-1.452 3.234-2.992 3.234-1.716 0-2.838-1.056-2.838-2.926v-6.49zM746.749 38h1.716v-5.632c0-2.42 1.386-3.674 3.014-3.674.352 0 .704.044 1.1.154l.264-1.694a3.754 3.754 0 00-1.078-.154c-1.518 0-2.662.748-3.278 1.892l-.044-1.716h-1.694V38zm7.199-5.456c0 3.168 2.222 5.522 5.324 5.522 1.606 0 2.97-.726 3.872-1.914V38c0 2.244-1.496 3.432-3.652 3.432-1.936 0-3.102-.946-3.344-2.398l-1.76.33c.308 2.09 2.156 3.652 5.104 3.652 3.234 0 5.39-2.024 5.39-5.126V27.176h-1.672l-.044 1.76c-.902-1.21-2.266-1.936-3.894-1.936-3.102 0-5.324 2.332-5.324 5.544zm1.804 0c0-2.332 1.474-3.96 3.718-3.96 2.178 0 3.674 1.628 3.674 3.96s-1.496 3.938-3.674 3.938c-2.244 0-3.718-1.606-3.718-3.938zM641.371 279.162h9.9v-1.716h-8.03v-14.784h-1.87v16.5zm11.792-14.542c0 .682.506 1.188 1.188 1.188.682 0 1.21-.506 1.21-1.188 0-.704-.528-1.188-1.21-1.188-.682 0-1.188.484-1.188 1.188zm.33 14.542h1.716v-10.824h-1.716v10.824zm5.329 0h1.716v-6.556c0-1.892 1.21-2.838 2.684-2.838 1.408 0 2.398.858 2.398 2.618v6.776h1.716v-6.71c0-1.804 1.21-2.684 2.684-2.684 1.43 0 2.398.858 2.398 2.618v6.776h1.738v-6.864c0-2.75-1.672-4.136-3.828-4.136-1.606 0-2.772.792-3.454 1.914-.638-1.276-1.87-1.914-3.3-1.914-1.364 0-2.398.638-3.058 1.584l-.044-1.408h-1.65v10.824zm25.422 0h1.584v-6.776c0-2.684-1.716-4.224-4.444-4.224-2.442 0-4.202 1.254-4.708 3.344l1.628.308c.396-1.474 1.474-2.178 3.058-2.178 1.562 0 2.618.77 2.794 2.354l-3.124.748c-2.596.66-4.334 1.518-4.334 3.608 0 1.848 1.364 2.992 3.41 2.992 1.76 0 3.234-.858 4.092-2.332l.044 2.156zm-5.742-2.97c0-1.078.902-1.606 2.552-2.024l3.124-.77v.242c0 2.728-1.87 4.224-3.806 4.224-1.188 0-1.87-.682-1.87-1.672zm14.284 3.146c2.794 0 4.268-1.43 4.268-3.344 0-2.486-2.2-2.816-4.07-3.146-1.43-.264-2.662-.396-2.662-1.584 0-1.012.99-1.628 2.398-1.628 1.32 0 2.134.572 2.464 1.804l1.716-.396c-.528-1.848-2.002-2.882-4.18-2.882-2.442 0-4.158 1.364-4.158 3.168 0 2.354 2.024 2.728 3.85 3.036 1.496.264 2.86.484 2.86 1.738 0 1.188-1.056 1.76-2.464 1.76-1.672 0-2.596-.77-2.948-2.2l-1.738.396c.55 2.156 2.2 3.278 4.664 3.278zm10.248 0c2.794 0 4.268-1.43 4.268-3.344 0-2.486-2.2-2.816-4.07-3.146-1.43-.264-2.662-.396-2.662-1.584 0-1.012.99-1.628 2.398-1.628 1.32 0 2.134.572 2.464 1.804l1.716-.396c-.528-1.848-2.002-2.882-4.18-2.882-2.442 0-4.158 1.364-4.158 3.168 0 2.354 2.024 2.728 3.85 3.036 1.496.264 2.86.484 2.86 1.738 0 1.188-1.056 1.76-2.464 1.76-1.672 0-2.596-.77-2.948-2.2l-1.738.396c.55 2.156 2.2 3.278 4.664 3.278zm11.414-11.176c-3.234 0-5.588 2.354-5.588 5.566 0 3.256 2.354 5.61 5.588 5.61s5.588-2.354 5.588-5.61c0-3.212-2.354-5.566-5.588-5.566zm0 1.584c2.222 0 3.784 1.628 3.784 3.982 0 2.376-1.562 4.026-3.784 4.026-2.222 0-3.784-1.65-3.784-4.026 0-2.354 1.562-3.982 3.784-3.982zm8.333 9.416h1.716v-16.5h-1.716v16.5zM604.12 174.942l-4.378 8.844-3.168-14.124h-1.87l3.674 16.5h2.024l3.916-7.942 4.004 7.942h2.046l3.674-16.5h-1.87l-3.146 14.08-4.444-8.8h-.462zm18.869 11.22h1.584v-6.776c0-2.684-1.716-4.224-4.444-4.224-2.442 0-4.202 1.254-4.708 3.344l1.628.308c.396-1.474 1.474-2.178 3.058-2.178 1.562 0 2.618.77 2.794 2.354l-3.124.748c-2.596.66-4.334 1.518-4.334 3.608 0 1.848 1.364 2.992 3.41 2.992 1.76 0 3.234-.858 4.092-2.332l.044 2.156zm-5.742-2.97c0-1.078.902-1.606 2.552-2.024l3.124-.77v.242c0 2.728-1.87 4.224-3.806 4.224-1.188 0-1.87-.682-1.87-1.672zm10.719 2.97h1.716v-5.632c0-2.42 1.386-3.674 3.014-3.674.352 0 .704.044 1.1.154l.264-1.694a3.754 3.754 0 00-1.078-.154c-1.518 0-2.662.748-3.278 1.892l-.044-1.716h-1.694v10.824zm11.621.176c2.794 0 4.268-1.43 4.268-3.344 0-2.486-2.2-2.816-4.07-3.146-1.43-.264-2.662-.396-2.662-1.584 0-1.012.99-1.628 2.398-1.628 1.32 0 2.134.572 2.464 1.804l1.716-.396c-.528-1.848-2.002-2.882-4.18-2.882-2.442 0-4.158 1.364-4.158 3.168 0 2.354 2.024 2.728 3.85 3.036 1.496.264 2.86.484 2.86 1.738 0 1.188-1.056 1.76-2.464 1.76-1.672 0-2.596-.77-2.948-2.2l-1.738.396c.55 2.156 2.2 3.278 4.664 3.278zm13.394-.176h1.584v-6.776c0-2.684-1.716-4.224-4.444-4.224-2.442 0-4.202 1.254-4.708 3.344l1.628.308c.396-1.474 1.474-2.178 3.058-2.178 1.562 0 2.618.77 2.794 2.354l-3.124.748c-2.596.66-4.334 1.518-4.334 3.608 0 1.848 1.364 2.992 3.41 2.992 1.76 0 3.234-.858 4.092-2.332l.044 2.156zm-5.742-2.97c0-1.078.902-1.606 2.552-2.024l3.124-.77v.242c0 2.728-1.87 4.224-3.806 4.224-1.188 0-1.87-.682-1.87-1.672zm9.399-7.854l2.574 10.824h1.87l2.376-4.686 2.354 4.686h1.87l2.574-10.824h-1.716l-2.046 8.8-2.882-5.72h-.308l-2.86 5.676-2.068-8.756h-1.738zm20.39 4.026c0 4.642 2.244 8.69 5.742 10.406l.77-1.386c-2.816-1.452-4.73-4.818-4.73-9.02 0-4.224 1.914-7.59 4.73-9.02l-.77-1.386c-3.498 1.716-5.742 5.742-5.742 10.406zm9.5 6.798h1.87v-6.512h4.114c3.3 0 5.412-2.178 5.412-5.016 0-2.882-2.112-4.972-5.412-4.972h-5.984v16.5zm5.984-14.784c2.222 0 3.52 1.298 3.52 3.256 0 1.936-1.298 3.3-3.52 3.3h-4.114v-6.556h4.114zm7.985 14.784h1.716v-5.632c0-2.42 1.386-3.674 3.014-3.674.352 0 .704.044 1.1.154l.264-1.694a3.754 3.754 0 00-1.078-.154c-1.518 0-2.662.748-3.278 1.892l-.044-1.716h-1.694v10.824zm12.723-11c-3.234 0-5.588 2.354-5.588 5.566 0 3.256 2.354 5.61 5.588 5.61s5.588-2.354 5.588-5.61c0-3.212-2.354-5.566-5.588-5.566zm0 1.584c2.222 0 3.784 1.628 3.784 3.982 0 2.376-1.562 4.026-3.784 4.026-2.222 0-3.784-1.65-3.784-4.026 0-2.354 1.562-3.982 3.784-3.982zm7.012-1.408l2.574 10.824h1.87l2.376-4.686 2.354 4.686h1.87l2.574-10.824h-1.716l-2.046 8.8-2.882-5.72h-.308l-2.86 5.676-2.068-8.756h-1.738zm15.908 10.824h1.716v-16.5h-1.716v16.5zm3.7-10.824l4.708 10.736-1.98 4.928h1.804l6.314-15.664h-1.826l-3.344 8.536-3.74-8.536h-1.936zm17.154 4.026c0-4.664-2.244-8.69-5.742-10.406l-.77 1.386c2.816 1.43 4.73 4.796 4.73 9.02 0 4.202-1.914 7.568-4.73 9.02l.77 1.386c3.498-1.716 5.742-5.764 5.742-10.406zM131.796 165.598h4.884c4.906 0 8.228-3.344 8.228-8.272 0-4.906-3.322-8.228-8.228-8.228h-4.884v16.5zm4.884-14.784c3.74 0 6.292 2.53 6.292 6.512 0 4.004-2.552 6.556-6.292 6.556h-3.014v-13.068h3.014zm18.03 14.784h1.584v-6.776c0-2.684-1.716-4.224-4.444-4.224-2.442 0-4.202 1.254-4.708 3.344l1.628.308c.396-1.474 1.474-2.178 3.058-2.178 1.562 0 2.618.77 2.794 2.354l-3.124.748c-2.596.66-4.334 1.518-4.334 3.608 0 1.848 1.364 2.992 3.41 2.992 1.76 0 3.234-.858 4.092-2.332l.044 2.156zm-5.742-2.97c0-1.078.902-1.606 2.552-2.024l3.124-.77v.242c0 2.728-1.87 4.224-3.806 4.224-1.188 0-1.87-.682-1.87-1.672zm10.72 2.97h1.716v-16.5h-1.716v16.5zm5.328 0h1.716v-16.5h-1.716v16.5zm12.038 0h1.584v-6.776c0-2.684-1.716-4.224-4.444-4.224-2.442 0-4.202 1.254-4.708 3.344l1.628.308c.396-1.474 1.474-2.178 3.058-2.178 1.562 0 2.618.77 2.794 2.354l-3.124.748c-2.596.66-4.334 1.518-4.334 3.608 0 1.848 1.364 2.992 3.41 2.992 1.76 0 3.234-.858 4.092-2.332l.044 2.156zm-5.742-2.97c0-1.078.902-1.606 2.552-2.024l3.124-.77v.242c0 2.728-1.87 4.224-3.806 4.224-1.188 0-1.87-.682-1.87-1.672zm14.284 3.146c2.794 0 4.268-1.43 4.268-3.344 0-2.486-2.2-2.816-4.07-3.146-1.43-.264-2.662-.396-2.662-1.584 0-1.012.99-1.628 2.398-1.628 1.32 0 2.134.572 2.464 1.804l1.716-.396c-.528-1.848-2.002-2.882-4.18-2.882-2.442 0-4.158 1.364-4.158 3.168 0 2.354 2.024 2.728 3.85 3.036 1.496.264 2.86.484 2.86 1.738 0 1.188-1.056 1.76-2.464 1.76-1.672 0-2.596-.77-2.948-2.2l-1.738.396c.55 2.156 2.2 3.278 4.664 3.278zM207.464 53.942h1.87V39.158h5.302v-1.716h-12.452v1.716h5.28v14.784zm7.836 0h1.716V48.31c0-2.42 1.386-3.674 3.014-3.674.352 0 .704.044 1.1.154l.264-1.694a3.754 3.754 0 00-1.078-.154c-1.518 0-2.662.748-3.278 1.892l-.044-1.716H215.3v10.824zm12.678.176c2.552 0 4.444-1.342 4.972-3.476l-1.672-.308c-.44 1.386-1.496 2.244-3.3 2.244-2.112 0-3.542-1.364-3.74-3.652h8.756c.022-.286.066-.616.066-.88 0-3.014-2.156-5.104-5.192-5.104-3.146 0-5.434 2.332-5.434 5.522 0 3.278 2.156 5.654 5.544 5.654zm-.11-9.68c1.826 0 3.212 1.232 3.344 3.036h-6.908c.352-1.936 1.826-3.036 3.564-3.036zm10.525 9.504h1.936l4.312-10.824h-1.826l-3.388 8.822-3.366-8.822h-1.914l4.246 10.824zm12.854-11c-3.234 0-5.588 2.354-5.588 5.566 0 3.256 2.354 5.61 5.588 5.61s5.588-2.354 5.588-5.61c0-3.212-2.354-5.566-5.588-5.566zm0 1.584c2.222 0 3.784 1.628 3.784 3.982 0 2.376-1.562 4.026-3.784 4.026-2.222 0-3.784-1.65-3.784-4.026 0-2.354 1.562-3.982 3.784-3.982zm11.896 9.592c2.794 0 4.268-1.43 4.268-3.344 0-2.486-2.2-2.816-4.07-3.146-1.43-.264-2.662-.396-2.662-1.584 0-1.012.99-1.628 2.398-1.628 1.32 0 2.134.572 2.464 1.804l1.716-.396c-.528-1.848-2.002-2.882-4.18-2.882-2.442 0-4.158 1.364-4.158 3.168 0 2.354 2.024 2.728 3.85 3.036 1.496.264 2.86.484 2.86 1.738 0 1.188-1.056 1.76-2.464 1.76-1.672 0-2.596-.77-2.948-2.2l-1.738.396c.55 2.156 2.2 3.278 4.664 3.278zm11.37 0c2.552 0 4.444-1.342 4.972-3.476l-1.672-.308c-.44 1.386-1.496 2.244-3.3 2.244-2.112 0-3.542-1.364-3.74-3.652h8.756c.022-.286.066-.616.066-.88 0-3.014-2.156-5.104-5.192-5.104-3.146 0-5.434 2.332-5.434 5.522 0 3.278 2.156 5.654 5.544 5.654zm-.11-9.68c1.826 0 3.212 1.232 3.344 3.036h-6.908c.352-1.936 1.826-3.036 3.564-3.036zM296.622 113.737h5.896c3.08 0 5.038-1.76 5.038-4.598 0-2.068-1.1-3.52-3.146-4.092 1.474-.616 2.376-1.848 2.376-3.652 0-2.574-1.826-4.158-4.642-4.158h-5.522v16.5zm5.39-14.872c1.782 0 2.904 1.056 2.904 2.706 0 1.694-1.1 2.816-2.838 2.816h-3.586v-5.522h3.52zm.396 7.172c1.98 0 3.234 1.21 3.234 3.102 0 1.848-1.232 2.97-3.212 2.97h-3.938v-6.072h3.916zm12.979-3.3c-3.234 0-5.588 2.354-5.588 5.566 0 3.256 2.354 5.61 5.588 5.61s5.588-2.354 5.588-5.61c0-3.212-2.354-5.566-5.588-5.566zm0 1.584c2.222 0 3.784 1.628 3.784 3.982 0 2.376-1.562 4.026-3.784 4.026-2.222 0-3.784-1.65-3.784-4.026 0-2.354 1.562-3.982 3.784-3.982zm11.896 9.592c2.794 0 4.268-1.43 4.268-3.344 0-2.486-2.2-2.816-4.07-3.146-1.43-.264-2.662-.396-2.662-1.584 0-1.012.99-1.628 2.398-1.628 1.32 0 2.134.572 2.464 1.804l1.716-.396c-.528-1.848-2.002-2.882-4.18-2.882-2.442 0-4.158 1.364-4.158 3.168 0 2.354 2.024 2.728 3.85 3.036 1.496.264 2.86.484 2.86 1.738 0 1.188-1.056 1.76-2.464 1.76-1.672 0-2.596-.77-2.948-2.2l-1.738.396c.55 2.156 2.2 3.278 4.664 3.278zm5.078-9.922v.418h1.87v6.27c0 2.068 1.21 3.234 3.278 3.234.858 0 1.694-.198 2.398-.528l-.44-1.43c-.528.22-1.1.374-1.65.374-1.21 0-1.848-.594-1.848-1.936v-5.984h4.048v-1.496h-4.048v-1.914h-.396l-3.212 2.992zm14.457-1.254c-3.234 0-5.588 2.354-5.588 5.566 0 3.256 2.354 5.61 5.588 5.61s5.588-2.354 5.588-5.61c0-3.212-2.354-5.566-5.588-5.566zm0 1.584c2.222 0 3.784 1.628 3.784 3.982 0 2.376-1.562 4.026-3.784 4.026-2.222 0-3.784-1.65-3.784-4.026 0-2.354 1.562-3.982 3.784-3.982zm8.333 9.416h1.716v-5.962c0-2.31 1.474-3.432 3.168-3.432 1.65 0 2.86 1.012 2.86 3.058v6.336h1.716v-6.49c0-2.992-1.87-4.51-4.246-4.51-1.54 0-2.772.704-3.52 1.804l-.044-1.628h-1.65v10.824z" fill="#3E424B"/><path stroke="#3E424B" stroke-dasharray="4 2" d="M626.5 46v56M644.5 229v27M598.637 151v12M574.5 112v27M299.5 121v35M277.5 61v106M189.5 173v28"/><circle cx="626" cy="113" r="7" fill="#00A8FF"/><circle cx="599" cy="139" r="7" fill="#00A8FF"/><circle cx="645" cy="218" r="7" fill="#00A8FF"/><circle cx="574" cy="150" r="7" fill="#00A8FF"/><circle cx="300" cy="167" r="7" fill="#00A8FF"/><circle cx="278" cy="178" r="7" fill="#00A8FF"/><circle cx="189" cy="211" r="7" fill="#00A8FF"/><path d="M926.545 359.689c-6.75 0-11.97 4.41-11.97 11.34 0 6.48 4.68 10.71 10.98 10.71.585 0 1.17-.045 1.71-.135l-8.19 12.285h6.795l9.81-14.94c1.62-2.475 2.7-5.22 2.7-8.19 0-6.795-5.175-11.07-11.835-11.07zm0 5.535c3.33 0 5.715 2.385 5.715 5.85 0 1.755-.675 3.24-1.845 4.275-.99.81-2.385 1.35-3.915 1.35-3.33 0-5.76-2.25-5.76-5.625 0-3.465 2.385-5.85 5.805-5.85zm28.738 29.115c7.605 0 12.6-6.39 12.6-17.415 0-10.89-4.995-17.235-12.6-17.235-7.65 0-12.69 6.345-12.69 17.235 0 11.025 5.04 17.415 12.69 17.415zm0-29.115c4.545 0 6.435 4.725 6.435 11.7 0 7.155-1.89 11.88-6.435 11.88-4.68 0-6.48-4.725-6.48-11.88 0-6.975 1.845-11.7 6.48-11.7zm30.63 29.115c7.605 0 12.6-6.39 12.6-17.415 0-10.89-4.995-17.235-12.6-17.235-7.65 0-12.69 6.345-12.69 17.235 0 11.025 5.04 17.415 12.69 17.415zm0-29.115c4.545 0 6.435 4.725 6.435 11.7 0 7.155-1.89 11.88-6.435 11.88-4.68 0-6.48-4.725-6.48-11.88 0-6.975 1.845-11.7 6.48-11.7zm19.017 14.13h7.43v7.47h5.44v-7.47h7.43v-5.31h-7.43v-7.425h-5.44v7.425h-7.43v5.31zm-89.704 42.535h10.269v-2.121h-7.917v-5.082h5.418v-2.121h-5.418v-4.305h7.707v-2.121h-10.059v15.75zm12.619 0h2.163v-6.384c0-1.596 1.071-2.226 2.205-2.226 1.155 0 1.932.714 1.932 2.142v6.468h2.184v-6.447c0-1.554 1.05-2.163 2.184-2.163 1.155 0 1.953.714 1.953 2.142v6.468h2.184v-6.615c0-2.646-1.638-4.011-3.696-4.011-1.47 0-2.499.693-3.192 1.68-.63-1.113-1.764-1.68-3.066-1.68-1.239 0-2.121.567-2.751 1.365l-.084-1.176h-2.016v10.437zm17.862-10.437v15.057h2.163v-6.006c.84.987 2.058 1.575 3.465 1.575 2.898 0 5.103-2.289 5.103-5.418 0-3.108-2.205-5.397-5.103-5.397-1.449 0-2.667.63-3.528 1.659l-.084-1.47h-2.016zm5.313 1.806c1.869 0 3.15 1.365 3.15 3.402s-1.281 3.423-3.15 3.423c-1.89 0-3.15-1.386-3.15-3.423s1.26-3.402 3.15-3.402zm7.874 8.631h2.163v-15.75h-2.163v15.75zm10.096-10.626c-3.15 0-5.481 2.289-5.481 5.397 0 3.129 2.331 5.418 5.481 5.418 3.171 0 5.481-2.289 5.481-5.418 0-3.108-2.31-5.397-5.481-5.397zm0 1.995c1.911 0 3.213 1.365 3.213 3.402s-1.302 3.423-3.213 3.423-3.213-1.386-3.213-3.423 1.302-3.402 3.213-3.402zm6.172-1.806l4.494 10.374-1.827 4.683h2.247l5.88-15.057h-2.289l-2.856 7.623-3.234-7.623h-2.415zm17.022 10.626c2.52 0 4.326-1.26 4.893-3.339l-2.079-.378c-.378 1.113-1.281 1.806-2.814 1.806-1.743 0-2.982-.966-3.192-2.898h8.085c.042-.336.084-.693.084-1.008 0-2.961-2.1-4.998-5.103-4.998-3.087 0-5.313 2.289-5.313 5.397 0 3.15 2.079 5.418 5.439 5.418zm-.126-8.988c1.533 0 2.583.924 2.793 2.436h-5.775c.357-1.617 1.596-2.436 2.982-2.436zm12.242 8.988c2.52 0 4.33-1.26 4.9-3.339l-2.08-.378c-.38 1.113-1.28 1.806-2.82 1.806-1.74 0-2.98-.966-3.19-2.898h8.09c.04-.336.08-.693.08-1.008 0-2.961-2.1-4.998-5.1-4.998-3.09 0-5.315 2.289-5.315 5.397 0 3.15 2.075 5.418 5.435 5.418zm-.12-8.988c1.53 0 2.58.924 2.79 2.436h-5.77c.35-1.617 1.59-2.436 2.98-2.436zm11.15 8.988c2.86 0 4.27-1.449 4.27-3.36 0-2.394-2.13-2.751-3.89-3.045-1.26-.21-2.33-.378-2.33-1.323 0-.777.78-1.302 1.95-1.302 1.07 0 1.77.483 2.04 1.512l2.16-.462c-.56-1.827-1.97-2.835-4.2-2.835-2.43 0-4.18 1.344-4.18 3.192 0 2.352 1.98 2.772 3.7 3.066 1.32.231 2.5.378 2.5 1.344 0 .945-.8 1.428-2 1.428-1.32 0-2.14-.609-2.41-1.827l-2.21.462c.55 2.163 2.27 3.15 4.6 3.15zM898 360h3v62h-3zM784.33 393.889h6.435l13.545-28.575v-5.175h-22.185v5.445h15.66l-13.455 28.305zm-2.175 20.125c0 4.662 3.213 8.064 7.833 8.064 4.599 0 7.812-3.423 7.812-8.064 0-4.662-3.213-8.064-7.812-8.064-4.62 0-7.833 3.402-7.833 8.064zm13.209 0c0 3.528-2.142 5.901-5.376 5.901-3.255 0-5.376-2.373-5.376-5.901 0-3.528 2.121-5.901 5.376-5.901 3.234 0 5.376 2.373 5.376 5.901zm8.347-4.326c0-1.218.651-1.806 1.743-1.806.399 0 .714.105 1.092.231l.441-1.869a5.12 5.12 0 00-1.722-.294c-2.1 0-3.717 1.47-3.717 3.759v1.743h-1.323l-1.155 1.323v.567h2.478v8.547h2.163v-8.547h4.914v8.547h2.163v-8.547h3.633v-1.89h-3.633v-1.764c0-1.218.63-1.806 1.743-1.806.399 0 .714.105 1.092.231l.441-1.869a5.151 5.151 0 00-1.743-.294c-2.079 0-3.696 1.47-3.696 3.759v1.743h-4.914v-1.764zm12.183-1.638c0 .798.588 1.386 1.386 1.386.819 0 1.407-.588 1.407-1.386 0-.798-.588-1.365-1.407-1.365-.798 0-1.386.567-1.386 1.365zm.315 13.839h2.163v-10.437h-2.163v10.437zm4.616-5.229c0 3.129 2.268 5.418 5.334 5.418 2.604 0 4.578-1.617 4.935-3.78l-2.163-.378c-.273 1.302-1.26 2.163-2.772 2.163-1.806 0-3.066-1.365-3.066-3.423 0-2.079 1.281-3.402 3.087-3.402 1.386 0 2.352.798 2.667 2.058l2.184-.357c-.483-2.226-2.31-3.696-4.851-3.696-3.066 0-5.355 2.268-5.355 5.397zm17.087 5.418c2.52 0 4.326-1.26 4.893-3.339l-2.079-.378c-.378 1.113-1.281 1.806-2.814 1.806-1.743 0-2.982-.966-3.192-2.898h8.085c.042-.336.084-.693.084-1.008 0-2.961-2.1-4.998-5.103-4.998-3.087 0-5.313 2.289-5.313 5.397 0 3.15 2.079 5.418 5.439 5.418zm-.126-8.988c1.533 0 2.583.924 2.793 2.436h-5.775c.357-1.617 1.596-2.436 2.982-2.436zm11.154 8.988c2.856 0 4.263-1.449 4.263-3.36 0-2.394-2.121-2.751-3.885-3.045-1.26-.21-2.331-.378-2.331-1.323 0-.777.777-1.302 1.953-1.302 1.071 0 1.764.483 2.037 1.512l2.163-.462c-.567-1.827-1.974-2.835-4.2-2.835-2.436 0-4.179 1.344-4.179 3.192 0 2.352 1.974 2.772 3.696 3.066 1.323.231 2.499.378 2.499 1.344 0 .945-.798 1.428-1.995 1.428-1.323 0-2.142-.609-2.415-1.827l-2.205.462c.546 2.163 2.268 3.15 4.599 3.15zM766 360h3v62h-3z" fill="#00A8FF"/></svg>
