<svg width="568" height="479" fill="none" xmlns="http://www.w3.org/2000/svg"><g filter="url(#filter0_d)"><rect x="14" y="14" width="434.034" height="373.476" rx="10" fill="#fff"/></g><path d="M53.654 48.282c0-3.57-2.216-5.604-5.109-5.604-2.908 0-5.108 2.035-5.108 5.604 0 3.553 2.2 5.604 5.108 5.604 2.893 0 5.109-2.035 5.109-5.604zm-2.339 0c0 2.312-1.097 3.563-2.77 3.563-1.678 0-2.77-1.251-2.77-3.563 0-2.312 1.093-3.564 2.77-3.564 1.673 0 2.77 1.252 2.77 3.564zm6.274.724c.005-1.054.634-1.672 1.55-1.672.91 0 1.46.596 1.454 1.598v4.804h2.27v-5.21c0-1.906-1.12-3.078-2.824-3.078-1.214 0-2.093.597-2.46 1.55h-.097v-1.444H55.32v8.182h2.269v-4.73zm10.576 4.73h2.306V50.2h1.94c2.508 0 3.968-1.496 3.968-3.675 0-2.168-1.433-3.697-3.91-3.697h-4.304v10.91zm2.306-5.385v-3.638h1.556c1.332 0 1.976.724 1.976 1.811 0 1.081-.644 1.827-1.966 1.827h-1.566zm9.477 5.54c1.209 0 1.992-.527 2.391-1.29h.064v1.135h2.152v-5.518c0-1.95-1.651-2.77-3.473-2.77-1.96 0-3.25.938-3.563 2.429l2.098.17c.155-.543.64-.942 1.455-.942.772 0 1.214.388 1.214 1.06v.032c0 .527-.56.596-1.981.735-1.62.149-3.074.692-3.074 2.52 0 1.619 1.156 2.439 2.717 2.439zm.65-1.566c-.698 0-1.199-.325-1.199-.948 0-.64.527-.954 1.326-1.066.496-.069 1.305-.186 1.577-.367v.868c0 .858-.708 1.513-1.705 1.513zm9.404 4.65c2.338 0 4-1.065 4-3.159v-8.262H91.75v1.375h-.085c-.304-.666-.97-1.481-2.339-1.481-1.795 0-3.313 1.396-3.313 4.181 0 2.722 1.476 3.99 3.319 3.99 1.305 0 2.034-.655 2.333-1.331h.096v1.496c0 1.124-.72 1.561-1.705 1.561-1.001 0-1.507-.437-1.694-.932l-2.099.282c.272 1.29 1.534 2.28 3.74 2.28zm.048-5.06c-1.114 0-1.72-.885-1.72-2.296 0-1.39.596-2.365 1.72-2.365 1.102 0 1.72.932 1.72 2.365 0 1.443-.628 2.296-1.72 2.296zm9.487 1.981c2.024 0 3.387-.985 3.707-2.503l-2.099-.139c-.229.623-.815.948-1.571.948-1.135 0-1.854-.75-1.854-1.97v-.006h5.572v-.623c0-2.78-1.683-4.155-3.846-4.155-2.408 0-3.968 1.71-3.968 4.235 0 2.594 1.539 4.213 4.059 4.213zM97.72 48.82c.048-.932.757-1.678 1.763-1.678.986 0 1.668.703 1.673 1.678H97.72zm16.485-2.855h2.211c-.032-1.945-1.63-3.287-4.059-3.287-2.392 0-4.145 1.321-4.134 3.303-.005 1.608 1.129 2.53 2.972 2.972l1.188.298c1.188.288 1.849.629 1.854 1.364-.005.799-.762 1.342-1.934 1.342-1.198 0-2.061-.554-2.136-1.646h-2.232c.059 2.36 1.748 3.58 4.395 3.58 2.663 0 4.229-1.273 4.235-3.27-.006-1.817-1.375-2.781-3.271-3.208l-.98-.234c-.948-.218-1.742-.57-1.726-1.353 0-.703.623-1.22 1.753-1.22 1.102 0 1.779.501 1.864 1.359zm3.911 7.771h7.372v-1.901h-5.065V49.23h4.666v-1.902h-4.666v-2.6h5.044v-1.9h-7.351v10.908zm19.21-5.454c0-3.57-2.216-5.604-5.109-5.604-2.908 0-5.108 2.035-5.108 5.604 0 3.553 2.2 5.604 5.108 5.604 2.893 0 5.109-2.035 5.109-5.604zm-2.339 0c0 2.312-1.097 3.563-2.77 3.563-1.678 0-2.77-1.251-2.77-3.563 0-2.312 1.092-3.564 2.77-3.564 1.673 0 2.77 1.252 2.77 3.564zm17.144-1.635c-.303-2.52-2.21-3.969-4.735-3.969-2.882 0-5.082 2.035-5.082 5.604 0 3.558 2.163 5.604 5.082 5.604 2.796 0 4.485-1.86 4.735-3.868l-2.333-.01c-.218 1.166-1.135 1.837-2.365 1.837-1.657 0-2.781-1.23-2.781-3.563 0-2.27 1.108-3.564 2.797-3.564 1.262 0 2.173.73 2.349 1.928h2.333zm3.881 2.36c.005-1.055.649-1.673 1.576-1.673.922 0 1.465.59 1.46 1.598v4.804h2.269v-5.21c.005-1.917-1.124-3.078-2.828-3.078-1.242 0-2.073.586-2.445 1.55h-.096v-4.17h-2.206v10.908h2.27v-4.73zm10.819 4.89c2.025 0 3.388-.986 3.708-2.504l-2.099-.139c-.229.623-.815.948-1.571.948-1.135 0-1.854-.75-1.854-1.97v-.006h5.572v-.623c0-2.78-1.683-4.155-3.846-4.155-2.408 0-3.968 1.71-3.968 4.235 0 2.594 1.539 4.213 4.058 4.213zm-1.816-5.077c.048-.932.756-1.678 1.763-1.678.986 0 1.667.703 1.673 1.678h-3.436zm10.749 5.076c2.179 0 3.548-1.278 3.655-3.159h-2.142c-.133.874-.708 1.364-1.486 1.364-1.06 0-1.747-.89-1.747-2.456 0-1.544.692-2.429 1.747-2.429.831 0 1.364.55 1.486 1.364h2.142c-.096-1.89-1.529-3.132-3.665-3.132-2.483 0-4.017 1.72-4.017 4.23 0 2.487 1.508 4.218 4.027 4.218zm5.107-.16h2.27v-2.6l.612-.697 2.232 3.297h2.658l-3.191-4.64 3.037-3.541h-2.605l-2.621 3.105h-.122v-5.833h-2.27v10.91zm12.123.16c2.024 0 3.387-.985 3.707-2.503l-2.099-.139c-.229.623-.815.948-1.571.948-1.135 0-1.854-.75-1.854-1.97v-.006h5.572v-.623c0-2.78-1.683-4.155-3.846-4.155-2.408 0-3.968 1.71-3.968 4.235 0 2.594 1.539 4.213 4.059 4.213zm-1.817-5.076c.048-.932.757-1.678 1.763-1.678.986 0 1.668.703 1.673 1.678h-3.436zm7.053 4.916h2.269v-4.629c0-1.006.735-1.699 1.736-1.699.315 0 .746.053.959.123v-2.014a3.4 3.4 0 00-.714-.08c-.916 0-1.667.533-1.965 1.545h-.085v-1.428h-2.2v8.182zM49.547 213.228h2.21c-.032-1.944-1.63-3.286-4.059-3.286-2.391 0-4.144 1.321-4.133 3.302-.005 1.609 1.13 2.531 2.972 2.973l1.188.298c1.188.288 1.848.628 1.854 1.364-.006.799-.762 1.342-1.934 1.342-1.198 0-2.061-.554-2.136-1.646h-2.232c.059 2.36 1.747 3.579 4.395 3.579 2.663 0 4.23-1.273 4.235-3.27-.006-1.817-1.375-2.781-3.271-3.207l-.98-.234c-.948-.219-1.742-.57-1.726-1.353 0-.703.623-1.22 1.752-1.22 1.103 0 1.78.501 1.865 1.358zM53.415 221h2.27v-8.182h-2.27V221zm1.14-9.237c.677 0 1.23-.516 1.23-1.15 0-.629-.553-1.145-1.23-1.145-.67 0-1.225.516-1.225 1.145 0 .634.554 1.15 1.225 1.15zm7.3 1.055h-1.54v-1.96h-2.27v1.96h-1.118v1.705h1.118v4.261c-.01 1.603 1.082 2.397 2.728 2.328a4.425 4.425 0 001.23-.213l-.357-1.689c-.111.022-.351.075-.564.075-.453 0-.767-.171-.767-.799v-3.963h1.54v-1.705zm5.118 8.342c2.024 0 3.388-.986 3.707-2.504l-2.098-.138c-.23.623-.815.948-1.572.948-1.134 0-1.853-.751-1.853-1.971v-.005h5.571v-.624c0-2.78-1.683-4.154-3.846-4.154-2.407 0-3.968 1.71-3.968 4.234 0 2.594 1.54 4.214 4.06 4.214zm-1.816-5.077c.048-.932.756-1.677 1.763-1.677.985 0 1.667.703 1.672 1.677h-3.435zM77.604 221l.81-2.488h3.936l.81 2.488h2.471l-3.76-10.909h-2.973L75.132 221h2.472zm1.395-4.288l1.343-4.128h.085l1.342 4.128H79zm13.15.804c.005 1.098-.746 1.673-1.561 1.673-.858 0-1.412-.602-1.417-1.566v-4.805H86.9v5.21c.006 1.912 1.125 3.079 2.77 3.079 1.231 0 2.115-.634 2.483-1.593h.085V221h2.179v-8.182h-2.27v4.698zm7.099 3.617c1.321 0 2.008-.762 2.322-1.443h.096V221h2.237v-10.909h-2.264v4.101h-.069c-.304-.665-.959-1.48-2.328-1.48-1.795 0-3.313 1.395-3.313 4.208 0 2.738 1.454 4.213 3.319 4.213zm.719-1.806c-1.114 0-1.72-.99-1.72-2.418 0-1.417.596-2.392 1.72-2.392 1.102 0 1.72.933 1.72 2.392 0 1.46-.628 2.418-1.72 2.418zm5.802 1.673h2.269v-8.182h-2.269V221zm1.14-9.237c.676 0 1.23-.516 1.23-1.15 0-.629-.554-1.145-1.23-1.145-.671 0-1.225.516-1.225 1.145 0 .634.554 1.15 1.225 1.15zm7.299 1.055h-1.54v-1.96h-2.269v1.96h-1.119v1.705h1.119v4.261c-.011 1.603 1.081 2.397 2.727 2.328a4.429 4.429 0 001.231-.213L114 219.21c-.112.022-.352.075-.565.075-.452 0-.767-.171-.767-.799v-3.963h1.54v-1.705z" fill="#171A22"/><path d="M398.214 155.142c.871 0 1.478-.509 1.482-1.218-.004-.552-.372-1.02-.843-1.107v-.026c.409-.106.677-.507.681-.971-.004-.664-.562-1.158-1.32-1.158-.766 0-1.324.494-1.32 1.158-.004.464.264.865.682.971v.026c-.48.087-.848.555-.844 1.107-.004.709.603 1.218 1.482 1.218zm0-.469c-.598 0-.966-.306-.962-.775-.004-.492.402-.843.962-.843.552 0 .958.351.963.843-.005.469-.373.775-.963.775zm0-2.069c-.477 0-.813-.298-.809-.75-.004-.443.32-.732.809-.732.481 0 .805.289.809.732-.004.452-.34.75-.809.75zm4.589-1.882h-.528v4.36h.528v-4.36zm2.225 4.428c.631 0 .844-.392.954-.57h.06v.502h.485v-4.36h-.502v1.609h-.043c-.11-.17-.306-.562-.945-.562-.826 0-1.397.656-1.397 1.686 0 1.039.571 1.695 1.388 1.695zm.069-.451c-.631 0-.954-.554-.954-1.252 0-.69.315-1.226.954-1.226.613 0 .936.493.936 1.226 0 .741-.332 1.252-.936 1.252zm3.792.451c.664 0 1.149-.332 1.303-.826l-.486-.136c-.128.34-.424.511-.817.511-.59 0-.997-.381-1.02-1.082h2.374v-.213c0-1.218-.724-1.635-1.406-1.635-.885 0-1.473.698-1.473 1.703 0 1.005.579 1.678 1.525 1.678zm-1.02-1.967c.034-.509.394-.962.968-.962.545 0 .895.408.895.962h-1.863zm4.1 1.976c.571 0 .869-.307.971-.52h.026v.443h.502v-2.155c0-1.039-.792-1.158-1.209-1.158-.494 0-1.056.17-1.312.767l.477.17c.111-.239.373-.494.852-.494.462 0 .69.245.69.664v.017c0 .243-.247.222-.843.298-.607.079-1.269.213-1.269.963 0 .638.494 1.005 1.115 1.005zm.077-.452c-.4 0-.69-.179-.69-.528 0-.383.349-.502.741-.553.213-.026.784-.085.869-.188v.46c0 .409-.324.809-.92.809zm4.656-2.163c-.158-.464-.511-.775-1.158-.775-.69 0-1.201.392-1.201.945 0 .452.268.754.868.895l.545.127c.33.077.486.235.486.46 0 .281-.298.511-.767.511-.41 0-.668-.176-.758-.528l-.476.12c.117.555.574.851 1.243.851.76 0 1.277-.415 1.277-.979 0-.456-.285-.743-.868-.886l-.486-.119c-.387-.096-.562-.226-.562-.477 0-.281.298-.486.699-.486.438 0 .619.243.706.469l.452-.128z" fill="#3E424B"/><path fill="#E9EBEF" d="M180.348 162.072h237.094v.478H180.348z"/><rect x="180.348" y="151.239" width="183.556" height="3.824" rx=".956" fill="#80D3FF"/><path d="M398.227 175.218c.83 0 1.439-.613 1.439-1.448 0-.845-.587-1.464-1.388-1.464-.294 0-.579.104-.758.247h-.025l.153-1.286h1.822v-.469h-2.265l-.264 2.146.494.06c.181-.13.49-.224.758-.222.556.005.962.426.962.997 0 .56-.391.971-.928.971-.447 0-.803-.288-.843-.682h-.511c.032.665.605 1.15 1.354 1.15zm4.576-4.42h-.528v4.361h.528v-4.361zm2.225 4.429c.631 0 .844-.392.954-.571h.06v.503h.485v-4.361h-.502v1.61h-.043c-.11-.171-.306-.562-.945-.562-.826 0-1.397.655-1.397 1.686 0 1.039.571 1.695 1.388 1.695zm.069-.452c-.631 0-.954-.553-.954-1.252 0-.689.315-1.226.954-1.226.613 0 .936.494.936 1.226 0 .741-.332 1.252-.936 1.252zm3.792.452c.664 0 1.149-.332 1.303-.826l-.486-.137c-.128.341-.424.511-.817.511-.59 0-.997-.381-1.02-1.081h2.374v-.213c0-1.218-.724-1.635-1.406-1.635-.885 0-1.473.698-1.473 1.703 0 1.005.579 1.678 1.525 1.678zm-1.02-1.968c.034-.508.394-.962.968-.962.545 0 .895.409.895.962h-1.863zm4.1 1.976c.571 0 .869-.306.971-.519h.026v.443h.502v-2.155c0-1.039-.792-1.158-1.209-1.158-.494 0-1.056.17-1.312.766l.477.17c.111-.238.373-.493.852-.493.462 0 .69.244.69.664v.017c0 .243-.247.221-.843.298-.607.079-1.269.213-1.269.962 0 .639.494 1.005 1.115 1.005zm.077-.451c-.4 0-.69-.179-.69-.528 0-.383.349-.503.741-.554.213-.025.784-.085.869-.187v.46c0 .409-.324.809-.92.809zm4.656-2.163c-.158-.464-.511-.775-1.158-.775-.69 0-1.201.391-1.201.945 0 .451.268.754.868.894l.545.128c.33.077.486.234.486.46 0 .281-.298.511-.767.511-.41 0-.668-.177-.758-.528l-.476.119c.117.556.574.852 1.243.852.76 0 1.277-.415 1.277-.98 0-.455-.285-.743-.868-.885l-.486-.12c-.387-.095-.562-.225-.562-.477 0-.281.298-.485.699-.485.438 0 .619.243.706.468l.452-.127z" fill="#3E424B"/><path fill="#E9EBEF" d="M180.348 182.149h237.094v.478H180.348z"/><rect x="180.348" y="171.316" width="183.556" height="3.824" rx=".956" fill="#80D3FF"/><path d="M85.158 114.276c-3.09-.008-5.172 2.019-5.154 4.799.01 2.577 1.801 4.443 4.25 4.44 1.518-.003 2.867-.74 3.479-1.955l.094-.001c-.002 2.74-.951 4.408-2.753 4.41-1.059.002-1.822-.577-2.046-1.582l-2.881.004c.273 2.328 2.165 4.086 4.931 4.082 3.42-.006 5.623-2.775 5.61-7.464-.015-5.007-2.69-6.723-5.53-6.733zm.024 2.294c1.343-.002 2.336 1.09 2.352 2.406.008 1.322-1.036 2.417-2.372 2.419-1.35.002-2.316-1.049-2.325-2.406-.015-1.349.989-2.417 2.345-2.419zm12.844 11.883c3.077.009 5.172-2.011 5.161-4.825.003-2.591-1.808-4.457-4.257-4.453-1.518.002-2.86.733-3.479 1.955h-.094c.01-2.692.951-4.367 2.753-4.37 1.059-.001 1.822.578 2.046 1.542l2.881-.004c-.28-2.273-2.171-4.045-4.931-4.041-3.414.005-5.603 2.775-5.61 7.417.001 5.06 2.69 6.77 5.53 6.779zm-.017-2.294c-1.35.002-2.35-1.083-2.352-2.432.005-1.343 1.022-2.437 2.365-2.439 1.35-.002 2.336 1.056 2.331 2.425.009 1.383-.994 2.444-2.344 2.446zm12.235-11.92c-3.09-.009-5.172 2.018-5.154 4.798.01 2.578 1.801 4.444 4.25 4.44 1.518-.002 2.867-.739 3.479-1.955h.094c-.002 2.739-.951 4.407-2.753 4.41-1.059.002-1.822-.578-2.046-1.583l-2.881.005c.273 2.327 2.165 4.085 4.931 4.081 3.421-.005 5.623-2.775 5.609-7.464-.014-5.006-2.688-6.723-5.529-6.732zm.024 2.294c1.342-.002 2.336 1.09 2.351 2.405.009 1.323-1.035 2.417-2.371 2.419-1.349.002-2.316-1.049-2.325-2.405-.015-1.349.989-2.417 2.345-2.419z" fill="#171A22"/><path d="M84.429 140.268l.743-.001-.005-3.819-.744.002.006 3.818zm.369-4.408c.256-.001.47-.2.469-.443 0-.244-.215-.445-.47-.445-.259.001-.47.202-.47.446s.212.442.47.442zm2.804 4.478c.696-.001.968-.427 1.102-.671h.063v.594l.726-.001-.007-5.091-.744.001.003 1.892H88.7c-.134-.236-.388-.668-1.1-.667-.921.001-1.599.731-1.597 1.969.002 1.235.671 1.975 1.599 1.974zm.163-.635c-.664.001-1.01-.582-1.011-1.348-.002-.758.336-1.328 1.007-1.329.648-.001.997.528.999 1.326 0 .803-.354 1.351-.995 1.351zm4.435.63c.832-.001 1.421-.412 1.59-1.034l-.705-.125c-.133.36-.456.545-.879.545-.636.001-1.064-.411-1.085-1.147l2.714-.004v-.263c-.002-1.38-.828-1.918-1.693-1.917-1.064.002-1.764.813-1.762 1.987.002 1.185.694 1.96 1.82 1.958zm-1.078-2.317c.03-.542.421-1.013 1.025-1.014.577-.001.956.426.96 1.011l-1.985.003zm4.652 2.319c.631-.001.986-.322 1.127-.608h.03v.522l.727-.001-.004-2.535c-.002-1.112-.877-1.332-1.483-1.331-.692.001-1.328.281-1.575.977l.699.158c.109-.271.387-.532.886-.533.48-.001.727.25.727.682v.018c0 .271-.278.266-.964.347-.723.085-1.463.275-1.462 1.143.001.751.566 1.162 1.292 1.161zm.16-.596c-.42 0-.723-.188-.724-.556 0-.398.352-.54.782-.598.241-.033.813-.098.92-.205v.492c.001.452-.359.866-.978.867zm5.571-2.383c-.155-.594-.621-.981-1.446-.979-.863.001-1.474.457-1.472 1.133 0 .542.329.902 1.045 1.06l.647.14c.368.082.539.246.54.484 0 .296-.315.528-.802.528-.445.001-.731-.19-.822-.565l-.718.11c.126.676.688 1.056 1.546 1.055.922-.002 1.56-.492 1.559-1.184-.001-.539-.344-.872-1.046-1.032l-.606-.138c-.42-.099-.602-.241-.6-.499-.003-.293.315-.503.737-.503.463-.001.677.255.764.511l.674-.121zm4.56-.939l-.823.002-.001-.344c0-.338.139-.522.502-.522.154-.001.263.034.333.056l.173-.601a1.76 1.76 0 00-.622-.101c-.604 0-1.133.354-1.132 1.07l.001.443-.589.001.001.596.589-.001.005 3.222.746-.001-.005-3.222.823-.001-.001-.597zm2.23 3.892c1.077-.001 1.779-.79 1.777-1.971-.002-1.188-.706-1.975-1.783-1.974-1.076.002-1.778.791-1.777 1.979.002 1.181.707 1.968 1.783 1.966zm.002-.624c-.704.001-1.033-.612-1.034-1.345-.001-.731.326-1.353 1.03-1.354.698-.001 1.027.62 1.028 1.35.002.734-.326 1.348-1.024 1.349zm2.608.543l.743-.001-.004-2.331c0-.5.384-.861.911-.862.155 0 .329.027.388.044l-.001-.711a2.999 2.999 0 00-.316-.017c-.447.001-.829.255-.968.666h-.04l-.001-.607-.718.001.006 3.818zm-27.151 2.95l-.748.001-1.27.832.002.736 1.216-.797h.03l.007 4.32.77-.001-.007-5.091zm3.105 5.156c1.059-.002 1.806-.605 1.81-1.43-.006-.641-.457-1.18-1.026-1.281v-.03c.494-.12.83-.585.833-1.135-.006-.778-.693-1.356-1.625-1.354-.942.001-1.627.581-1.621 1.359-.004.547.332 1.014.837 1.133v.029c-.58.103-1.028.643-1.022 1.285-.004.825.745 1.425 1.814 1.424zm-.001-.629c-.636.001-1.04-.337-1.035-.846-.006-.53.43-.908 1.032-.909.592-.001 1.03.376 1.036.906-.005.509-.404.848-1.033.849zm-.004-2.369c-.514.001-.88-.324-.876-.809-.006-.477.347-.794.874-.794.517-.001.87.314.876.791-.004.485-.367.811-.874.812zm2.707 2.924l3.351-.005v-.659l-2.293.004v-.037l1.01-1.061c.931-.943 1.197-1.394 1.196-1.963-.002-.818-.669-1.443-1.628-1.442-.952.002-1.647.619-1.646 1.549l.733-.001c-.003-.547.35-.906.899-.906.517-.001.91.316.91.823.001.45-.267.774-.813 1.354l-1.72 1.787.001.557zm6.158 1.423l.743-.001-.003-2.026h.045c.134.243.409.668 1.105.667.924-.002 1.594-.743 1.593-1.979-.002-1.238-.684-1.965-1.607-1.964-.708.001-.964.434-1.095.671h-.062l-.001-.619-.726.001.008 5.25zm.723-3.342c0-.798.346-1.328.995-1.329.674-.001 1.013.568 1.014 1.326.001.765-.346 1.35-1.01 1.351-.639.001-.998-.545-.999-1.348zm4.706 1.986c.632-.001.987-.322 1.128-.608h.03l.001.522.726-.001-.004-2.535c-.002-1.112-.877-1.332-1.484-1.331-.691.001-1.327.281-1.574.977l.698.158c.109-.271.387-.532.887-.533.48-.001.726.25.727.682v.018c0 .271-.278.266-.964.347-.723.085-1.464.275-1.463 1.143.002.751.567 1.162 1.292 1.161zm.161-.596c-.42 0-.724-.188-.724-.556-.001-.398.352-.54.782-.598.241-.033.813-.098.919-.205l.001.492c.001.452-.359.866-.978.867zm4.317 2.017c.972-.002 1.722-.448 1.72-1.43l-.006-3.903-.728.002.001.618-.055.001c-.132-.236-.396-.669-1.107-.667-.922.001-1.6.73-1.598 1.946.002 1.218.696 1.866 1.599 1.864.701-.001.971-.396 1.105-.64h.047l.001.75c.001.599-.409.859-.973.859-.619.001-.86-.309-.992-.528l-.639.265c.202.467.712.864 1.625.863zm-.011-2.185c-.664.001-1.01-.509-1.011-1.259-.001-.734.336-1.303 1.007-1.304.649-.001.998.528.999 1.301.001.788-.354 1.261-.995 1.262zm4.374.744c.832-.002 1.421-.413 1.589-1.034l-.704-.126c-.133.361-.456.545-.879.546-.636.001-1.064-.411-1.085-1.147l2.714-.004v-.264c-.002-1.379-.829-1.917-1.694-1.916-1.063.001-1.763.813-1.762 1.986.002 1.186.694 1.96 1.821 1.959zm-1.078-2.318c.029-.542.421-1.012 1.025-1.013.577-.001.955.426.959 1.01l-1.984.003zm6.397-.653c-.155-.594-.62-.981-1.446-.98-.862.001-1.473.457-1.472 1.133.001.542.329.902 1.046 1.06l.646.141c.368.081.54.245.54.484.001.296-.315.527-.802.528-.445.001-.731-.19-.821-.566l-.718.111c.125.676.687 1.055 1.545 1.054.922-.001 1.56-.492 1.559-1.183-.001-.539-.344-.872-1.045-1.033l-.607-.138c-.42-.099-.602-.24-.6-.499-.003-.293.315-.502.738-.503.462-.001.676.255.764.511l.673-.12z" fill="#898D9A"/><path d="M154.807 129.864c0 30.963-25.1 56.063-56.063 56.063s-56.063-25.1-56.063-56.063c0-30.962 25.1-56.063 56.063-56.063s56.063 25.1 56.063 56.063zm-95.307 0c0 21.674 17.57 39.244 39.244 39.244s39.244-17.57 39.244-39.244-17.57-39.244-39.244-39.244S59.5 108.19 59.5 129.864z" fill="#E9EBEF"/><path d="M94.92 73.932a56.063 56.063 0 00-16.1 3.529l5.978 15.72a39.243 39.243 0 0111.269-2.47l-1.147-16.78z" fill="#F51A38"/><path d="M118.243 77.302a56.064 56.064 0 00-23.424-3.363l1.177 16.778a39.25 39.25 0 0116.397 2.353l5.85-15.768z" fill="#00A8FF"/><path d="M147.785 102.697a56.063 56.063 0 00-33.574-26.72l-4.64 16.166a39.243 39.243 0 0123.501 18.704l14.713-8.15z" fill="#84D149"/><path d="M150.125 152.294a56.073 56.073 0 00-2.589-50.041l-14.638 8.284a39.226 39.226 0 015.037 17.3 39.231 39.231 0 01-3.225 17.728l15.415 6.729z" fill="#FFC200"/><path d="M113.735 183.886a56.065 56.065 0 0036.657-32.216l-15.494-6.542a39.238 39.238 0 01-25.66 22.551l4.497 16.207z" fill="#FF642D"/><path d="M79.039 77.378a56.063 56.063 0 0039.41 104.972l-5.912-15.745a39.245 39.245 0 01-27.587-73.48l-5.91-15.748z" fill="#00BA96"/><path d="M202.805 80.412h.74c-.022-.816-.743-1.408-1.777-1.408-1.022 0-1.805.585-1.805 1.462 0 .709.508 1.124 1.325 1.345l.602.164c.544.144.964.323.964.776 0 .497-.474.825-1.128.825-.592 0-1.084-.264-1.129-.818h-.77c.049.922.763 1.492 1.904 1.492 1.195 0 1.884-.63 1.884-1.492 0-.917-.818-1.273-1.464-1.432l-.497-.129c-.398-.102-.927-.288-.925-.776 0-.432.395-.753 1.022-.753.584 0 .999.274 1.054.743zm3.451-.065h-.783v-.915h-.744v.915h-.559v.596h.559v2.255c-.002.694.527 1.03 1.114 1.017.236-.003.395-.047.482-.08l-.134-.614c-.05.01-.142.032-.261.032-.241 0-.457-.079-.457-.51v-2.1h.783v-.596zm.822 3.818h.743v-2.332c0-.5.385-.86.912-.86.154 0 .328.028.388.045v-.71a2.992 2.992 0 00-.316-.018c-.447 0-.83.253-.969.663h-.04v-.606h-.718v3.818zm3.763.085c.632 0 .987-.321 1.129-.607h.03v.522h.725v-2.536c0-1.11-.875-1.332-1.481-1.332-.691 0-1.327.279-1.576.975l.698.159c.11-.271.388-.532.888-.532.48 0 .726.25.726.683v.018c0 .27-.279.266-.965.345-.723.085-1.464.274-1.464 1.141 0 .75.564 1.164 1.29 1.164zm.162-.597c-.42 0-.724-.189-.724-.557 0-.398.353-.54.783-.596.242-.033.813-.097.92-.204v.492c0 .452-.36.865-.979.865zm4.495-3.306h-.783v-.915h-.743v.915h-.56v.596h.56v2.255c-.003.694.526 1.03 1.113 1.017.236-.003.395-.047.482-.08l-.134-.614c-.05.01-.142.032-.261.032-.241 0-.457-.079-.457-.51v-2.1h.783v-.596zm2.427 3.895c.832 0 1.421-.41 1.59-1.032l-.703-.126c-.134.36-.457.544-.88.544-.636 0-1.064-.412-1.084-1.148h2.715v-.264c0-1.38-.826-1.919-1.691-1.919-1.064 0-1.765.81-1.765 1.984 0 1.185.691 1.961 1.818 1.961zm-1.074-2.32c.03-.541.422-1.01 1.026-1.01.577 0 .955.427.957 1.01h-1.983zm5.137 3.754c.972 0 1.723-.445 1.723-1.426v-3.903h-.728v.619h-.055c-.132-.236-.395-.669-1.106-.669-.923 0-1.601.728-1.601 1.944 0 1.218.693 1.867 1.596 1.867.701 0 .972-.395 1.106-.639h.047v.75c0 .6-.41.858-.974.858-.619 0-.86-.31-.992-.53l-.639.264c.201.468.711.865 1.623.865zm-.007-2.185c-.664 0-1.009-.51-1.009-1.26 0-.733.338-1.302 1.009-1.302.649 0 .997.529.997 1.302 0 .788-.356 1.26-.997 1.26zm3.196 2.106c.614 0 1.002-.32 1.223-.922l1.579-4.32-.803-.008-.967 2.963h-.04l-.967-2.963h-.795l1.397 3.868-.092.253c-.189.507-.455.55-.863.438l-.179.609c.09.04.284.082.507.082zm6.183-6.523h-.768v5.091h.768v-5.09zm2.488 5.166c.696 0 .969-.425 1.104-.67h.062v.595h.726v-5.09h-.744v1.89h-.044c-.135-.235-.388-.668-1.099-.668-.922 0-1.601.728-1.601 1.966 0 1.236.669 1.977 1.596 1.977zm.164-.634c-.664 0-1.009-.584-1.009-1.35 0-.758.338-1.328 1.009-1.328.649 0 .997.53.997 1.328 0 .803-.356 1.35-.997 1.35zm4.434.636c.833 0 1.422-.41 1.591-1.032l-.704-.126c-.134.36-.457.544-.88.544-.636 0-1.063-.412-1.083-1.148h2.714v-.264c0-1.38-.825-1.919-1.69-1.919-1.064 0-1.765.81-1.765 1.984 0 1.185.691 1.961 1.817 1.961zm-1.074-2.32c.03-.541.423-1.01 1.027-1.01.576 0 .954.427.957 1.01h-1.984zm4.648 2.328c.631 0 .987-.321 1.129-.607h.029v.522h.726v-2.536c0-1.11-.875-1.332-1.481-1.332-.691 0-1.328.279-1.576.975l.698.159c.11-.271.388-.532.888-.532.479 0 .725.25.725.683v.018c0 .27-.278.266-.964.345-.723.085-1.464.274-1.464 1.141 0 .75.564 1.164 1.29 1.164zm.162-.597c-.421 0-.724-.189-.724-.557 0-.398.353-.54.783-.596.241-.033.813-.097.92-.204v.492c0 .452-.36.865-.979.865zm5.573-2.374c-.154-.594-.619-.982-1.444-.982-.862 0-1.474.455-1.474 1.131 0 .542.328.903 1.044 1.062l.646.141c.368.082.54.246.54.485 0 .296-.316.527-.803.527-.445 0-.731-.191-.82-.567l-.719.11c.124.676.686 1.056 1.544 1.056.922 0 1.561-.49 1.561-1.18 0-.54-.343-.873-1.044-1.035l-.607-.139c-.42-.1-.601-.241-.599-.5-.002-.293.316-.502.739-.502.462 0 .676.256.763.512l.673-.119zm21.605 2.958c1.18.006 1.985-.768 1.983-1.847.002-.994-.691-1.711-1.631-1.711-.582 0-1.097.28-1.335.748h-.037c.006-1.033.368-1.675 1.059-1.675.406 0 .699.223.784.593h1.105c-.106-.872-.83-1.553-1.889-1.553-1.31 0-2.151 1.061-2.156 2.842-.002 1.94 1.028 2.598 2.117 2.603zm-.005-.88c-.518 0-.901-.416-.901-.934.003-.515.394-.934.909-.934.517 0 .895.406.893.932.002.53-.383.936-.901.936zm2.702-.124h2.544v.932h1.072v-.932h.657v-.898h-.657v-3.47h-1.403l-2.213 3.486v.882zm2.565-.898h-1.437v-.041l1.395-2.208h.042v2.25z" fill="#171A22"/><rect x="180.348" y="74.757" width="13.384" height="13.384" rx="1.912" fill="#00A8FF"/><path d="M186.401 80.389h1.074c-.015-.945-.792-1.597-1.972-1.597-1.162 0-2.014.642-2.008 1.605-.003.781.548 1.23 1.444 1.444l.577.145c.577.14.898.305.901.662-.003.389-.37.653-.94.653-.582 0-1.001-.27-1.038-.8h-1.084c.028 1.146.849 1.74 2.135 1.74 1.294 0 2.055-.62 2.058-1.59-.003-.883-.668-1.351-1.589-1.558l-.477-.114c-.46-.106-.846-.277-.838-.657 0-.342.303-.593.851-.593.536 0 .865.243.906.66zm3.994-.2h-.748v-.952h-1.102v.953h-.544v.828h.544v2.07c-.005.78.525 1.165 1.325 1.131a2.15 2.15 0 00.598-.103l-.174-.82c-.054.01-.17.036-.274.036-.22 0-.373-.083-.373-.389v-1.925h.748v-.828z" fill="#fff"/><path d="M329.932 101.715h.741c-.022-.815-.743-1.407-1.777-1.407-1.022 0-1.805.585-1.805 1.462 0 .709.507 1.124 1.325 1.345l.601.164c.545.144.965.323.965.776 0 .497-.475.825-1.129.825-.591 0-1.084-.264-1.128-.818h-.771c.05.922.763 1.492 1.904 1.492 1.196 0 1.884-.629 1.884-1.492 0-.917-.817-1.273-1.464-1.432l-.497-.129c-.398-.102-.927-.288-.925-.776 0-.432.396-.753 1.022-.753.584 0 .999.274 1.054.743zm1.728 3.754h3.222v-.661h-2.454v-1.559h2.258v-.659h-2.258v-1.551h2.424v-.661h-3.192v5.091zm4.218 0h.768v-1.926h1.094l1.034 1.926h.875l-1.128-2.061c.623-.231.934-.75.934-1.434 0-.937-.581-1.596-1.762-1.596h-1.815v5.091zm.768-2.588v-1.844h.965c.758 0 1.071.36 1.071.937 0 .574-.313.907-1.061.907h-.975zm3.744 2.588h.768v-1.79h1.044c1.181 0 1.765-.713 1.765-1.653 0-.937-.579-1.648-1.762-1.648h-1.815v5.091zm.768-2.441v-1.991h.964c.761 0 1.072.412 1.072.989s-.311 1.002-1.062 1.002h-.974zm5.562 2.441h.768v-2.22h2.163v-.659h-2.163v-1.551h2.389v-.661h-3.157v5.091zm5.407.077c.833 0 1.422-.41 1.591-1.032l-.703-.126c-.135.36-.458.544-.88.544-.637 0-1.064-.413-1.084-1.148h2.714v-.264c0-1.379-.825-1.919-1.69-1.919-1.064 0-1.765.81-1.765 1.984 0 1.185.691 1.961 1.817 1.961zm-1.074-2.319c.03-.542.423-1.012 1.027-1.012.577 0 .954.428.957 1.012h-1.984zm4.648 2.327c.632 0 .987-.321 1.129-.607h.03v.522h.725v-2.536c0-1.111-.875-1.332-1.481-1.332-.691 0-1.328.279-1.576.975l.698.159c.11-.271.388-.532.888-.532.48 0 .726.251.726.683v.018c0 .271-.279.266-.965.345-.723.085-1.464.274-1.464 1.141 0 .751.564 1.164 1.29 1.164zm.162-.597c-.42 0-.724-.189-.724-.557 0-.398.353-.539.783-.596.241-.033.813-.097.92-.204v.492c0 .452-.36.865-.979.865zm4.495-3.306h-.783v-.915h-.744v.915h-.559v.596h.559v2.255c-.002.694.527 1.029 1.114 1.017a1.44 1.44 0 00.482-.08l-.134-.614c-.05.01-.142.032-.261.032-.241 0-.457-.079-.457-.509v-2.101h.783v-.596zm3.24 2.235c.003.648-.479.957-.897.957-.46 0-.778-.334-.778-.853v-2.339h-.743v2.428c0 .948.519 1.44 1.253 1.44.574 0 .964-.304 1.141-.711h.039v.661h.731v-3.818h-.746v2.235zm1.745 1.583h.743v-2.332c0-.499.385-.86.912-.86.155 0 .329.028.388.045v-.711a2.994 2.994 0 00-.315-.017c-.448 0-.831.253-.97.663h-.04v-.606h-.718v3.818zm4.195.077c.833 0 1.422-.41 1.591-1.032l-.703-.126c-.134.36-.458.544-.88.544-.637 0-1.064-.413-1.084-1.148h2.714v-.264c0-1.379-.825-1.919-1.69-1.919-1.064 0-1.765.81-1.765 1.984 0 1.185.691 1.961 1.817 1.961zm-1.074-2.319c.03-.542.423-1.012 1.027-1.012.577 0 .955.428.957 1.012h-1.984zm6.398-.644c-.154-.594-.619-.982-1.444-.982-.863 0-1.474.455-1.474 1.131 0 .542.328.902 1.044 1.062l.646.141c.368.082.54.246.54.485 0 .296-.316.527-.803.527-.445 0-.731-.191-.821-.567l-.718.11c.124.676.686 1.056 1.544 1.056.922 0 1.561-.49 1.561-1.181 0-.539-.343-.872-1.044-1.034l-.607-.139c-.42-.099-.601-.241-.599-.5-.002-.293.316-.502.738-.502.463 0 .677.256.764.512l.673-.119zm3.572-2.205h-.768v5.091h.768v-5.091zm2.489 5.166c.696 0 .969-.426 1.103-.669h.062v.594h.726v-5.091h-.743v1.892h-.045c-.134-.236-.387-.669-1.098-.669-.923 0-1.601.728-1.601 1.966 0 1.236.668 1.977 1.596 1.977zm.164-.634c-.664 0-1.01-.584-1.01-1.35 0-.758.339-1.328 1.01-1.328.648 0 .996.53.996 1.328 0 .803-.355 1.35-.996 1.35zm4.434.636c.832 0 1.422-.41 1.591-1.032l-.704-.126c-.134.36-.457.544-.88.544-.636 0-1.064-.413-1.084-1.148h2.715v-.264c0-1.379-.825-1.919-1.69-1.919-1.064 0-1.765.81-1.765 1.984 0 1.185.691 1.961 1.817 1.961zm-1.074-2.319c.03-.542.422-1.012 1.026-1.012.577 0 .955.428.958 1.012h-1.984zm4.648 2.327c.631 0 .987-.321 1.128-.607h.03v.522h.726v-2.536c0-1.111-.875-1.332-1.482-1.332-.691 0-1.327.279-1.576.975l.699.159c.109-.271.388-.532.887-.532.48 0 .726.251.726.683v.018c0 .271-.278.266-.964.345-.724.085-1.464.274-1.464 1.141 0 .751.564 1.164 1.29 1.164zm.161-.597c-.42 0-.723-.189-.723-.557 0-.398.353-.539.783-.596.241-.033.813-.097.92-.204v.492c0 .452-.361.865-.98.865zm5.574-2.374c-.154-.594-.619-.982-1.444-.982-.863 0-1.474.455-1.474 1.131 0 .542.328.902 1.044 1.062l.646.141c.368.082.539.246.539.485 0 .296-.315.527-.802.527-.445 0-.731-.191-.821-.567l-.718.11c.124.676.686 1.056 1.544 1.056.922 0 1.561-.49 1.561-1.181 0-.539-.343-.872-1.044-1.034l-.607-.139c-.42-.099-.602-.241-.599-.5-.003-.293.316-.502.738-.502.463 0 .676.256.763.512l.674-.119zm12.799 1.954h2.544v.932h1.072v-.932h.657v-.898h-.657v-3.471h-1.403l-2.213 3.487v.882zm2.565-.898h-1.436v-.041l1.395-2.208h.041v2.249zm2.375.898h2.544v.932h1.071v-.932h.658v-.898h-.658v-3.471h-1.402l-2.213 3.487v.882zm2.565-.898h-1.437v-.041l1.395-2.208h.042v2.249z" fill="#171A22"/><rect x="307.499" y="96.061" width="13.384" height="13.384" rx="1.912" fill="#F51A38"/><path d="M313.539 101.693h1.074c-.015-.945-.792-1.597-1.972-1.597-1.162 0-2.013.642-2.008 1.605-.003.781.548 1.229 1.444 1.444l.577.145c.577.14.898.305.901.662-.003.389-.37.653-.94.653-.582 0-1.001-.27-1.038-.8h-1.084c.028 1.146.849 1.739 2.135 1.739 1.294 0 2.055-.619 2.058-1.589-.003-.883-.668-1.351-1.589-1.558l-.477-.114c-.46-.106-.846-.277-.838-.657 0-.342.303-.593.851-.593.536 0 .865.243.906.66zm4.018-.199h-.79v-.267c0-.269.109-.427.433-.427.131 0 .266.028.354.057l.194-.828a2.888 2.888 0 00-.779-.109c-.748 0-1.304.422-1.304 1.286v.288h-.562v.828h.562v3.147h1.102v-3.147h.79v-.828z" fill="#fff"/><path d="M200.028 104.678h1.951c1.184 0 1.718-.589 1.718-1.369 0-.788-.552-1.233-1.056-1.261v-.049c.467-.12.857-.438.857-1.074 0-.754-.522-1.338-1.606-1.338h-1.864v5.091zm.768-.659v-1.63h1.136c.617 0 1.002.398 1.002.882 0 .428-.291.748-1.029.748h-1.109zm0-2.229v-1.549h1.049c.609 0 .9.321.9.743 0 .493-.403.806-.92.806h-1.029zm4.864 2.973c.631 0 .986-.321 1.128-.607h.03v.522h.726v-2.535c0-1.111-.875-1.333-1.482-1.333-.691 0-1.327.279-1.576.975l.699.159c.109-.271.388-.532.887-.532.48 0 .726.251.726.683v.018c0 .271-.278.266-.964.345-.724.085-1.465.274-1.465 1.141 0 .751.565 1.164 1.291 1.164zm.161-.597c-.42 0-.723-.189-.723-.557 0-.397.353-.539.783-.596.241-.033.813-.097.92-.204v.492c0 .453-.361.865-.98.865zm4.321.589c.902 0 1.487-.542 1.569-1.285h-.724c-.094.413-.415.656-.84.656-.629 0-1.034-.524-1.034-1.357 0-.818.413-1.332 1.034-1.332.472 0 .761.298.84.656h.724c-.08-.771-.709-1.283-1.576-1.283-1.077 0-1.773.811-1.773 1.977 0 1.15.671 1.968 1.78 1.968zm2.364-.077h.743v-1.355l.37-.37 1.298 1.725h.912l-1.651-2.18 1.547-1.638h-.89l-1.522 1.616h-.064v-2.889h-.743v5.091zm4.639-5.09h-.743v5.09h.743v-5.09zm1 5.09h.743v-3.818h-.743v3.818zm.376-4.407c.256 0 .469-.199.469-.443 0-.243-.213-.445-.469-.445a.46.46 0 00-.47.445c0 .244.211.443.47.443zm2.111 2.14c0-.609.372-.957.889-.957.505 0 .811.331.811.885v2.339h.743v-2.428c0-.945-.519-1.44-1.3-1.44-.574 0-.95.266-1.126.671h-.047v-.621h-.714v3.818h.744v-2.267zm3.44 2.267h.743v-1.355l.371-.37 1.297 1.725h.912l-1.65-2.18 1.546-1.638h-.89l-1.521 1.616h-.065v-2.889h-.743v5.091zm6.758-2.886c-.155-.594-.619-.982-1.445-.982-.862 0-1.474.455-1.474 1.131 0 .542.328.903 1.044 1.062l.647.141c.367.083.539.247.539.485 0 .296-.316.527-.803.527-.445 0-.731-.191-.82-.567l-.719.11c.125.676.686 1.056 1.544 1.056.922 0 1.561-.489 1.561-1.18 0-.54-.343-.873-1.044-1.035l-.606-.139c-.421-.099-.602-.241-.6-.499-.002-.294.316-.503.739-.503.462 0 .676.256.763.513l.674-.12zm3.572-2.205h-.768v5.091h.768v-5.09zm2.488 5.166c.696 0 .969-.425 1.104-.669h.062v.594h.726v-5.09h-.744v1.891h-.044c-.135-.236-.388-.669-1.099-.669-.922 0-1.601.729-1.601 1.967 0 1.235.669 1.976 1.596 1.976zm.164-.634c-.664 0-1.009-.584-1.009-1.35 0-.758.338-1.327 1.009-1.327.649 0 .997.529.997 1.327 0 .803-.356 1.35-.997 1.35zm4.434.636c.833 0 1.422-.41 1.591-1.031l-.704-.127c-.134.36-.457.544-.88.544-.636 0-1.063-.412-1.083-1.148h2.714v-.264c0-1.379-.825-1.919-1.69-1.919-1.064 0-1.765.811-1.765 1.984 0 1.186.691 1.961 1.817 1.961zm-1.074-2.319c.03-.542.423-1.012 1.027-1.012.576 0 .954.428.957 1.012h-1.984zm4.648 2.327c.631 0 .987-.321 1.129-.607h.029v.522h.726v-2.535c0-1.111-.875-1.333-1.481-1.333-.691 0-1.328.279-1.576.975l.698.159c.11-.271.388-.532.888-.532.479 0 .725.251.725.683v.018c0 .271-.278.266-.964.345-.723.085-1.464.274-1.464 1.141 0 .751.564 1.164 1.29 1.164zm.162-.597c-.421 0-.724-.189-.724-.557 0-.397.353-.539.783-.596.241-.033.813-.097.92-.204v.492c0 .453-.36.865-.979.865zm5.573-2.374c-.154-.594-.619-.982-1.444-.982-.862 0-1.474.455-1.474 1.131 0 .542.328.903 1.044 1.062l.646.141c.368.083.54.247.54.485 0 .296-.316.527-.803.527-.445 0-.731-.191-.82-.567l-.719.11c.124.676.686 1.056 1.544 1.056.922 0 1.561-.489 1.561-1.18 0-.54-.343-.873-1.044-1.035l-.607-.139c-.42-.099-.601-.241-.599-.499-.002-.294.316-.503.739-.503.462 0 .676.256.763.513l.673-.12zm15.548-2.414h-1.053l-1.313.831v.993l1.214-.761h.031v4.237h1.121v-5.3zm1.469 5.3h1.157l2.2-4.371v-.93h-3.719v.917h2.56v.036l-2.198 4.348zm4.477 0h1.157l2.2-4.371v-.93h-3.719v.917h2.56v.036l-2.198 4.348z" fill="#171A22"/><rect x="180.348" y="95.27" width="13.384" height="13.384" rx="1.912" fill="#84D149"/><path d="M183.088 104.678h2.264c1.191 0 1.825-.621 1.825-1.465 0-.784-.562-1.257-1.165-1.286v-.052c.552-.124.958-.515.958-1.139 0-.794-.59-1.358-1.76-1.358h-2.122v5.3zm1.12-.916v-1.408h.94c.538 0 .872.311.872.748 0 .399-.272.66-.898.66h-.914zm0-2.166v-1.312h.852c.497 0 .779.256.779.639 0 .419-.342.673-.8.673h-.831zm4.811 3.157c.588 0 .968-.256 1.162-.626h.031v.551h1.046v-2.681c0-.947-.802-1.346-1.688-1.346-.952 0-1.578.456-1.731 1.18l1.02.083c.075-.264.31-.458.706-.458.375 0 .59.189.59.515v.016c0 .256-.271.289-.963.357-.786.072-1.493.336-1.493 1.224 0 .787.562 1.185 1.32 1.185zm.316-.761c-.339 0-.582-.158-.582-.46 0-.311.256-.464.644-.518.241-.034.634-.091.766-.179v.422c0 .417-.344.735-.828.735z" fill="#fff"/><path d="M326.904 121.552h1.586v4.43h.766v-4.43h1.588v-.661h-3.94v.661zm5.843 4.507c.833 0 1.422-.41 1.591-1.031l-.703-.127c-.135.36-.458.544-.88.544-.637 0-1.064-.412-1.084-1.148h2.714v-.264c0-1.379-.825-1.919-1.69-1.919-1.064 0-1.765.811-1.765 1.984 0 1.186.691 1.961 1.817 1.961zm-1.074-2.319c.03-.542.423-1.012 1.027-1.012.577 0 .955.428.957 1.012h-1.984zm5.145 2.319c.903 0 1.487-.542 1.569-1.285h-.723c-.095.413-.416.656-.841.656-.629 0-1.034-.524-1.034-1.357 0-.818.413-1.332 1.034-1.332.473 0 .761.298.841.656h.723c-.08-.771-.709-1.283-1.576-1.283-1.076 0-1.772.811-1.772 1.976 0 1.151.671 1.969 1.779 1.969zm3.107-2.344c0-.609.385-.957.915-.957.512 0 .818.326.818.885v2.339h.743v-2.428c0-.953-.522-1.44-1.308-1.44-.594 0-.952.259-1.131.671h-.047v-1.894h-.733v5.091h.743v-2.267zm4.211 0c0-.609.373-.957.89-.957.504 0 .81.331.81.885v2.339h.744v-2.428c0-.945-.52-1.44-1.301-1.44-.574 0-.949.266-1.126.671h-.047v-.621h-.713v3.818h.743v-2.267zm3.44 2.267h.744v-3.818h-.744v3.818zm.376-4.407c.256 0 .469-.199.469-.443 0-.243-.213-.445-.469-.445a.46.46 0 00-.47.445c0 .244.211.443.47.443zm2.976 4.484c.902 0 1.486-.542 1.568-1.285h-.723c-.095.413-.415.656-.84.656-.629 0-1.034-.524-1.034-1.357 0-.818.412-1.332 1.034-1.332.472 0 .76.298.84.656h.723c-.079-.771-.708-1.283-1.576-1.283-1.076 0-1.772.811-1.772 1.976 0 1.151.671 1.969 1.78 1.969zm3.474.008c.632 0 .987-.321 1.129-.607h.03v.522h.726v-2.535c0-1.111-.875-1.333-1.482-1.333-.691 0-1.327.279-1.576.975l.699.159c.109-.271.387-.532.887-.532.48 0 .726.251.726.683v.018c0 .271-.279.266-.965.345-.723.085-1.464.274-1.464 1.141 0 .751.564 1.164 1.29 1.164zm.162-.597c-.42 0-.723-.189-.723-.557 0-.397.352-.539.783-.596.241-.033.812-.097.919-.204v.492c0 .452-.36.865-.979.865zm3.456-4.579h-.743v5.091h.743v-5.091zm5.688 1.338h.741c-.022-.816-.743-1.407-1.777-1.407-1.022 0-1.805.584-1.805 1.461 0 .709.507 1.124 1.325 1.345l.602.164c.544.144.964.323.964.776 0 .497-.475.825-1.128.825-.592 0-1.084-.263-1.129-.818h-.77c.049.922.763 1.492 1.904 1.492 1.195 0 1.884-.629 1.884-1.492 0-.917-.818-1.273-1.464-1.432l-.497-.129c-.398-.102-.928-.288-.925-.775 0-.433.395-.754 1.022-.754.584 0 .999.274 1.053.744zm1.729 3.753h3.221v-.661h-2.453v-1.559h2.257v-.658h-2.257v-1.552h2.424v-.661h-3.192v5.091zm8.64-2.545c0-1.628-.975-2.615-2.292-2.615-1.323 0-2.295.987-2.295 2.615 0 1.625.972 2.615 2.295 2.615 1.317 0 2.292-.987 2.292-2.615zm-.761 0c0 1.24-.656 1.914-1.531 1.914-.878 0-1.531-.674-1.531-1.914 0-1.241.653-1.914 1.531-1.914.875 0 1.531.673 1.531 1.914zm4.339-2.546h-.768v5.091h.768v-5.091zm2.488 5.166c.696 0 .97-.425 1.104-.669h.062v.594h.726v-5.091h-.743v1.892h-.045c-.134-.236-.388-.669-1.099-.669-.922 0-1.601.729-1.601 1.967 0 1.235.669 1.976 1.596 1.976zm.164-.634c-.663 0-1.009-.584-1.009-1.35 0-.758.338-1.327 1.009-1.327.649 0 .997.529.997 1.327 0 .803-.355 1.35-.997 1.35zm4.434.636c.833 0 1.422-.41 1.591-1.031l-.703-.127c-.134.36-.458.544-.88.544-.636 0-1.064-.412-1.084-1.148h2.715v-.264c0-1.379-.826-1.919-1.691-1.919-1.064 0-1.765.811-1.765 1.984 0 1.186.691 1.961 1.817 1.961zm-1.073-2.319c.029-.542.422-1.012 1.026-1.012.577 0 .955.428.957 1.012h-1.983zm4.647 2.327c.632 0 .987-.321 1.129-.607h.03v.522h.726v-2.535c0-1.111-.875-1.333-1.482-1.333-.691 0-1.327.279-1.576.975l.699.159c.109-.271.387-.532.887-.532.48 0 .726.251.726.683v.018c0 .271-.279.266-.965.345-.723.085-1.464.274-1.464 1.141 0 .751.565 1.164 1.29 1.164zm.162-.597c-.42 0-.723-.189-.723-.557 0-.397.353-.539.783-.596.241-.033.812-.097.919-.204v.492c0 .452-.36.865-.979.865zm5.574-2.374c-.154-.594-.619-.982-1.445-.982-.862 0-1.474.455-1.474 1.131 0 .542.329.903 1.044 1.062l.647.141c.368.082.539.247.539.485 0 .296-.316.527-.803.527-.445 0-.731-.191-.82-.567l-.718.11c.124.676.686 1.056 1.543 1.056.922 0 1.561-.489 1.561-1.181 0-.539-.343-.872-1.044-1.034l-.606-.139c-.42-.099-.602-.241-.599-.499-.003-.294.315-.503.738-.503.462 0 .676.256.763.512l.674-.119zm15.261 2.959c1.196 0 2.055-.64 2.058-1.499-.003-.662-.513-1.203-1.149-1.309v-.037c.554-.114.95-.592.952-1.175-.002-.82-.789-1.426-1.861-1.426-1.074 0-1.861.606-1.858 1.426-.003.58.388 1.061.952 1.175v.037c-.647.106-1.151.647-1.149 1.309-.002.859.86 1.499 2.055 1.499zm0-.823c-.533 0-.89-.316-.89-.764 0-.458.375-.789.89-.789.513 0 .891.331.891.789 0 .45-.36.764-.891.764zm0-2.369c-.447 0-.766-.292-.766-.711 0-.414.313-.699.766-.699.451 0 .766.287.766.699 0 .419-.321.711-.766.711zm2.761 2.187h2.544v.932h1.072v-.932h.657v-.898h-.657v-3.47h-1.403l-2.213 3.486v.882zm2.565-.898h-1.436v-.041l1.395-2.208h.041v2.249z" fill="#171A22"/><rect x="307.499" y="116.574" width="13.384" height="13.384" rx="1.912" fill="#FFC200"/><path d="M310.212 121.606h1.622v4.376h1.108v-4.376h1.623v-.924h-4.353v.924zm6.284 4.454c.984 0 1.646-.479 1.802-1.217l-1.02-.067c-.111.303-.396.461-.764.461-.551 0-.9-.365-.9-.958v-.002h2.707v-.303c0-1.351-.818-2.019-1.869-2.019-1.17 0-1.928.831-1.928 2.058 0 1.26.748 2.047 1.972 2.047zm-.882-2.467a.839.839 0 01.856-.815c.479 0 .81.342.813.815h-1.669z" fill="#fff"/><path d="M202.805 121.438h.74c-.022-.815-.743-1.407-1.777-1.407-1.022 0-1.805.584-1.805 1.462 0 .708.508 1.123 1.325 1.344l.602.164c.544.145.964.324.964.776 0 .497-.474.825-1.128.825-.592 0-1.084-.263-1.129-.818h-.77c.049.923.763 1.492 1.904 1.492 1.195 0 1.884-.629 1.884-1.492 0-.917-.818-1.272-1.464-1.431l-.497-.13c-.398-.102-.927-.288-.925-.775 0-.433.395-.753 1.022-.753.584 0 .999.273 1.054.743zm3.314 3.83c.833 0 1.422-.41 1.591-1.031l-.704-.127c-.134.361-.457.544-.88.544-.636 0-1.064-.412-1.083-1.148h2.714v-.263c0-1.38-.825-1.919-1.69-1.919-1.064 0-1.765.81-1.765 1.983 0 1.186.691 1.961 1.817 1.961zm-1.074-2.319c.03-.542.423-1.011 1.027-1.011.576 0 .954.427.957 1.011h-1.984zm3.537 2.242h.743v-2.354c0-.514.36-.872.783-.872.413 0 .698.273.698.688v2.538h.741v-2.433c0-.46.281-.793.766-.793.393 0 .716.219.716.736v2.49h.743v-2.56c0-.872-.487-1.307-1.178-1.307-.55 0-.962.263-1.146.671h-.04c-.167-.418-.517-.671-1.027-.671-.504 0-.88.251-1.039.671h-.047v-.622h-.713v3.818zm7.297.085c.632 0 .987-.321 1.129-.607h.03v.522h.726v-2.535c0-1.111-.875-1.332-1.482-1.332-.691 0-1.327.278-1.576.974l.699.159c.109-.271.387-.532.887-.532.48 0 .726.251.726.684v.017c0 .271-.279.266-.965.346-.723.084-1.464.273-1.464 1.141 0 .75.564 1.163 1.29 1.163zm.162-.597c-.42 0-.723-.189-.723-.556 0-.398.353-.54.783-.597.241-.032.812-.097.919-.204v.492c0 .453-.36.865-.979.865zm3.456-1.755c0-.609.373-.957.89-.957.504 0 .81.331.81.885v2.339h.743v-2.428c0-.945-.519-1.439-1.3-1.439-.574 0-.949.265-1.126.671h-.047v-.622h-.713v3.818h.743v-2.267zm5.222-1.551h-.783v-.915h-.743v.915h-.559v.597h.559v2.254c-.002.694.527 1.03 1.114 1.017.236-.002.395-.047.482-.079l-.134-.614c-.05.01-.142.032-.261.032-.241 0-.458-.08-.458-.51v-2.1h.783v-.597zm.823 3.818h.743v-3.818h-.743v3.818zm.375-4.407c.256 0 .47-.199.47-.442 0-.244-.214-.445-.47-.445a.46.46 0 00-.47.445c0 .243.211.442.47.442zm2.976 4.484c.902 0 1.487-.541 1.569-1.285h-.724c-.094.413-.415.657-.84.657-.629 0-1.034-.525-1.034-1.358 0-.818.413-1.332 1.034-1.332.472 0 .761.298.84.656h.724c-.08-.77-.709-1.282-1.576-1.282-1.077 0-1.773.81-1.773 1.976 0 1.151.671 1.968 1.78 1.968zm5.044-5.168h-.768v5.091h.768V120.1zm2.488 5.166c.696 0 .97-.425 1.104-.669h.062v.594h.726V120.1h-.743v1.892h-.045c-.134-.236-.388-.668-1.099-.668-.922 0-1.601.728-1.601 1.966 0 1.235.669 1.976 1.596 1.976zm.164-.634c-.664 0-1.009-.584-1.009-1.35 0-.758.338-1.327 1.009-1.327.649 0 .997.529.997 1.327 0 .803-.356 1.35-.997 1.35zm4.434.636c.833 0 1.422-.41 1.591-1.031l-.703-.127c-.135.361-.458.544-.88.544-.637 0-1.064-.412-1.084-1.148h2.714v-.263c0-1.38-.825-1.919-1.69-1.919-1.064 0-1.765.81-1.765 1.983 0 1.186.691 1.961 1.817 1.961zm-1.074-2.319c.03-.542.423-1.011 1.027-1.011.577 0 .954.427.957 1.011h-1.984zm4.648 2.327c.632 0 .987-.321 1.129-.607h.03v.522h.725v-2.535c0-1.111-.875-1.332-1.481-1.332-.691 0-1.328.278-1.576.974l.698.159c.11-.271.388-.532.888-.532.48 0 .726.251.726.684v.017c0 .271-.279.266-.965.346-.723.084-1.464.273-1.464 1.141 0 .75.564 1.163 1.29 1.163zm.162-.597c-.42 0-.724-.189-.724-.556 0-.398.353-.54.783-.597.241-.032.813-.097.92-.204v.492c0 .453-.36.865-.979.865zm5.573-2.374c-.154-.594-.618-.981-1.444-.981-.862 0-1.474.454-1.474 1.131 0 .541.328.902 1.044 1.061l.646.142c.368.082.54.246.54.484 0 .296-.316.527-.803.527-.445 0-.731-.191-.82-.566l-.719.109c.125.676.686 1.056 1.544 1.056.922 0 1.561-.489 1.561-1.18 0-.54-.343-.873-1.044-1.034l-.607-.14c-.42-.099-.601-.241-.599-.499-.002-.294.316-.502.739-.502.462 0 .676.256.763.512l.673-.12zm16.453-2.414h-1.053l-1.313.831v.994l1.214-.761h.031v4.236h1.121v-5.3zm3.196 5.373c1.18 0 1.982-.769 1.98-1.84.002-1.015-.707-1.745-1.662-1.745-.466 0-.867.194-1.053.456h-.031l.137-1.328h2.316v-.916h-3.24l-.251 2.795.996.179c.163-.22.479-.357.792-.357.533.002.916.388.916.944 0 .551-.375.932-.9.932-.446 0-.805-.28-.831-.691h-1.087c.021.916.82 1.571 1.918 1.571zm2.971-.073h1.157l2.2-4.371v-.929h-3.72v.916h2.56v.036l-2.197 4.348z" fill="#171A22"/><rect x="180.348" y="115.784" width="13.384" height="13.384" rx="1.912" fill="#FF642D"/><path d="M185.935 121.415h1.074c-.015-.944-.792-1.597-1.972-1.597-1.162 0-2.013.642-2.008 1.605-.003.782.548 1.229 1.444 1.444l.577.145c.577.14.898.306.901.663-.003.388-.37.652-.94.652-.582 0-1.001-.269-1.038-.8h-1.084c.028 1.147.849 1.739 2.135 1.739 1.294 0 2.055-.618 2.058-1.589-.003-.882-.668-1.351-1.589-1.558l-.477-.114c-.46-.106-.846-.277-.838-.657 0-.342.303-.593.851-.593.536 0 .865.244.906.66zm3.692 3.854c.983 0 1.646-.479 1.801-1.216l-1.02-.068c-.111.303-.396.461-.763.461-.552 0-.901-.365-.901-.958v-.002h2.707v-.303c0-1.351-.818-2.019-1.868-2.019-1.17 0-1.929.831-1.929 2.058 0 1.26.748 2.047 1.973 2.047zm-.883-2.466a.84.84 0 01.857-.816c.478 0 .81.342.812.816h-1.669z" fill="#fff"/><path d="M331.384 80.73c-.174-1.09-1.027-1.726-2.103-1.726-1.318 0-2.29.987-2.29 2.616 0 1.628.967 2.615 2.29 2.615 1.118 0 1.936-.701 2.103-1.708l-.776-.003c-.131.652-.678 1.01-1.322 1.01-.873 0-1.531-.669-1.531-1.914 0-1.236.656-1.915 1.533-1.915.649 0 1.193.366 1.32 1.025h.776zm2.468 3.512c1.076 0 1.779-.788 1.779-1.969 0-1.188-.703-1.976-1.779-1.976-1.077 0-1.78.788-1.78 1.976 0 1.181.703 1.97 1.78 1.97zm.002-.624c-.703 0-1.032-.614-1.032-1.347 0-.731.329-1.352 1.032-1.352.699 0 1.027.621 1.027 1.352 0 .733-.328 1.347-1.027 1.347zm3.35-1.72c0-.609.373-.957.89-.957.505 0 .811.33.811.885v2.339h.743v-2.429c0-.944-.52-1.439-1.3-1.439-.574 0-.95.266-1.126.671h-.048v-.621h-.713v3.818h.743v-2.267zm5.223-1.551h-.783v-.915h-.743v.915h-.56v.596h.56v2.255c-.003.694.527 1.03 1.113 1.017a1.43 1.43 0 00.483-.08l-.135-.614c-.049.01-.141.032-.261.032-.241 0-.457-.079-.457-.51v-2.1h.783v-.596zm2.427 3.895c.832 0 1.422-.41 1.591-1.032l-.704-.126c-.134.36-.457.544-.88.544-.636 0-1.064-.412-1.084-1.148h2.715v-.264c0-1.38-.825-1.919-1.69-1.919-1.064 0-1.765.81-1.765 1.984 0 1.185.691 1.961 1.817 1.961zm-1.074-2.32c.03-.541.422-1.01 1.027-1.01.576 0 .954.427.957 1.01h-1.984zm4.28-.024c0-.609.373-.957.89-.957.504 0 .81.33.81.885v2.339h.743v-2.429c0-.944-.519-1.439-1.3-1.439-.574 0-.949.266-1.126.671h-.047v-.621h-.713v3.818h.743v-2.267zm5.222-1.551h-.783v-.915h-.743v.915h-.559v.596h.559v2.255c-.002.694.527 1.03 1.114 1.017.236-.003.395-.047.482-.08l-.134-.614c-.05.01-.142.032-.261.032-.241 0-.458-.079-.458-.51v-2.1h.783v-.596zm3.503-1.273h-.768v5.091h.768v-5.09zm2.488 5.166c.696 0 .97-.425 1.104-.67h.062v.595h.726v-5.09h-.743v1.89h-.045c-.134-.235-.388-.668-1.099-.668-.922 0-1.601.728-1.601 1.966 0 1.236.669 1.977 1.596 1.977zm.164-.634c-.663 0-1.009-.584-1.009-1.35 0-.758.338-1.328 1.009-1.328.649 0 .997.53.997 1.328 0 .803-.355 1.35-.997 1.35zm4.434.636c.833 0 1.422-.41 1.591-1.032l-.703-.126c-.134.36-.458.544-.88.544-.637 0-1.064-.412-1.084-1.148h2.714v-.264c0-1.38-.825-1.919-1.69-1.919-1.064 0-1.765.81-1.765 1.984 0 1.185.691 1.961 1.817 1.961zm-1.074-2.32c.03-.541.423-1.01 1.027-1.01.577 0 .955.427.957 1.01h-1.984zm4.648 2.328c.632 0 .987-.321 1.129-.607h.03v.522h.726v-2.536c0-1.11-.875-1.332-1.482-1.332-.691 0-1.327.279-1.576.975l.698.159c.11-.271.388-.532.888-.532.48 0 .726.25.726.683v.018c0 .27-.279.266-.965.345-.723.085-1.464.274-1.464 1.141 0 .75.564 1.164 1.29 1.164zm.162-.597c-.42 0-.724-.189-.724-.557 0-.398.353-.54.784-.596.241-.033.812-.097.919-.204v.492c0 .452-.36.865-.979.865zm5.574-2.374c-.154-.594-.619-.982-1.445-.982-.862 0-1.474.455-1.474 1.131 0 .542.328.903 1.044 1.062l.647.141c.368.082.539.246.539.485 0 .296-.316.527-.803.527-.445 0-.731-.191-.82-.567l-.719.11c.125.676.687 1.056 1.544 1.056.922 0 1.561-.49 1.561-1.18 0-.54-.343-.873-1.044-1.035l-.606-.139c-.42-.1-.602-.241-.599-.5-.003-.293.315-.502.738-.502.462 0 .676.256.763.512l.674-.119zm30.052 1.954h2.544v.932h1.071v-.932h.658v-.898h-.658v-3.47h-1.402l-2.213 3.486v.882zm2.565-.898h-1.437v-.041l1.395-2.208h.042v2.25zm2.374.898h2.544v.932h1.072v-.932h.657v-.898h-.657v-3.47h-1.403l-2.213 3.486v.882zm2.565-.898h-1.436v-.041l1.395-2.208h.041v2.25zm2.455 1.83h3.779v-.916h-2.226v-.036l.774-.759c1.089-.994 1.382-1.49 1.382-2.093 0-.92-.751-1.569-1.887-1.569-1.113 0-1.876.665-1.874 1.706h1.064c-.003-.508.318-.818.802-.818.466 0 .813.29.813.755 0 .422-.259.712-.74 1.175l-1.887 1.748v.807z" fill="#171A22"/><rect x="307.499" y="74.757" width="13.384" height="13.384" rx="1.912" fill="#00BA96"/><path d="M314.159 80.72c-.148-1.224-1.074-1.928-2.301-1.928-1.4 0-2.469.989-2.469 2.723 0 1.729 1.051 2.722 2.469 2.722 1.359 0 2.179-.903 2.301-1.878l-1.134-.006c-.106.567-.551.893-1.149.893-.805 0-1.351-.598-1.351-1.731 0-1.103.538-1.732 1.359-1.732.613 0 1.056.355 1.141.937h1.134zm2.579 3.523c1.206 0 1.956-.826 1.956-2.05 0-1.232-.75-2.055-1.956-2.055s-1.957.823-1.957 2.055c0 1.224.751 2.05 1.957 2.05zm.005-.854c-.556 0-.841-.51-.841-1.204s.285-1.206.841-1.206c.546 0 .831.513.831 1.206 0 .694-.285 1.204-.831 1.204z" fill="#fff"/><path fill="#E9EBEF" d="M180 255h237v22H180z"/><path fill="#00A8FF" d="M180 255h224v22H180z"/><path fill="#FF622D" d="M180 255h72v22h-72z"/><path fill="#F51A38" d="M180 255h9v22h-9z"/><path fill="#84D149" d="M180 255h5v22h-5z"/><mask id="a" maskUnits="userSpaceOnUse" x="38" y="235" width="122" height="72"><path fill="#C4C4C4" d="M38 235h121.348v72H38z"/></mask><g mask="url(#a)"><path d="M154.494 293.247c0 30.829-24.992 55.82-55.82 55.82-30.829 0-55.82-24.991-55.82-55.82 0-30.828 24.991-55.82 55.82-55.82 30.828 0 55.82 24.992 55.82 55.82zm-90.987 0c0 19.422 15.745 35.167 35.167 35.167 19.422 0 35.166-15.745 35.166-35.167 0-19.422-15.744-35.167-35.166-35.167-19.422 0-35.167 15.745-35.167 35.167z" fill="#E9EBEF"/><path d="M124.481 243.751a55.818 55.818 0 00-77.473 28.364 55.82 55.82 0 0035.388 74.526l6.023-19.755a35.174 35.174 0 01-24.899-32.671 35.163 35.163 0 0123.063-33.991 35.16 35.16 0 0128.349 1.84l9.549-18.313z" fill="#00A8FF"/></g><path d="M86.952 289.211c3.077.014 5.175-2.004 5.168-4.817.007-2.591-1.801-4.46-4.25-4.46-1.518 0-2.861.729-3.482 1.95h-.094c.013-2.692.958-4.365 2.76-4.365 1.059 0 1.821.58 2.044 1.545h2.88c-.276-2.274-2.165-4.049-4.925-4.049-3.414 0-5.607 2.767-5.62 7.409-.007 5.06 2.679 6.774 5.52 6.787zm-.013-2.294c-1.35 0-2.348-1.086-2.348-2.435.006-1.343 1.025-2.436 2.368-2.436 1.35 0 2.334 1.059 2.328 2.429.006 1.383-.999 2.442-2.348 2.442zm13.265-11.713h-2.747l-3.42 2.166v2.591l3.164-1.984h.081v11.045h2.922v-13.818zm10.847 11.228c.007 1.659 1.066 3.07 3.043 3.07 1.957 0 3.05-1.411 3.043-3.07v-.729c.007-1.673-1.059-3.07-3.043-3.07-1.95 0-3.036 1.41-3.043 3.07v.729zm-7.091-7.908c.007 1.66 1.066 3.056 3.036 3.056 1.964 0 3.057-1.383 3.05-3.056v-.729c.007-1.673-1.059-3.07-3.05-3.07-1.929 0-3.029 1.397-3.036 3.07v.729zm.661 10.498h1.761l9.5-13.818h-1.761l-9.5 13.818zm8.394-3.319c.006-.661.27-1.343 1.079-1.343.85 0 1.073.682 1.066 1.343v.729c.007.661-.243 1.329-1.066 1.329-.823 0-1.073-.688-1.079-1.329v-.729zm-7.078-7.908c.007-.641.256-1.342 1.059-1.342.85 0 1.08.681 1.073 1.342v.729c.007.661-.25 1.329-1.073 1.329-.796 0-1.052-.668-1.059-1.329v-.729z" fill="#3E424B"/><path d="M80.356 298.809c0-.609.372-.958.889-.959.504-.001.81.33.812.884l.003 2.339.743-.001-.003-2.429c-.002-.944-.522-1.438-1.302-1.437-.575.001-.95.267-1.126.673h-.047v-.622l-.714.002.005 3.818.744-.001-.004-2.267zm5.053 2.336c1.076-.001 1.778-.79 1.776-1.971-.001-1.188-.706-1.975-1.782-1.974-1.077.002-1.779.791-1.777 1.979.001 1.181.706 1.968 1.782 1.966zm.001-.624c-.703.001-1.032-.612-1.034-1.346 0-.73.327-1.352 1.03-1.353.699-.001 1.028.62 1.029 1.35 0 .734-.326 1.348-1.025 1.349zm6.069.615c.902-.001 1.486-.544 1.567-1.287l-.724.001c-.094.412-.414.657-.84.657-.628.001-1.034-.523-1.035-1.355-.001-.818.41-1.333 1.032-1.334.472-.001.761.297.841.655l.723-.002c-.08-.77-.71-1.281-1.578-1.28-1.076.002-1.77.813-1.769 1.979.002 1.151.674 1.968 1.783 1.966zm3.103-2.349c0-.609.384-.957.913-.958.512-.001.819.324.82.884l.003 2.339.743-.001-.003-2.429c-.002-.952-.525-1.438-1.31-1.437-.594.001-.952.26-1.13.673h-.047l-.003-1.894-.733.001.007 5.091.743-.002-.003-2.267zm4.582 2.345c.632-.001.987-.322 1.128-.608h.03l.001.522.725-.001-.003-2.536c-.002-1.111-.877-1.331-1.484-1.33-.69.001-1.327.28-1.574.977l.698.158c.11-.271.387-.533.887-.533.48-.001.726.25.727.682v.018c0 .271-.278.266-.964.347-.723.085-1.464.275-1.462 1.143 0 .75.566 1.162 1.291 1.161zm.161-.597c-.42.001-.724-.188-.724-.555 0-.398.352-.54.782-.598.241-.033.813-.098.919-.205l.001.492c.001.452-.359.865-.978.866zm3.453-1.76c-.001-.609.372-.957.889-.958.504-.001.811.329.811.884l.004 2.339.743-.001-.003-2.429c-.002-.945-.522-1.439-1.303-1.437-.574 0-.949.267-1.125.672l-.047.001-.001-.622-.713.001.005 3.818.744-.001-.004-2.267zm5.047 3.771c.972-.001 1.722-.447 1.721-1.429l-.006-3.903-.729.001.001.619h-.054c-.132-.236-.397-.668-1.107-.667-.923.001-1.6.731-1.598 1.946.001 1.218.696 1.866 1.598 1.865.701-.001.972-.397 1.105-.641h.048l.001.751c.001.599-.409.858-.973.859-.619.001-.861-.309-.993-.528l-.638.264c.202.467.712.864 1.624.863zm-.011-2.185c-.663.001-1.01-.508-1.011-1.259-.001-.733.336-1.303 1.008-1.304.648-.001.997.528.998 1.301.001.788-.353 1.261-.995 1.262zm4.374.744c.833-.001 1.421-.412 1.589-1.034l-.703-.125c-.134.36-.457.545-.879.545-.637.001-1.065-.411-1.086-1.147l2.715-.004-.001-.263c-.002-1.38-.828-1.918-1.693-1.917-1.064.002-1.764.813-1.762 1.987.002 1.185.694 1.96 1.82 1.958zm-1.077-2.317c.029-.542.421-1.013 1.025-1.014.577 0 .955.427.958 1.011l-1.983.003zm6.397-.654c-.155-.594-.621-.981-1.446-.979-.863.001-1.474.457-1.473 1.133.001.542.33.902 1.046 1.06l.647.14c.368.082.539.246.54.484 0 .296-.315.528-.802.528-.445.001-.732-.19-.822-.565l-.718.11c.126.676.688 1.056 1.545 1.055.923-.002 1.561-.492 1.56-1.184-.001-.539-.345-.872-1.046-1.032l-.607-.138c-.42-.099-.601-.241-.599-.499-.003-.293.315-.503.737-.503.463-.001.677.255.764.511l.674-.121z" fill="#898D9A"/><path d="M43.617 332h3.112v-.547h-2.496v-1.73h2.297v-.547h-2.297v-1.72h2.456v-.547h-3.072V332zm4.104 0h.586v-2.416c0-.517.408-.895.965-.895.156 0 .318.03.358.04v-.597a5.605 5.605 0 00-.309-.01c-.457 0-.855.259-.994.637h-.04v-.577h-.566V332zm2.604 0h.587v-2.416c0-.517.407-.895.964-.895.157 0 .318.03.358.04v-.597a5.605 5.605 0 00-.308-.01c-.458 0-.855.259-.994.637h-.04v-.577h-.567V332zm4.04.08c1.033 0 1.73-.786 1.73-1.969 0-1.193-.697-1.979-1.73-1.979-1.035 0-1.73.786-1.73 1.979 0 1.183.695 1.969 1.73 1.969zm0-.527c-.786 0-1.144-.677-1.144-1.442 0-.766.358-1.452 1.143-1.452.786 0 1.144.686 1.144 1.452 0 .765-.358 1.442-1.144 1.442zm2.625.447h.587v-2.416c0-.517.407-.895.964-.895.157 0 .318.03.358.04v-.597a5.605 5.605 0 00-.308-.01c-.458 0-.855.259-.994.637h-.04v-.577h-.567V332zm5.31-2.963c-.185-.542-.597-.905-1.353-.905-.806 0-1.402.457-1.402 1.104 0 .527.313.88 1.014 1.044l.636.149c.386.089.567.273.567.537 0 .328-.348.596-.895.596-.48 0-.78-.206-.885-.616l-.556.139c.136.649.67.995 1.451.995.888 0 1.492-.485 1.492-1.144 0-.532-.333-.867-1.014-1.034l-.567-.139c-.453-.112-.656-.264-.656-.557 0-.328.348-.567.815-.567.512 0 .723.284.825.547l.527-.149zM104.541 332h.637l1.123-4.057h.04l1.123 4.057h.637l1.392-5.091h-.627l-1.063 4.146h-.05l-1.084-4.146h-.696l-1.084 4.146h-.05l-1.063-4.146h-.627l1.392 5.091zm6.409.089c.666 0 1.014-.357 1.133-.606h.03V332h.587v-2.516c0-1.213-.925-1.352-1.412-1.352-.577 0-1.233.199-1.532.895l.557.199c.129-.279.435-.577.995-.577.539 0 .805.286.805.776v.02c0 .283-.288.258-.984.348-.709.092-1.482.248-1.482 1.123 0 .746.577 1.173 1.303 1.173zm.089-.527c-.467 0-.805-.208-.805-.616 0-.447.407-.587.865-.646.248-.03.914-.1 1.014-.219v.537c0 .477-.378.944-1.074.944zm2.731.438h.587v-2.416c0-.517.408-.895.964-.895.157 0 .319.03.358.04v-.597a5.594 5.594 0 00-.308-.01c-.457 0-.855.259-.994.637h-.04v-.577h-.567V332zm3.191-2.297c0-.666.413-1.044.975-1.044.544 0 .875.356.875.955V332h.587v-2.426c0-.975-.52-1.442-1.293-1.442-.577 0-.935.259-1.114.646h-.049v-.596h-.567V332h.586v-2.297zM120.47 332h.586v-3.818h-.586V332zm.298-4.455a.409.409 0 00.417-.397.41.41 0 00-.417-.398.41.41 0 00-.418.398.41.41 0 00.418.397zm1.949 2.158c0-.666.413-1.044.975-1.044.544 0 .875.356.875.955V332h.586v-2.426c0-.975-.519-1.442-1.292-1.442-.577 0-.935.259-1.114.646h-.05v-.596h-.566V332h.586v-2.297zm5.05 3.808c.914 0 1.65-.417 1.65-1.402v-3.927h-.567v.606h-.059c-.13-.199-.368-.656-1.114-.656-.964 0-1.631.766-1.631 1.939 0 1.193.696 1.869 1.621 1.869.746 0 .985-.437 1.114-.646h.05v.776c0 .636-.448.924-1.064.924-.694 0-.938-.365-1.094-.576l-.467.328c.238.4.708.765 1.561.765zm-.02-2.098c-.736 0-1.114-.556-1.114-1.352 0-.775.368-1.402 1.114-1.402.716 0 1.093.577 1.093 1.402 0 .845-.387 1.352-1.093 1.352zm5.449-2.376c-.184-.542-.597-.905-1.353-.905-.805 0-1.402.457-1.402 1.104 0 .527.314.88 1.015 1.044l.636.149c.385.089.567.273.567.537 0 .328-.348.596-.895.596-.48 0-.781-.206-.885-.616l-.557.139c.137.649.671.995 1.452.995.887 0 1.491-.485 1.491-1.144 0-.532-.333-.867-1.014-1.034l-.567-.139c-.452-.112-.656-.264-.656-.557 0-.328.348-.567.815-.567.512 0 .724.284.826.547l.527-.149z" fill="#171A22"/><path d="M50.132 339.182h-2.746l-3.421 2.166v2.591l3.164-1.984h.081V353h2.922v-13.818zM53.416 353h9.85v-2.388h-5.802v-.095l2.018-1.977c2.84-2.591 3.603-3.886 3.603-5.458 0-2.396-1.957-4.089-4.92-4.089-2.9 0-4.89 1.734-4.884 4.446h2.773c-.007-1.322.83-2.132 2.092-2.132 1.214 0 2.118.756 2.118 1.97 0 1.1-.674 1.856-1.93 3.064l-4.918 4.554V353zm17.075.189c3.104 0 5.324-1.707 5.317-4.069.007-1.72-1.086-2.948-3.117-3.205v-.107c1.545-.277 2.611-1.37 2.604-2.922.007-2.179-1.902-3.893-4.763-3.893-2.834 0-4.966 1.66-5.007 4.048h2.8c.034-1.052.999-1.734 2.193-1.734 1.181 0 1.97.715 1.964 1.754.007 1.087-.918 1.822-2.247 1.822h-1.289v2.146h1.289c1.565 0 2.544.782 2.537 1.896.007 1.1-.938 1.855-2.274 1.855-1.289 0-2.254-.675-2.308-1.687h-2.94c.047 2.416 2.206 4.096 5.242 4.096zm7.964-.189h3.016l5.735-11.396v-2.422H77.51v2.388h6.673v.095L78.455 353z" fill="#F51A38"/><path d="M110.132 339.182h-2.746l-3.421 2.166v2.591l3.164-1.984h.081V353h2.922v-13.818zm9.296 0h-2.746l-3.421 2.166v2.591l3.164-1.984h.081V353h2.922v-13.818zm8.391 14.007c3.104 0 5.324-1.707 5.317-4.069.007-1.72-1.086-2.948-3.117-3.205v-.107c1.545-.277 2.611-1.37 2.604-2.922.007-2.179-1.902-3.893-4.763-3.893-2.834 0-4.966 1.66-5.006 4.048h2.8c.033-1.052.998-1.734 2.192-1.734 1.181 0 1.971.715 1.964 1.754.007 1.087-.918 1.822-2.247 1.822h-1.289v2.146h1.289c1.565 0 2.544.782 2.537 1.896.007 1.1-.938 1.855-2.274 1.855-1.289 0-2.253-.675-2.307-1.687h-2.942c.047 2.416 2.206 4.096 5.242 4.096zm12.525 0c3.104 0 5.323-1.707 5.317-4.069.006-1.72-1.087-2.948-3.118-3.205v-.107c1.546-.277 2.612-1.37 2.605-2.922.007-2.179-1.903-3.893-4.764-3.893-2.833 0-4.966 1.66-5.006 4.048h2.8c.034-1.052.999-1.734 2.193-1.734 1.181 0 1.97.715 1.963 1.754.007 1.087-.917 1.822-2.247 1.822h-1.288v2.146h1.288c1.566 0 2.544.782 2.537 1.896.007 1.1-.937 1.855-2.273 1.855-1.289 0-2.254-.675-2.308-1.687h-2.942c.048 2.416 2.207 4.096 5.243 4.096zm12.464 0c3.076 0 5.168-2.004 5.161-4.797.007-2.645-1.842-4.548-4.332-4.548-1.214 0-2.26.506-2.746 1.188h-.081l.358-3.462h6.039v-2.388h-8.448l-.654 7.287 2.597.465c.425-.573 1.249-.931 2.065-.931 1.39.007 2.389 1.012 2.389 2.463 0 1.437-.979 2.429-2.348 2.429-1.161 0-2.099-.729-2.166-1.802h-2.834c.054 2.389 2.139 4.096 5 4.096z" fill="#FF622D"/><g opacity=".1" filter="url(#filter1_f)"><rect x="174" y="191" width="148.184" height="88.793" rx="9.56" fill="#171A22"/></g><g filter="url(#filter2_d)"><rect x="174" y="191" width="338.432" height="232.815" rx="10" fill="#fff"/></g><path d="M198.846 227.413h2.058v-3.156h1.73c2.239 0 3.541-1.335 3.541-3.279 0-1.935-1.278-3.299-3.489-3.299h-3.84v9.734zm2.058-4.805v-3.246h1.388c1.188 0 1.763.646 1.763 1.616 0 .964-.575 1.63-1.754 1.63h-1.397zm9.751 4.948c2.215 0 3.593-1.517 3.593-3.765 0-2.262-1.378-3.774-3.593-3.774s-3.593 1.512-3.593 3.774c0 2.248 1.378 3.765 3.593 3.765zm.009-1.569c-1.022 0-1.544-.936-1.544-2.21s.522-2.215 1.544-2.215c1.003 0 1.526.941 1.526 2.215s-.523 2.21-1.526 2.21zm10.975-3.793c-.181-1.345-1.264-2.177-3.109-2.177-1.868 0-3.099.866-3.094 2.272-.005 1.094.685 1.802 2.111 2.087l1.264.252c.637.128.927.361.936.727-.009.433-.48.742-1.188.742-.723 0-1.203-.309-1.326-.904l-1.992.105c.19 1.397 1.379 2.258 3.313 2.258 1.892 0 3.246-.965 3.251-2.405-.005-1.055-.694-1.688-2.11-1.978l-1.321-.266c-.68-.147-.932-.38-.927-.732-.005-.437.489-.722 1.117-.722.703 0 1.121.385 1.221.855l1.854-.114zm1.441 5.219h2.025v-7.3h-2.025v7.3zm1.017-8.242c.604 0 1.098-.461 1.098-1.026 0-.561-.494-1.022-1.098-1.022-.599 0-1.093.461-1.093 1.022 0 .565.494 1.026 1.093 1.026zm6.513.942h-1.374v-1.75h-2.024v1.75h-.998v1.52h.998v3.803c-.01 1.43.965 2.139 2.433 2.077a3.956 3.956 0 001.098-.19l-.318-1.507c-.1.019-.314.067-.504.067-.404 0-.685-.152-.685-.713v-3.537h1.374v-1.52zm1.319 7.3h2.025v-7.3h-2.025v7.3zm1.017-8.242c.604 0 1.098-.461 1.098-1.026 0-.561-.494-1.022-1.098-1.022-.599 0-1.093.461-1.093 1.022 0 .565.494 1.026 1.093 1.026zm5.928 8.385c2.215 0 3.593-1.517 3.593-3.765 0-2.262-1.378-3.774-3.593-3.774s-3.593 1.512-3.593 3.774c0 2.248 1.378 3.765 3.593 3.765zm.01-1.569c-1.022 0-1.545-.936-1.545-2.21s.523-2.215 1.545-2.215c1.003 0 1.525.941 1.525 2.215s-.522 2.21-1.525 2.21zm6.925-2.795c.005-.941.565-1.492 1.383-1.492.813 0 1.302.532 1.297 1.426v4.287h2.025v-4.648c0-1.702-.998-2.748-2.519-2.748-1.084 0-1.868.533-2.196 1.384h-.085v-1.288h-1.93v7.3h2.025v-4.221zm9.066-3.816h2.98v8.037h2.034v-8.037h2.981v-1.697h-7.995v1.697zm8.515 8.037h2.025v-4.13c0-.899.656-1.516 1.549-1.516.281 0 .666.047.856.109v-1.797a3.031 3.031 0 00-.637-.071c-.818 0-1.488.475-1.754 1.378h-.076v-1.273h-1.963v7.3zm7.349.138c1.079 0 1.778-.471 2.134-1.15h.057v1.012h1.921v-4.924c0-1.74-1.474-2.472-3.099-2.472-1.749 0-2.9.837-3.18 2.168l1.873.152c.137-.485.57-.841 1.297-.841.689 0 1.084.347 1.084.945v.029c0 .471-.499.532-1.768.656-1.445.133-2.743.618-2.743 2.248 0 1.445 1.032 2.177 2.424 2.177zm.58-1.397c-.623 0-1.069-.29-1.069-.846 0-.571.47-.851 1.183-.951.442-.062 1.165-.166 1.407-.328v.775c0 .765-.632 1.35-1.521 1.35zm8.401 1.402c1.944 0 3.165-1.141 3.26-2.819h-1.91c-.119.78-.632 1.217-1.326 1.217-.946 0-1.559-.794-1.559-2.191 0-1.379.618-2.168 1.559-2.168.741 0 1.216.49 1.326 1.217h1.91c-.085-1.687-1.364-2.795-3.27-2.795-2.214 0-3.583 1.536-3.583 3.774 0 2.22 1.345 3.765 3.593 3.765zm4.557-.143h2.025v-2.319l.546-.623 1.992 2.942h2.371l-2.847-4.14 2.71-3.16h-2.325l-2.338 2.771h-.109v-5.205h-2.025v9.734zm7.79 0h2.025v-7.3h-2.025v7.3zm1.017-8.242c.604 0 1.098-.461 1.098-1.026 0-.561-.494-1.022-1.098-1.022-.599 0-1.093.461-1.093 1.022 0 .565.494 1.026 1.093 1.026zm4.654 4.021c.005-.941.566-1.492 1.383-1.492.813 0 1.303.532 1.298 1.426v4.287h2.025v-4.648c0-1.702-.998-2.748-2.519-2.748-1.084 0-1.868.533-2.196 1.384h-.086v-1.288h-1.929v7.3h2.024v-4.221zm9.591 7.111c2.086 0 3.569-.951 3.569-2.819v-7.371h-2.01v1.226h-.076c-.271-.594-.865-1.322-2.087-1.322-1.602 0-2.956 1.246-2.956 3.732 0 2.428 1.316 3.56 2.961 3.56 1.164 0 1.815-.585 2.082-1.189h.085v1.336c0 1.003-.642 1.392-1.521 1.392-.893 0-1.345-.389-1.511-.831l-1.873.252c.242 1.15 1.369 2.034 3.337 2.034zm.042-4.515c-.993 0-1.535-.789-1.535-2.049 0-1.24.533-2.11 1.535-2.11.984 0 1.536.832 1.536 2.11 0 1.288-.561 2.049-1.536 2.049zm-107.862 13.921h-1.248l2.753 7.649h1.333l2.752-7.649h-1.247l-2.129 6.23h-.086l-2.128-6.23zm6.605 7.649h1.117v-5.736h-1.117v5.736zm.564-6.622c.385 0 .706-.298.706-.664 0-.366-.321-.669-.706-.669-.388 0-.706.303-.706.669 0 .366.318.664.706.664zm6.353 2.286c-.231-.893-.93-1.475-2.17-1.475-1.295 0-2.214.683-2.214 1.699 0 .814.493 1.356 1.568 1.595l.971.213c.553.123.811.369.811.728 0 .444-.475.791-1.206.791-.669 0-1.098-.287-1.233-.851l-1.079.164c.187 1.016 1.031 1.587 2.319 1.587 1.385 0 2.345-.735 2.345-1.773 0-.811-.515-1.311-1.568-1.554l-.911-.209c-.632-.149-.904-.362-.9-.751-.004-.44.474-.754 1.109-.754.694 0 1.015.385 1.146.769l1.012-.179zm1.34 4.336h1.117v-5.736h-1.117v5.736zm.564-6.622c.385 0 .706-.298.706-.664 0-.366-.321-.669-.706-.669-.389 0-.706.303-.706.669 0 .366.317.664.706.664zm2.144 6.622h1.091v-.893h.093c.202.366.613 1.005 1.658 1.005 1.39 0 2.398-1.113 2.398-2.969 0-1.86-1.023-2.954-2.409-2.954-1.064 0-1.449.65-1.647 1.004h-.067v-2.842h-1.117v7.649zm1.095-2.868c0-1.199.522-1.995 1.497-1.995 1.012 0 1.52.856 1.52 1.995 0 1.15-.523 2.027-1.52 2.027-.96 0-1.497-.821-1.497-2.027zm5.399 2.868h1.116v-5.736h-1.116v5.736zm.564-6.622c.384 0 .705-.298.705-.664 0-.366-.321-.669-.705-.669-.389 0-.706.303-.706.669 0 .366.317.664.706.664zm3.171-1.027h-1.117v7.649h1.117v-7.649zm1.502 7.649h1.117v-5.736h-1.117v5.736zm.564-6.622c.385 0 .706-.298.706-.664 0-.366-.321-.669-.706-.669-.388 0-.706.303-.706.669 0 .366.318.664.706.664zm4.733.886h-1.177v-1.375h-1.116v1.375h-.841v.896h.841v3.387c-.004 1.042.791 1.546 1.673 1.527.355-.003.594-.071.724-.119l-.201-.923c-.075.015-.213.049-.393.049-.362 0-.687-.12-.687-.766v-3.155h1.177v-.896zm1.941 7.887c.922 0 1.505-.482 1.837-1.386l2.371-6.49-1.206-.011-1.453 4.451h-.059l-1.453-4.451h-1.195l2.099 5.81-.138.381c-.284.762-.684.826-1.296.658l-.269.914c.134.06.426.124.762.124zm169.792-2.151h1.154v-2.379l.904-1.038 2.472 3.417h1.389l-3.095-4.205 3.084-3.444h-1.453l-3.207 3.653h-.094v-3.653h-1.154v7.649zm8.945.115c1.251 0 2.136-.616 2.39-1.549l-1.057-.191c-.201.542-.687.818-1.322.818-.956 0-1.598-.62-1.628-1.725h4.078v-.396c0-2.073-1.24-2.883-2.539-2.883-1.599 0-2.652 1.217-2.652 2.98 0 1.781 1.039 2.946 2.73 2.946zm-1.613-3.484c.045-.814.635-1.52 1.542-1.52.867 0 1.434.643 1.438 1.52h-2.98zm5.844 5.52c.923 0 1.505-.482 1.838-1.386l2.371-6.49-1.206-.011-1.453 4.451h-.06l-1.452-4.451h-1.195l2.098 5.81-.138.381c-.284.762-.683.826-1.296.658l-.268.914c.134.06.425.124.761.124zm6.505-2.151h1.135l1.165-4.142h.086l1.165 4.142h1.139l1.685-5.736h-1.154l-1.117 4.193h-.056l-1.12-4.193h-1.154l-1.128 4.212h-.056l-1.124-4.212h-1.154l1.688 5.736zm9.676.115c1.617 0 2.674-1.183 2.674-2.957 0-1.785-1.057-2.969-2.674-2.969s-2.674 1.184-2.674 2.969c0 1.774 1.057 2.957 2.674 2.957zm.004-.937c-1.057 0-1.55-.922-1.55-2.024 0-1.098.493-2.032 1.55-2.032 1.049 0 1.542.934 1.542 2.032 0 1.102-.493 2.024-1.542 2.024zm3.916.822h1.117v-3.503c0-.751.579-1.292 1.37-1.292.232 0 .493.041.583.067v-1.068a4.529 4.529 0 00-.474-.026c-.673 0-1.248.381-1.457.997h-.06v-.911h-1.079v5.736zm5.978.112c1.046 0 1.457-.639 1.658-1.005h.094v.893h1.09v-7.649h-1.117v2.842h-.067c-.201-.354-.582-1.004-1.65-1.004-1.386 0-2.405 1.094-2.405 2.954 0 1.856 1.004 2.969 2.397 2.969zm.247-.953c-.998 0-1.517-.877-1.517-2.027 0-1.139.508-1.995 1.517-1.995.974 0 1.497.796 1.497 1.995 0 1.206-.534 2.027-1.497 2.027zm8.487-3.495c-.231-.893-.93-1.475-2.17-1.475-1.296 0-2.214.683-2.214 1.699 0 .814.493 1.356 1.568 1.595l.971.213c.553.123.811.369.811.728 0 .444-.475.791-1.207.791-.668 0-1.098-.287-1.232-.851l-1.079.164c.186 1.016 1.03 1.587 2.319 1.587 1.385 0 2.345-.735 2.345-1.773 0-.811-.515-1.311-1.568-1.554l-.912-.209c-.631-.149-.903-.362-.9-.751-.003-.44.475-.754 1.11-.754.694 0 1.015.385 1.146.769l1.012-.179z" fill="#171A22"/><path d="M204.302 278.473c3.117-.005 5.355-1.675 5.358-3.915-.009-1.727-1.34-3.135-3.001-3.41v-.094c1.444-.299 2.474-1.549 2.479-3.067-.01-2.139-2.064-3.715-4.857-3.71-2.8.004-4.849 1.586-4.839 3.724-.005 1.512 1.016 2.765 2.487 3.06l.001.094c-1.687.28-3 1.692-2.991 3.419-.004 2.24 2.246 3.903 5.363 3.899zm-.003-2.146c-1.39.002-2.322-.82-2.324-1.987-.002-1.194.975-2.059 2.318-2.061 1.336-.002 2.322.86 2.324 2.054.002 1.174-.935 1.992-2.318 1.994zm-.009-6.174c-1.168.002-1.999-.759-2-1.852-.002-1.08.813-1.823 1.994-1.825 1.174-.002 1.998.746 2 1.819.002 1.093-.834 1.857-1.994 1.858zm8.736 8.293a1.641 1.641 0 001.617-1.622c-.008-.884-.758-1.604-1.622-1.603-.89.001-1.625.724-1.617 1.608a1.616 1.616 0 001.622 1.617zm8.671-14.195c-3.09-.009-5.172 2.018-5.155 4.798.011 2.577 1.802 4.443 4.251 4.44 1.518-.002 2.867-.74 3.479-1.955h.094c-.003 2.739-.951 4.407-2.753 4.41-1.059.001-1.822-.578-2.047-1.583l-2.881.004c.274 2.328 2.166 4.086 4.932 4.082 3.421-.005 5.623-2.775 5.609-7.464-.014-5.007-2.689-6.723-5.529-6.732zm.024 2.294c1.342-.002 2.336 1.089 2.351 2.405.009 1.322-1.035 2.417-2.371 2.419-1.35.002-2.316-1.049-2.325-2.405-.015-1.35.988-2.417 2.345-2.419zm12.844 11.882c3.076.009 5.172-2.011 5.161-4.825.003-2.591-1.808-4.457-4.258-4.453-1.518.002-2.859.733-3.478 1.955h-.095c.01-2.692.952-4.367 2.753-4.37 1.06-.001 1.823.578 2.047 1.543l2.881-.005c-.28-2.273-2.172-4.045-4.931-4.041-3.414.005-5.603 2.775-5.61 7.417.001 5.06 2.689 6.77 5.53 6.779zm-.017-2.294c-1.35.002-2.35-1.082-2.352-2.432.005-1.342 1.022-2.437 2.365-2.439 1.349-.002 2.336 1.056 2.331 2.425.009 1.384-.995 2.444-2.344 2.446zm14.816-.507c.009 1.659 1.07 3.068 3.047 3.065 1.957-.003 3.048-1.415 3.039-3.075l-.001-.728c.004-1.674-1.064-3.069-3.048-3.066-1.95.003-3.034 1.415-3.038 3.075l.001.729zm-7.103-7.898c.009 1.66 1.07 3.055 3.041 3.052 1.963-.003 3.054-1.387 3.045-3.061l-.001-.728c.004-1.674-1.064-3.069-3.055-3.066-1.929.003-3.027 1.401-3.031 3.075l.001.728zm.677 10.498l1.761-.003 9.479-13.832-1.761.003-9.479 13.832zm8.388-3.332c.006-.661.268-1.343 1.078-1.344.85-.002 1.073.68 1.068 1.341l.001.728c.008.662-.241 1.33-1.064 1.331-.823.001-1.074-.686-1.082-1.327l-.001-.729zm-7.089-7.897c.005-.641.254-1.343 1.057-1.344.85-.002 1.08.679 1.075 1.341l.001.728c.007.662-.248 1.33-1.071 1.331-.796.001-1.054-.666-1.061-1.327l-.001-.729z" fill="#00A8FF"/><path d="M203.848 320L198 327.5V403h185v-88.5l-4.784-2.5-6.911-13-6.911 33-6.911-20-6.911 8-5.848 12-6.379-17.5-5.848 15-6.911-4.5-5.847 20.5-6.911-8.5-6.38 13.5-5.847-18.5-6.911-7-5.848 2.5-6.911-15.5-6.379 13-12.759-10.5-6.379 21-6.38-25.5-5.847 7.5h-7.974l-11.696-5.5-6.379 27-6.911-7-6.379-12z" fill="#D6EEFB"/><path d="M198 327.5l5.848-7.5 6.379 12 6.911 7 6.379-27 11.696 5.5h7.974l5.847-7.5 6.38 25.5 6.379-21 12.759 10.5 6.379-13 6.911 15.5 5.848-2.5 6.911 7 5.847 18.5 6.38-13.5 6.911 8.5 5.847-20.5 6.911 4.5 5.848-15 6.379 17.5 5.848-12 6.911-8 6.911 20 6.911-33 6.911 13 4.784 2.5" stroke="#00A8FF"/><path d="M405.308 268.57h1.586V273h.766v-4.43h1.588v-.661h-3.94v.661zm5.806 4.507c1.076 0 1.78-.788 1.78-1.969 0-1.188-.704-1.976-1.78-1.976-1.077 0-1.78.788-1.78 1.976 0 1.181.703 1.969 1.78 1.969zm.002-.624c-.703 0-1.031-.614-1.031-1.347 0-.731.328-1.352 1.031-1.352.699 0 1.027.621 1.027 1.352 0 .733-.328 1.347-1.027 1.347zm2.607 1.979h.744v-2.026h.044c.135.244.408.669 1.104.669.925 0 1.596-.741 1.596-1.977 0-1.238-.681-1.966-1.603-1.966-.709 0-.965.433-1.097.669h-.062v-.619h-.726v5.25zm.729-3.341c0-.798.348-1.328.996-1.328.674 0 1.012.57 1.012 1.328 0 .766-.348 1.35-1.012 1.35-.638 0-.996-.547-.996-1.35zm7.207 1.979c1.039 0 1.802-.622 1.799-1.467.003-.644-.388-1.106-1.064-1.211v-.039c.532-.137.878-.555.875-1.126.003-.749-.611-1.388-1.591-1.388-.934 0-1.685.565-1.71 1.393h.743c.018-.468.458-.751.958-.751.519 0 .86.316.857.785.003.493-.393.816-.957.816h-.43v.626h.43c.706 0 1.114.358 1.114.87 0 .495-.43.83-1.029.83-.552 0-.982-.283-1.012-.735h-.781c.033.83.768 1.397 1.798 1.397z" fill="#171A22"/><path d="M407.484 277L405 279.5v14h80v-7h-2.981l-4.969-3.5-2.485 8.5-3.478-9.5-4.969 6.5-2.484-2-3.976 3h-4.472l-1.987 1-5.466-7.5h-2.981l-2.485 2.5h-2.981l-2.485-4-2.484 3-2.485-3-2.484 5-5.963-9.5-3.975 4.5-3.478-2-2.982-2.5-2.484 2.5-2.982-2.5z" fill="#F9D0D6"/><path d="M405 279.5l2.484-2.5 2.982 2.5 2.484-2.5 2.982 2.5 3.478 2 3.975-4.5 5.963 9.5 2.484-5 2.485 3 2.484-3 2.485 4h2.981l2.485-2.5h2.981l5.466 7.5 1.987-1h4.472l3.976-3 2.484 2 4.969-6.5 3.478 9.5 2.485-8.5 4.969 3.5H485" stroke="#F51A38"/><path d="M405.308 305.57h1.586V310h.766v-4.43h1.588v-.661h-3.94v.661zm5.806 4.507c1.076 0 1.78-.788 1.78-1.969 0-1.188-.704-1.976-1.78-1.976-1.077 0-1.78.788-1.78 1.976 0 1.181.703 1.969 1.78 1.969zm.002-.624c-.703 0-1.031-.614-1.031-1.347 0-.731.328-1.352 1.031-1.352.699 0 1.027.621 1.027 1.352 0 .733-.328 1.347-1.027 1.347zm2.607 1.979h.744v-2.026h.044c.135.244.408.669 1.104.669.925 0 1.596-.741 1.596-1.977 0-1.238-.681-1.966-1.603-1.966-.709 0-.965.433-1.097.669h-.062v-.619h-.726v5.25zm.729-3.341c0-.798.348-1.328.996-1.328.674 0 1.012.57 1.012 1.328 0 .766-.348 1.35-1.012 1.35-.638 0-.996-.547-.996-1.35zm7.366-3.182h-.749l-1.27.83v.736l1.218-.795h.03V310h.771v-5.091zm3.149 5.176c1.176 0 1.864-.96 1.864-2.628 0-1.656-.698-2.618-1.864-2.618-1.168 0-1.864.96-1.867 2.618 0 1.666.689 2.625 1.867 2.628zm0-.664c-.688 0-1.104-.691-1.104-1.964.003-1.268.418-1.966 1.104-1.966.684 0 1.101.698 1.101 1.966 0 1.273-.415 1.964-1.101 1.964z" fill="#171A22"/><path d="M407.273 321.273L405 325.636V330h80v-16l-5.909 2.424-1.818-1.454-3.637 4.848-2.272-1.454-2.273 1.454-3.182-3.394-2.273 1.94-3.181-3.394-2.273 1.454-3.182 9.697-2.273-1.939h-4.091l-3.181-2.909-3.637 1.939-2.273-2.909-2.272 3.879-3.182-2.909-7.727 1.939-3.182 2.909-2.273-.485-3.182 1.455-5-.97-1.818-4.848h-3.636z" fill="#DBF7C5"/><path d="M405 325.636l2.273-4.363h3.636l1.818 4.848 5 .97 3.182-1.455 2.273.485 3.182-2.909 7.727-1.939 3.182 2.909 2.272-3.879 2.273 2.909 3.637-1.939 3.181 2.909h4.091l2.273 1.939 3.182-9.697 2.273-1.454 3.181 3.394 2.273-1.94 3.182 3.394 2.273-1.454 2.272 1.454 3.637-4.848 1.818 1.454L485 314" stroke="#84D149"/><path d="M405.308 341.57h1.586V346h.766v-4.43h1.588v-.661h-3.94v.661zm5.806 4.507c1.076 0 1.78-.788 1.78-1.969 0-1.188-.704-1.976-1.78-1.976-1.077 0-1.78.788-1.78 1.976 0 1.181.703 1.969 1.78 1.969zm.002-.624c-.703 0-1.031-.614-1.031-1.347 0-.731.328-1.352 1.031-1.352.699 0 1.027.621 1.027 1.352 0 .733-.328 1.347-1.027 1.347zm2.607 1.979h.744v-2.026h.044c.135.244.408.669 1.104.669.925 0 1.596-.741 1.596-1.977 0-1.238-.681-1.966-1.603-1.966-.709 0-.965.433-1.097.669h-.062v-.619h-.726v5.25zm.729-3.341c0-.798.348-1.328.996-1.328.674 0 1.012.57 1.012 1.328 0 .766-.348 1.35-1.012 1.35-.638 0-.996-.547-.996-1.35zm5.434 1.909h3.351v-.659h-2.292v-.037l1.012-1.059c.932-.942 1.198-1.392 1.198-1.961 0-.818-.666-1.445-1.626-1.445-.952 0-1.648.617-1.648 1.547h.734c-.003-.547.35-.905.899-.905.517 0 .91.318.91.825 0 .45-.268.773-.815 1.352l-1.723 1.785V346zm6.066.085c1.175 0 1.864-.96 1.864-2.628 0-1.656-.699-2.618-1.864-2.618-1.169 0-1.865.96-1.867 2.618 0 1.666.688 2.625 1.867 2.628zm0-.664c-.689 0-1.104-.691-1.104-1.964.002-1.268.417-1.966 1.104-1.966.683 0 1.101.698 1.101 1.966 0 1.273-.415 1.964-1.101 1.964z" fill="#171A22"/><path d="M407.981 357L405 358v8h80v-15l-2.981-2-1.988 2h-3.478l-4.969 5-5.466-1.5-3.975 1.5h-4.472l-1.988 3.5-5.466-.5-2.484.5-2.981-2.5-2.485 3.5-2.484-1-3.479-.5-2.981 2-1.988-.5-2.484 2-2.485-2-2.484 1.5-2.981-1-2.982 2.5-2.484-1.5-2.485.5-2.484-3.5-2.485-2z" fill="#DBF7C5"/><path d="M405 358l2.981-1 2.485 2 2.484 3.5 2.485-.5 2.484 1.5 2.982-2.5 2.981 1 2.484-1.5 2.485 2 2.484-2 1.988.5 2.981-2 3.479.5 2.484 1 2.485-3.5 2.981 2.5 2.484-.5 5.466.5 1.988-3.5h4.472l3.975-1.5 5.466 1.5 4.969-5h3.478l1.988-2 2.981 2" stroke="#84D149"/><path d="M405.308 377.57h1.586V382h.766v-4.43h1.588v-.661h-3.94v.661zm5.806 4.507c1.076 0 1.78-.788 1.78-1.969 0-1.188-.704-1.976-1.78-1.976-1.077 0-1.78.788-1.78 1.976 0 1.181.703 1.969 1.78 1.969zm.002-.624c-.703 0-1.031-.614-1.031-1.347 0-.731.328-1.352 1.031-1.352.699 0 1.027.621 1.027 1.352 0 .733-.328 1.347-1.027 1.347zm2.607 1.979h.744v-2.026h.044c.135.244.408.669 1.104.669.925 0 1.596-.741 1.596-1.977 0-1.238-.681-1.966-1.603-1.966-.709 0-.965.433-1.097.669h-.062v-.619h-.726v5.25zm.729-3.341c0-.798.348-1.328.996-1.328.674 0 1.012.57 1.012 1.328 0 .766-.348 1.35-1.012 1.35-.638 0-.996-.547-.996-1.35zm7.366-3.182h-.749l-1.27.83v.736l1.218-.795h.03V382h.771v-5.091zm3.149 5.176c1.176 0 1.864-.96 1.864-2.628 0-1.656-.698-2.618-1.864-2.618-1.168 0-1.864.96-1.867 2.618 0 1.666.689 2.625 1.867 2.628zm0-.664c-.688 0-1.104-.691-1.104-1.964.003-1.268.418-1.966 1.104-1.966.684 0 1.101.698 1.101 1.966 0 1.273-.415 1.964-1.101 1.964zm4.519.664c1.175 0 1.864-.96 1.864-2.628 0-1.656-.698-2.618-1.864-2.618-1.169 0-1.865.96-1.867 2.618 0 1.666.688 2.625 1.867 2.628zm0-.664c-.689 0-1.104-.691-1.104-1.964.002-1.268.418-1.966 1.104-1.966.683 0 1.101.698 1.101 1.966 0 1.273-.415 1.964-1.101 1.964z" fill="#171A22"/><path d="M407.286 398.606l-2.286-.97V402h80v-16l-5.486 7.273-2.743-5.334h-2.742L469 394.242h-3.2l-7.771-6.787-5.943 9.697-5.029-1.94-5.486 1.94-5.028-3.879-2.286.969-2.743-4.363-3.2 9.697-2.285-2.424-6.4 2.424-4.572-2.424-2.743 1.454-2.285-3.394-2.743 3.394z" fill="#DBF7C5"/><path d="M405 397.636l2.286.97 2.743-3.394 2.285 3.394 2.743-1.454 4.572 2.424 6.4-2.424 2.285 2.424 3.2-9.697 2.743 4.363 2.286-.969 5.028 3.879 5.486-1.94 5.029 1.94 5.943-9.697 7.771 6.787h3.2l5.029-6.303h2.742l2.743 5.334L485 386" stroke="#84D149"/><defs><filter id="filter0_d" x="0" y="0" width="470.034" height="409.476" filterUnits="userSpaceOnUse" color-interpolation-filters="sRGB"><feFlood flood-opacity="0" result="BackgroundImageFix"/><feColorMatrix in="SourceAlpha" values="0 0 0 0 0 0 0 0 0 0 0 0 0 0 0 0 0 0 127 0"/><feOffset dx="4" dy="4"/><feGaussianBlur stdDeviation="9"/><feColorMatrix values="0 0 0 0 0.537255 0 0 0 0 0.552941 0 0 0 0 0.603922 0 0 0 0.3 0"/><feBlend in2="BackgroundImageFix" result="effect1_dropShadow"/><feBlend in="SourceGraphic" in2="effect1_dropShadow" result="shape"/></filter><filter id="filter1_f" x="40.157" y="57.157" width="415.87" height="356.479" filterUnits="userSpaceOnUse" color-interpolation-filters="sRGB"><feFlood flood-opacity="0" result="BackgroundImageFix"/><feBlend in="SourceGraphic" in2="BackgroundImageFix" result="shape"/><feGaussianBlur stdDeviation="66.922" result="effect1_foregroundBlur"/></filter><filter id="filter2_d" x="139" y="156" width="428.432" height="322.815" filterUnits="userSpaceOnUse" color-interpolation-filters="sRGB"><feFlood flood-opacity="0" result="BackgroundImageFix"/><feColorMatrix in="SourceAlpha" values="0 0 0 0 0 0 0 0 0 0 0 0 0 0 0 0 0 0 127 0"/><feOffset dx="10" dy="10"/><feGaussianBlur stdDeviation="22.5"/><feColorMatrix values="0 0 0 0 0.537255 0 0 0 0 0.552941 0 0 0 0 0.603922 0 0 0 0.3 0"/><feBlend in2="BackgroundImageFix" result="effect1_dropShadow"/><feBlend in="SourceGraphic" in2="effect1_dropShadow" result="shape"/></filter></defs></svg>